<svg width="54" height="80" viewBox="0 0 54 80" fill="none" xmlns="http://www.w3.org/2000/svg">
<path d="M52.3027 5.32019C53.5758 4.78719 54.1854 3.31806 53.6644 2.0388C53.1434 0.759538 51.689 0.154576 50.4159 0.687579L52.3027 5.32019ZM27.2799 33.4968L24.9275 32.6873L27.2799 33.4968ZM17.2953 78.4593C18.2678 79.4333 19.8448 79.4237 20.8176 78.4378L36.6719 62.3721C37.6448 61.3862 37.6452 59.7974 36.6727 58.8234C35.7003 57.8494 34.1233 57.8591 33.1504 58.8449L19.0578 73.1256L4.97194 59.0171C3.99951 58.0431 2.42252 58.0527 1.44963 59.0386C0.476732 60.0244 0.476351 61.6132 1.44878 62.5872L17.2953 78.4593ZM51.3593 3.00389C50.4159 0.687579 50.4146 0.688121 50.4133 0.688688C50.4128 0.688912 50.4113 0.689507 50.4103 0.689955C50.4081 0.690852 50.4058 0.691854 50.4032 0.692962C50.3979 0.695178 50.3917 0.697817 50.3846 0.700885C50.3703 0.70702 50.3521 0.714869 50.3303 0.724473C50.2866 0.74368 50.2279 0.769913 50.155 0.803502C50.0092 0.870674 49.8066 0.967302 49.5528 1.09604C49.0454 1.35347 48.3331 1.73959 47.463 2.27568C45.723 3.34772 43.3489 5.02121 40.7186 7.46662C35.448 12.3669 29.1832 20.3358 24.9275 32.6873L29.6322 34.3064C33.5948 22.8057 39.3698 15.5281 44.0843 11.1449C46.4466 8.94864 48.5515 7.47118 50.0422 6.5527C50.7875 6.09354 51.3786 5.7745 51.7707 5.57559C51.9667 5.47616 52.1128 5.40682 52.2034 5.36507C52.2487 5.3442 52.2801 5.33023 52.2969 5.32285C52.3053 5.31916 52.31 5.31712 52.311 5.31669C52.3115 5.31648 52.3111 5.31667 52.3097 5.31725C52.309 5.31754 52.3081 5.31793 52.3069 5.31842C52.3063 5.31867 52.3053 5.31911 52.305 5.31923C52.3039 5.3197 52.3027 5.32019 51.3593 3.00389ZM24.9275 32.6873C20.7513 44.8081 18.6629 55.7742 17.6175 63.7156C17.0946 67.6885 16.8318 70.9104 16.6998 73.1489C16.6338 74.2683 16.6004 75.1423 16.5835 75.742C16.5751 76.0418 16.5708 76.2731 16.5686 76.4322C16.5675 76.5117 16.5669 76.5733 16.5666 76.6163C16.5664 76.6378 16.5664 76.6547 16.5663 76.6669C16.5663 76.673 16.5663 76.6779 16.5663 76.6817C16.5663 76.6836 16.5663 76.6852 16.5663 76.6864C16.5663 76.6871 16.5663 76.6878 16.5663 76.6882C16.5663 76.6888 16.5663 76.6894 19.0569 76.6742C21.5476 76.659 21.5476 76.6595 21.5476 76.6598C21.5476 76.6599 21.5476 76.6602 21.5476 76.6602C21.5476 76.6603 21.5476 76.6602 21.5476 76.6597C21.5476 76.6587 21.5476 76.6566 21.5476 76.6534C21.5476 76.6468 21.5477 76.6356 21.5478 76.6198C21.548 76.5883 21.5484 76.5384 21.5494 76.4706C21.5513 76.3349 21.5551 76.1277 21.5628 75.8526C21.5783 75.3022 21.6095 74.4801 21.6723 73.4151C21.798 71.2847 22.05 68.1846 22.5555 64.3446C23.567 56.6604 25.5902 46.0378 29.6322 34.3064L24.9275 32.6873Z" fill="#BD0010"/>
</svg>
