<svg width="27" height="39" viewBox="0 0 27 39" fill="none" xmlns="http://www.w3.org/2000/svg">
<path d="M25.738 14.4358L26.7193 14.2431L25.738 14.4358ZM0.0824763 33.6039C-0.136831 34.1108 0.0962901 34.6994 0.603166 34.9188L8.86318 38.4926C9.37006 38.7119 9.95875 38.4788 10.1781 37.9719C10.3974 37.465 10.1642 36.8763 9.65736 36.657L2.31513 33.4803L5.49185 26.138C5.71115 25.6312 5.47803 25.0425 4.97116 24.8232C4.46428 24.6039 3.87559 24.837 3.65629 25.3439L0.0824763 33.6039ZM10.8081 1.18674C10.5049 2.13965 10.5046 2.13957 10.5045 2.13952C10.5045 2.13952 10.5044 2.13948 10.5044 2.13949C10.5044 2.1395 10.5046 2.13957 10.5051 2.13971C10.5059 2.13998 10.5076 2.14051 10.51 2.14129C10.5148 2.14286 10.5228 2.14544 10.5337 2.14903C10.5556 2.15622 10.5895 2.16747 10.6346 2.18281C10.7249 2.21349 10.8603 2.26049 11.0346 2.32396C11.3835 2.45094 11.888 2.64358 12.5006 2.90306C13.728 3.42293 15.3786 4.20655 17.0782 5.26178C20.5246 7.40156 23.9498 10.5187 24.7568 14.6285L26.7193 14.2431C25.7465 9.28871 21.7067 5.78136 18.1331 3.56264C16.3227 2.43863 14.5746 1.60951 13.2807 1.06145C12.6327 0.786972 12.0959 0.581847 11.7187 0.444563C11.53 0.375897 11.3811 0.324131 11.2779 0.289084C11.2263 0.271558 11.1861 0.258206 11.1581 0.249006C11.1441 0.244405 11.1332 0.240842 11.1253 0.238313C11.1214 0.237049 11.1183 0.236043 11.116 0.235295C11.1148 0.234922 11.1138 0.234612 11.1131 0.234367C11.1127 0.234245 11.1123 0.23411 11.1121 0.234049C11.1117 0.23393 11.1114 0.233827 10.8081 1.18674ZM24.7568 14.6285C25.0996 16.3747 24.1031 18.4003 21.9128 20.6134C19.7673 22.7813 16.7063 24.8921 13.5306 26.7549C10.366 28.6113 7.1394 30.1916 4.69934 31.3094C3.48057 31.8677 2.46091 32.3093 1.74706 32.6109C1.3902 32.7616 1.10993 32.8773 0.919614 32.955C0.82446 32.9939 0.751806 33.0232 0.703322 33.0427C0.679081 33.0525 0.660883 33.0597 0.648938 33.0645C0.642966 33.0669 0.638557 33.0686 0.635737 33.0698C0.634327 33.0703 0.633315 33.0707 0.632703 33.071C0.632397 33.0711 0.63224 33.0712 0.632086 33.0712C0.632029 33.0712 0.632073 33.0712 1.00026 34.001C1.36844 34.9307 1.36868 34.9306 1.36903 34.9305C1.36928 34.9304 1.36973 34.9302 1.37023 34.93C1.37123 34.9296 1.37263 34.9291 1.37443 34.9283C1.37804 34.9269 1.38323 34.9248 1.39 34.9221C1.40353 34.9168 1.42334 34.9088 1.44922 34.8984C1.50098 34.8776 1.57701 34.8469 1.67564 34.8066C1.87289 34.7261 2.1606 34.6073 2.52535 34.4532C3.25473 34.1451 4.29285 33.6955 5.53229 33.1277C8.00866 31.9933 11.3002 30.3819 14.5425 28.48C17.7738 26.5846 21.0084 24.3706 23.3344 22.0202C25.6156 19.7152 27.2663 17.029 26.7193 14.2431L24.7568 14.6285Z" fill="#BD0010"/>
</svg>
