<svg width="36" height="80" viewBox="0 0 36 80" fill="none" xmlns="http://www.w3.org/2000/svg">
<path d="M22.3193 74.5846C20.9958 74.9705 20.2265 76.3623 20.6011 77.6933C20.9757 79.0244 22.3523 79.7907 23.6759 79.4049L22.3193 74.5846ZM24.8575 50.2829L22.404 50.73L24.8575 50.2829ZM14.5639 0.440989C13.3437 -0.19098 11.8398 0.296558 11.2048 1.52993L0.857311 21.6289C0.222336 22.8623 0.696773 24.3745 1.91699 25.0064C3.13721 25.6384 4.64115 25.1509 5.27612 23.9175L14.4739 6.05172L32.1491 15.206C33.3694 15.838 34.8733 15.3504 35.5083 14.117C36.1432 12.8837 35.6688 11.3715 34.4486 10.7395L14.5639 0.440989ZM22.9976 76.9948C23.6759 79.4049 23.6805 79.4035 23.6851 79.4022C23.6866 79.4017 23.6913 79.4003 23.6944 79.3994C23.7007 79.3975 23.7071 79.3956 23.7136 79.3936C23.7266 79.3896 23.74 79.3853 23.7538 79.3808C23.7814 79.3719 23.8106 79.3619 23.8413 79.3508C23.9028 79.3286 23.9702 79.3021 24.043 79.2704C24.1887 79.2069 24.3544 79.1231 24.5346 79.0132C24.8974 78.792 25.3051 78.4733 25.7202 78.0208C26.5527 77.1132 27.3568 75.7327 27.9437 73.6518C29.1002 69.551 29.4967 62.4338 27.3111 49.8357L22.404 50.73C24.54 63.0419 24.0065 69.2807 23.1527 72.3083C22.7344 73.7916 22.2632 74.4185 22.0717 74.6271C21.9748 74.7328 21.9333 74.7495 21.975 74.7241C21.9946 74.7122 22.0317 74.6915 22.089 74.6665C22.1175 74.6541 22.1508 74.6407 22.1891 74.6269C22.2083 74.6199 22.2287 74.6129 22.2504 74.6059C22.2612 74.6023 22.2724 74.5988 22.2839 74.5953C22.2896 74.5935 22.2954 74.5917 22.3013 74.59C22.3043 74.5891 22.3088 74.5877 22.3103 74.5873C22.3148 74.586 22.3193 74.5846 22.9976 76.9948ZM27.3111 49.8357C25.1338 37.2859 22.2543 25.3088 19.9224 16.4779C18.7558 12.0598 17.7246 8.42282 16.9842 5.88782C16.614 4.62019 16.3164 3.62774 16.1108 2.95052C16.008 2.6119 15.9282 2.35208 15.8739 2.17603C15.8467 2.08801 15.8259 2.02092 15.8117 1.97542C15.8046 1.95266 15.7992 1.9353 15.7955 1.92341C15.7936 1.91746 15.7922 1.91288 15.7912 1.90968C15.7907 1.90808 15.7903 1.90683 15.79 1.90591C15.7899 1.90546 15.7897 1.90503 15.7897 1.90481C15.7896 1.90447 15.7895 1.90422 13.4142 2.67421C11.039 3.44421 11.0389 3.44413 11.0389 3.44415C11.039 3.44426 11.039 3.44436 11.0391 3.44459C11.0392 3.44506 11.0395 3.44588 11.0398 3.44704C11.0406 3.44936 11.0417 3.45306 11.0433 3.45812C11.0465 3.46824 11.0513 3.48381 11.0579 3.50476C11.0709 3.54667 11.0906 3.61009 11.1166 3.6944C11.1687 3.86301 11.2461 4.11517 11.3465 4.44588C11.5473 5.1073 11.8398 6.08279 12.2048 7.33238C12.9348 9.83181 13.9541 13.4264 15.108 17.7967C17.4174 26.5426 20.2596 38.3699 22.404 50.73L27.3111 49.8357Z" fill="#BD0010"/>
</svg>
