<svg width="98" height="32" viewBox="0 0 98 32" fill="none" xmlns="http://www.w3.org/2000/svg">
<path d="M4.11938 12.0107C2.89009 12.6404 1.39319 12.15 0.775954 10.9155C0.158721 9.6809 0.654892 8.16966 1.88418 7.54L4.11938 12.0107ZM50.3564 6.6656L49.7416 9.10112L50.3564 6.6656ZM97.174 24.6402C97.42 26.0022 96.5223 27.3141 95.1689 27.5705L73.1144 31.7493C71.761 32.0057 70.4645 31.1095 70.2185 29.7476C69.9725 28.3857 70.8702 27.0737 72.2236 26.8173L91.8276 23.1029L88.2643 3.37497C88.0183 2.01305 88.916 0.701114 90.2694 0.444687C91.6228 0.188259 92.9193 1.08444 93.1653 2.44637L97.174 24.6402ZM3.00178 9.77537C1.88418 7.54 1.88519 7.53949 1.88627 7.53894C1.88673 7.5387 1.88788 7.53811 1.8888 7.53764C1.89065 7.5367 1.89279 7.53561 1.89523 7.53437C1.90012 7.53189 1.90622 7.5288 1.91351 7.52513C1.92809 7.51778 1.94748 7.50808 1.97161 7.49613C2.01987 7.47223 2.08715 7.43932 2.17309 7.39825C2.34496 7.31611 2.59154 7.20128 2.90999 7.06043C3.54682 6.77876 4.47169 6.3928 5.66198 5.95615C8.04182 5.08312 11.4877 4.00562 15.8175 3.15483C24.4795 1.45283 36.6921 0.65626 50.9713 4.23008L49.7416 9.10112C36.2884 5.73401 24.8237 6.49232 16.7414 8.08044C12.6991 8.87471 9.50614 9.87608 7.34017 10.6706C6.25756 11.0678 5.43278 11.4128 4.88819 11.6537C4.61593 11.7741 4.41385 11.8684 4.28475 11.9301C4.2202 11.961 4.17391 11.9837 4.14623 11.9974C4.13239 12.0042 4.1232 12.0088 4.11871 12.0111C4.11646 12.0122 4.11539 12.0128 4.1155 12.0127C4.11556 12.0127 4.11591 12.0125 4.11655 12.0122C4.11688 12.012 4.11758 12.0117 4.11775 12.0116C4.11853 12.0112 4.11938 12.0107 3.00178 9.77537ZM50.9713 4.23008C65.0337 7.74965 76.289 12.426 84.0417 16.2307C87.919 18.1335 90.9234 19.8198 92.9681 21.0371C93.9905 21.6458 94.7734 22.1374 95.3058 22.4805C95.572 22.652 95.7756 22.7864 95.9153 22.8797C95.9852 22.9263 96.039 22.9627 96.0768 22.9884C96.0956 23.0012 96.1104 23.0113 96.1212 23.0187C96.1266 23.0224 96.131 23.0254 96.1343 23.0277C96.136 23.0288 96.1374 23.0298 96.1386 23.0306C96.1392 23.031 96.1398 23.0315 96.1401 23.0317C96.1408 23.0321 96.1413 23.0325 94.7235 25.1045C93.3057 27.1766 93.3061 27.1769 93.3065 27.1771C93.3065 27.1772 93.3068 27.1774 93.3069 27.1774C93.3071 27.1775 93.307 27.1774 93.3066 27.1772C93.3059 27.1767 93.3042 27.1755 93.3015 27.1737C93.296 27.17 93.2866 27.1635 93.2731 27.1543C93.2462 27.136 93.2033 27.107 93.1445 27.0678C93.027 26.9893 92.8462 26.8699 92.6033 26.7134C92.1177 26.4005 91.3843 25.9396 90.414 25.362C88.473 24.2065 85.5855 22.5845 81.8376 20.7452C74.3398 17.0656 63.4116 12.5225 49.7416 9.10112L50.9713 4.23008Z" fill="#BD0010"/>
</svg>
