<svg width="390" height="41" viewBox="0 0 390 41" fill="none" xmlns="http://www.w3.org/2000/svg">
<path d="M134.216 27.24C138.68 27.24 141.464 24.768 141.464 20.352V10.92H139.76V20.28C139.76 23.952 137.96 25.56 134.216 25.56C130.472 25.56 128.672 23.952 128.672 20.28V10.92H126.968V20.352C126.968 24.768 129.752 27.24 134.216 27.24ZM145.925 27V10.92H144.221V27H145.925Z" fill="black"/>
<path d="M214.005 27.24C216.621 27.24 218.541 25.872 219.117 23.496H219.213V27H220.773V10.92H219.069V18.456H218.949C218.421 16.416 216.669 14.904 213.861 14.904C210.213 14.904 208.101 17.472 208.101 21.072C208.101 24.672 210.213 27.24 214.005 27.24ZM209.829 21.072C209.829 17.64 211.677 16.488 214.389 16.488C217.317 16.488 219.069 18.12 219.069 21.048V21.264C219.069 24.072 217.221 25.68 214.437 25.68C211.653 25.68 209.829 24.504 209.829 21.072ZM229.275 27.24C232.587 27.24 235.035 25.536 235.035 23.064V22.896H233.331V23.064C233.331 24.792 232.035 25.824 229.251 25.824C226.107 25.824 224.739 24.216 224.643 21.552H235.083C235.155 21.24 235.203 20.88 235.203 20.448C235.203 16.92 232.731 14.904 229.251 14.904C225.435 14.904 223.035 17.472 223.035 21.072C223.035 24.84 225.459 27.24 229.275 27.24ZM229.227 16.32C232.011 16.32 233.595 17.64 233.595 20.136C233.595 20.256 233.595 20.376 233.595 20.496H224.643C224.763 17.904 226.155 16.32 229.227 16.32ZM242.671 27.24C245.743 27.24 247.951 26.064 247.951 23.832C247.951 21.912 246.583 21.048 244.039 20.688L241.135 20.28C239.167 19.992 238.543 19.56 238.543 18.336C238.543 16.92 239.575 16.32 242.071 16.32C245.095 16.32 246.031 17.28 246.031 19.056V19.176H247.735V19.128C247.735 16.344 245.527 14.904 242.119 14.904C238.855 14.904 236.863 16.224 236.863 18.312C236.863 20.28 238.231 21.12 240.391 21.408L243.559 21.864C245.527 22.176 246.271 22.584 246.271 23.832C246.271 25.2 245.359 25.824 242.695 25.824C239.791 25.824 238.615 25.128 238.615 23.136V22.992H236.911V23.04C236.911 25.776 239.023 27.24 242.671 27.24ZM251.894 13.632V10.92H250.19V13.632H251.894ZM251.894 27V15.144H250.19V27H251.894ZM259.848 26.04C262.584 26.04 264.336 24.696 264.816 22.872H264.936V25.968C264.936 28.92 263.736 29.856 260.664 29.856C258.024 29.856 256.632 29.04 256.632 26.952H254.928C254.928 29.712 257.376 31.32 260.592 31.32C264.168 31.32 266.64 29.784 266.64 25.872V15.144H265.104V18.192H264.984C264.504 16.08 262.536 14.904 260.04 14.904C256.392 14.904 254.16 17.232 254.16 20.472C254.16 23.712 256.32 26.04 259.848 26.04ZM255.864 20.472C255.864 17.448 257.76 16.416 260.424 16.416C263.16 16.416 264.936 17.808 264.936 20.136V20.544C264.936 23.064 263.232 24.528 260.304 24.528C257.736 24.528 255.864 23.496 255.864 20.472ZM271.23 27V21.264C271.23 18.216 272.742 16.464 275.622 16.464C278.334 16.464 279.51 17.88 279.51 20.328V27H281.214V20.088C281.214 17.28 279.558 14.904 276.222 14.904C273.27 14.904 271.59 16.848 271.182 18.864H271.062V15.144H269.526V27H271.23Z" fill="black"/>
<path d="M24.568 27.24C29.032 27.24 31.816 24.768 31.816 20.352V10.92H30.112V20.28C30.112 23.952 28.312 25.56 24.568 25.56C20.824 25.56 19.024 23.952 19.024 20.28V10.92H17.32V20.352C17.32 24.768 20.104 27.24 24.568 27.24ZM35.4368 27L41.2448 19.992H41.3888L47.1968 27H49.4048L42.7328 18.96V18.84L49.4048 10.92H47.1968L41.4128 17.784H41.2928L35.4368 10.92H33.2528L39.9008 18.816V18.96L33.2528 27H35.4368Z" fill="black"/>
<path d="M320.984 27V16.608H325.76V15.144H320.984C320.888 12.984 322.064 12.264 324.224 12.264H325.76V10.92H324.464C321.392 10.92 319.496 12.336 319.304 15.144H317.384V16.608H319.28V27H320.984ZM329.12 13.632V10.92H327.416V13.632H329.12ZM329.12 27V15.144H327.416V27H329.12ZM337.098 26.04C339.834 26.04 341.586 24.696 342.066 22.872H342.186V25.968C342.186 28.92 340.986 29.856 337.914 29.856C335.274 29.856 333.882 29.04 333.882 26.952H332.178C332.178 29.712 334.626 31.32 337.842 31.32C341.418 31.32 343.89 29.784 343.89 25.872V15.144H342.354V18.192H342.234C341.754 16.08 339.786 14.904 337.29 14.904C333.642 14.904 331.41 17.232 331.41 20.472C331.41 23.712 333.57 26.04 337.098 26.04ZM333.114 20.472C333.114 17.448 335.01 16.416 337.674 16.416C340.41 16.416 342.186 17.808 342.186 20.136V20.544C342.186 23.064 340.482 24.528 337.554 24.528C334.986 24.528 333.114 23.496 333.114 20.472ZM348.48 27V21.264C348.48 18.12 349.608 16.464 352.488 16.464C354.984 16.464 356.088 17.688 356.088 20.328V27H357.792V21.264C357.792 18.12 358.944 16.464 361.8 16.464C364.296 16.464 365.424 17.688 365.424 20.328V27H367.128V20.088C367.128 17.088 365.52 14.904 362.424 14.904C359.448 14.904 358.032 16.8 357.696 18.84H357.576C357.192 16.536 355.704 14.904 353.064 14.904C350.112 14.904 348.744 16.728 348.408 18.72H348.312V15.144H346.776V27H348.48ZM373.197 27.24C375.957 27.24 378.045 25.992 378.741 23.808H378.861V27H380.397V19.584C380.397 16.968 378.861 14.904 375.261 14.904C371.613 14.904 369.549 16.944 369.549 19.44V19.536H371.253V19.44C371.253 17.352 372.597 16.44 375.141 16.44C377.733 16.44 378.741 17.352 378.741 19.656V20.568L373.101 21.192C370.893 21.432 369.285 22.272 369.285 24.216C369.285 26.136 370.869 27.24 373.197 27.24ZM370.989 24.096C370.989 22.872 371.853 22.44 373.629 22.272L378.741 21.696V21.792C378.741 24.648 376.461 25.92 373.581 25.92C371.781 25.92 370.989 25.296 370.989 24.096Z" fill="black"/>
<line y1="0.5" x2="390" y2="0.5" stroke="black"/>
<line y1="40.5" x2="390" y2="40.5" stroke="black"/>
<line x1="72.5" y1="40" x2="72.5" y2="1" stroke="black"/>
<line x1="191.5" y1="40" x2="191.5" y2="1" stroke="black"/>
<line x1="297.5" y1="40" x2="297.5" y2="1" stroke="black"/>
</svg>
