<svg width="1480" height="180" viewBox="0 0 1480 180" fill="none" xmlns="http://www.w3.org/2000/svg">
<rect x="20" y="20" width="1440" height="60" fill="white"/>
<path d="M80.0652 55.3823L82.4439 54.7338V42.3157C82.4439 41.7537 82.4005 41.3863 82.3136 41.2134C82.2267 41.0188 81.9986 40.8459 81.6293 40.6946L80 39.7543L80.0978 36.8362H97.7918C97.9439 39.1059 98.0199 41.3214 98.0199 43.483L95.6086 43.6451L93.295 40.7919L88.3745 40.6622V46.4335L95.3153 45.8174V50.8106L88.3745 50.0649V53.4369C88.3745 53.9556 88.4071 54.2907 88.4723 54.442C88.5592 54.5933 88.7656 54.7446 89.0914 54.8959L91.0466 56.0631L90.9488 58.6894H80.2281L80.0652 55.3823Z" fill="#212734"/>
<path d="M99.3478 55.7065L101.629 55.0256V39.4949C101.629 39.0194 101.585 38.7168 101.498 38.5871C101.433 38.4358 101.249 38.2737 100.944 38.1007L99.5107 37.355L99.6736 34.8909C100.108 34.8044 100.445 34.7504 100.684 34.7287C103.551 34.21 105.55 33.929 106.68 33.8857C106.897 34.3829 107.038 34.9449 107.103 35.5717V53.9556C107.103 54.4096 107.136 54.7122 107.201 54.8635C107.266 55.0148 107.451 55.1769 107.755 55.3498L109.352 56.2577L109.221 58.6894H99.4455L99.3478 55.7065Z" fill="#212734"/>
<path d="M116.14 66.1143C114.576 65.0768 113.186 63.7366 111.969 62.0938L115.586 58.5597L110.861 46.1741C110.622 45.5905 110.459 45.2122 110.372 45.0393C110.286 44.8664 110.123 44.6286 109.884 44.326L109.33 43.6127L109.493 41.7321H117.835L118.16 44.4881L116.27 44.942L118.942 53.0802L121.94 45.6229C121.984 45.4932 122.006 45.3959 122.006 45.3311C122.006 45.1366 121.919 45.0069 121.745 44.942L120.213 44.2936L120.507 41.7321H126.698L126.991 44.3584L122.82 53.4044C121.321 56.6684 120.083 59.2298 119.105 61.0887C118.128 62.9476 117.139 64.6228 116.14 66.1143Z" fill="#212734"/>
<path d="M128.657 55.5768L130.677 54.9932V47.1468C130.677 46.6713 130.644 46.3686 130.579 46.2389C130.514 46.0876 130.34 45.9255 130.058 45.7526L128.624 44.9744L128.722 42.5427L129.439 42.413C132.284 41.851 134.337 41.5484 135.597 41.5052C135.771 41.9591 135.912 42.4562 136.021 42.9966C137.346 42.3914 138.421 41.9807 139.247 41.7646C140.094 41.5268 140.887 41.4079 141.626 41.4079C145.08 41.4079 146.807 43.4614 146.807 47.5683V53.9232C146.807 54.3771 146.839 54.6798 146.905 54.8311C146.97 54.9824 147.154 55.1445 147.459 55.3174L149.023 56.2253L148.892 58.657H139.899L139.736 55.5768L141.332 55.1229V48.9949C141.332 48.0222 141.3 47.3413 141.235 46.9523C141.17 46.5632 140.985 46.2606 140.681 46.0444C140.398 45.8283 139.888 45.7202 139.149 45.7202C138.367 45.7202 137.379 45.8391 136.184 46.0768V53.9232C136.184 54.3771 136.216 54.6798 136.282 54.8311C136.347 54.9824 136.521 55.1445 136.803 55.3174L138.4 56.2253L138.269 58.657H128.82L128.657 55.5768Z" fill="#212734"/>
<path d="M156.778 59.1109C154.866 59.1109 153.454 58.6462 152.542 57.7167C151.629 56.7656 151.173 55.3282 151.173 53.4044V45.5256H148.892V43.1587L154.758 37.8414L156.647 38.0683V41.7321H162.122V45.5581H156.647V52.2372C156.647 53.2748 156.789 53.9664 157.071 54.3123C157.375 54.6581 157.951 54.8311 158.798 54.8311C159.515 54.8311 160.514 54.7338 161.796 54.5393L162.187 57.8464C161.405 58.2139 160.525 58.5165 159.548 58.7543C158.592 58.992 157.669 59.1109 156.778 59.1109Z" fill="#212734"/>
<rect width="7.53866" height="6.68612" transform="matrix(0.966576 -0.256379 0.261279 0.965263 164.966 52.3582)" fill="#394DFF"/>
<path d="M212.958 51.4927H209.812V49.8408H212.958C213.506 49.8408 213.949 49.7523 214.286 49.5752C214.624 49.3981 214.87 49.1546 215.025 48.8447C215.185 48.5293 215.266 48.1696 215.266 47.7656C215.266 47.3838 215.185 47.0269 215.025 46.6948C214.87 46.3573 214.624 46.0861 214.286 45.8813C213.949 45.6766 213.506 45.5742 212.958 45.5742H210.451V56H208.368V43.9141H212.958C213.893 43.9141 214.687 44.0801 215.34 44.4121C215.999 44.7386 216.5 45.1924 216.843 45.7734C217.186 46.349 217.357 47.0075 217.357 47.749C217.357 48.5293 217.186 49.1989 216.843 49.7578C216.5 50.3167 215.999 50.7456 215.34 51.0444C214.687 51.3433 213.893 51.4927 212.958 51.4927ZM221.167 43.25V56H219.159V43.25H221.167ZM228.422 54.1987V49.9155C228.422 49.5946 228.364 49.3179 228.248 49.0854C228.132 48.853 227.955 48.6732 227.717 48.5459C227.484 48.4186 227.191 48.355 226.837 48.355C226.51 48.355 226.228 48.4103 225.99 48.521C225.752 48.6317 225.567 48.7811 225.434 48.9692C225.301 49.1574 225.235 49.3704 225.235 49.6084H223.243C223.243 49.2542 223.328 48.9111 223.5 48.5791C223.672 48.2471 223.921 47.951 224.247 47.6909C224.574 47.4308 224.964 47.2261 225.417 47.0767C225.871 46.9272 226.38 46.8525 226.945 46.8525C227.62 46.8525 228.218 46.966 228.738 47.1929C229.264 47.4198 229.676 47.7629 229.975 48.2222C230.279 48.6759 230.431 49.2459 230.431 49.9321V53.9248C230.431 54.3343 230.459 54.7023 230.514 55.0288C230.575 55.3498 230.661 55.6292 230.771 55.8672V56H228.721C228.627 55.7842 228.552 55.5103 228.497 55.1782C228.447 54.8407 228.422 54.5142 228.422 54.1987ZM228.713 50.5381L228.729 51.7749H227.293C226.923 51.7749 226.596 51.8109 226.314 51.8828C226.032 51.9492 225.797 52.0488 225.608 52.1816C225.42 52.3145 225.279 52.4749 225.185 52.6631C225.091 52.8512 225.044 53.0643 225.044 53.3022C225.044 53.5402 225.099 53.7588 225.21 53.958C225.321 54.1517 225.481 54.3039 225.691 54.4146C225.907 54.5252 226.167 54.5806 226.472 54.5806C226.881 54.5806 227.238 54.4976 227.542 54.3315C227.852 54.16 228.096 53.9525 228.273 53.709C228.45 53.46 228.544 53.2248 228.555 53.0034L229.203 53.8916C229.136 54.1185 229.023 54.362 228.862 54.6221C228.702 54.8822 228.492 55.1312 228.231 55.3691C227.977 55.6016 227.67 55.7925 227.31 55.9419C226.956 56.0913 226.546 56.166 226.082 56.166C225.495 56.166 224.972 56.0498 224.513 55.8174C224.053 55.5794 223.694 55.2612 223.434 54.8628C223.174 54.4588 223.043 54.0023 223.043 53.4932C223.043 53.0173 223.132 52.5967 223.309 52.2314C223.492 51.8607 223.757 51.5508 224.106 51.3018C224.46 51.0527 224.892 50.8646 225.401 50.7373C225.91 50.6045 226.491 50.5381 227.144 50.5381H228.713ZM234.507 48.936V56H232.506V47.0186H234.391L234.507 48.936ZM234.15 51.1772L233.502 51.1689C233.508 50.5326 233.597 49.9487 233.768 49.4175C233.945 48.8862 234.189 48.4297 234.499 48.0479C234.814 47.666 235.19 47.3727 235.627 47.168C236.065 46.9577 236.552 46.8525 237.088 46.8525C237.52 46.8525 237.91 46.9134 238.259 47.0352C238.613 47.1514 238.915 47.3423 239.164 47.6079C239.418 47.8735 239.612 48.2194 239.745 48.6455C239.877 49.0661 239.944 49.5835 239.944 50.1978V56H237.935V50.1895C237.935 49.7578 237.871 49.4175 237.744 49.1685C237.622 48.9139 237.443 48.734 237.205 48.6289C236.972 48.5182 236.682 48.4629 236.333 48.4629C235.99 48.4629 235.683 48.5348 235.412 48.6787C235.14 48.8226 234.911 49.019 234.723 49.2681C234.54 49.5171 234.399 49.8049 234.299 50.1313C234.2 50.4578 234.15 50.8065 234.15 51.1772ZM243.97 48.936V56H241.969V47.0186H243.854L243.97 48.936ZM243.613 51.1772L242.965 51.1689C242.971 50.5326 243.059 49.9487 243.231 49.4175C243.408 48.8862 243.652 48.4297 243.961 48.0479C244.277 47.666 244.653 47.3727 245.09 47.168C245.528 46.9577 246.014 46.8525 246.551 46.8525C246.983 46.8525 247.373 46.9134 247.722 47.0352C248.076 47.1514 248.377 47.3423 248.626 47.6079C248.881 47.8735 249.075 48.2194 249.208 48.6455C249.34 49.0661 249.407 49.5835 249.407 50.1978V56H247.398V50.1895C247.398 49.7578 247.334 49.4175 247.207 49.1685C247.085 48.9139 246.905 48.734 246.667 48.6289C246.435 48.5182 246.145 48.4629 245.796 48.4629C245.453 48.4629 245.146 48.5348 244.875 48.6787C244.603 48.8226 244.374 49.019 244.186 49.2681C244.003 49.5171 243.862 49.8049 243.762 50.1313C243.663 50.4578 243.613 50.8065 243.613 51.1772ZM253.59 47.0186V56H251.582V47.0186H253.59ZM251.449 44.6611C251.449 44.3568 251.548 44.105 251.748 43.9058C251.952 43.701 252.235 43.5986 252.594 43.5986C252.948 43.5986 253.228 43.701 253.433 43.9058C253.637 44.105 253.74 44.3568 253.74 44.6611C253.74 44.96 253.637 45.209 253.433 45.4082C253.228 45.6074 252.948 45.707 252.594 45.707C252.235 45.707 251.952 45.6074 251.748 45.4082C251.548 45.209 251.449 44.96 251.449 44.6611ZM257.766 48.936V56H255.765V47.0186H257.649L257.766 48.936ZM257.409 51.1772L256.761 51.1689C256.767 50.5326 256.855 49.9487 257.027 49.4175C257.204 48.8862 257.447 48.4297 257.757 48.0479C258.073 47.666 258.449 47.3727 258.886 47.168C259.323 46.9577 259.81 46.8525 260.347 46.8525C260.779 46.8525 261.169 46.9134 261.518 47.0352C261.872 47.1514 262.173 47.3423 262.422 47.6079C262.677 47.8735 262.871 48.2194 263.003 48.6455C263.136 49.0661 263.203 49.5835 263.203 50.1978V56H261.194V50.1895C261.194 49.7578 261.13 49.4175 261.003 49.1685C260.881 48.9139 260.701 48.734 260.463 48.6289C260.231 48.5182 259.94 48.4629 259.592 48.4629C259.249 48.4629 258.942 48.5348 258.67 48.6787C258.399 48.8226 258.17 49.019 257.981 49.2681C257.799 49.5171 257.658 49.8049 257.558 50.1313C257.458 50.4578 257.409 50.8065 257.409 51.1772ZM270.997 47.0186H272.815V55.751C272.815 56.5589 272.643 57.2451 272.3 57.8096C271.957 58.374 271.479 58.8029 270.864 59.0962C270.25 59.395 269.539 59.5444 268.731 59.5444C268.388 59.5444 268.006 59.4946 267.585 59.395C267.17 59.2954 266.766 59.1349 266.374 58.9136C265.986 58.6978 265.662 58.4128 265.402 58.0586L266.34 56.8799C266.661 57.2617 267.015 57.5412 267.403 57.7183C267.79 57.8953 268.197 57.9839 268.623 57.9839C269.082 57.9839 269.472 57.8981 269.793 57.7266C270.12 57.5605 270.372 57.3143 270.549 56.9878C270.726 56.6613 270.814 56.2629 270.814 55.7925V49.0522L270.997 47.0186ZM264.896 51.6089V51.4346C264.896 50.7539 264.979 50.1341 265.145 49.5752C265.311 49.0107 265.549 48.5265 265.859 48.1226C266.169 47.7131 266.545 47.4004 266.988 47.1846C267.431 46.9632 267.931 46.8525 268.49 46.8525C269.071 46.8525 269.567 46.9577 269.976 47.168C270.391 47.3783 270.737 47.6799 271.014 48.0728C271.29 48.4601 271.506 48.925 271.661 49.4673C271.822 50.0041 271.941 50.6017 272.018 51.2603V51.8164C271.946 52.4583 271.824 53.0449 271.653 53.5762C271.481 54.1074 271.254 54.5667 270.972 54.9541C270.69 55.3415 270.341 55.6403 269.926 55.8506C269.517 56.0609 269.033 56.166 268.474 56.166C267.926 56.166 267.431 56.0526 266.988 55.8257C266.551 55.5988 266.174 55.2806 265.859 54.8711C265.549 54.4616 265.311 53.9801 265.145 53.4268C264.979 52.8678 264.896 52.2619 264.896 51.6089ZM266.896 51.4346V51.6089C266.896 52.0184 266.935 52.4002 267.013 52.7544C267.096 53.1086 267.22 53.4212 267.386 53.6924C267.558 53.958 267.774 54.1683 268.034 54.3232C268.299 54.4727 268.612 54.5474 268.972 54.5474C269.442 54.5474 269.827 54.4478 270.125 54.2485C270.43 54.0493 270.662 53.7809 270.823 53.4434C270.989 53.1003 271.105 52.7184 271.171 52.2979V50.7954C271.138 50.4689 271.069 50.1646 270.964 49.8823C270.864 49.6001 270.729 49.3538 270.557 49.1436C270.386 48.9277 270.17 48.7617 269.91 48.6455C269.65 48.5238 269.342 48.4629 268.988 48.4629C268.629 48.4629 268.316 48.5404 268.05 48.6953C267.785 48.8503 267.566 49.0633 267.395 49.3345C267.229 49.6056 267.104 49.9211 267.021 50.2808C266.938 50.6405 266.896 51.0251 266.896 51.4346Z" fill="black" fill-opacity="0.87"/>
<path d="M301.142 49.625V50.2891C301.142 51.2021 301.023 52.0212 300.785 52.7461C300.547 53.471 300.207 54.0881 299.764 54.5972C299.327 55.1063 298.801 55.4964 298.187 55.7676C297.573 56.0332 296.892 56.166 296.145 56.166C295.403 56.166 294.726 56.0332 294.111 55.7676C293.503 55.4964 292.974 55.1063 292.526 54.5972C292.078 54.0881 291.729 53.471 291.48 52.7461C291.236 52.0212 291.115 51.2021 291.115 50.2891V49.625C291.115 48.7119 291.236 47.8957 291.48 47.1763C291.723 46.4513 292.067 45.8343 292.509 45.3252C292.958 44.8105 293.486 44.4204 294.095 44.1548C294.709 43.8836 295.387 43.748 296.128 43.748C296.875 43.748 297.556 43.8836 298.17 44.1548C298.785 44.4204 299.313 44.8105 299.756 45.3252C300.199 45.8343 300.539 46.4513 300.777 47.1763C301.02 47.8957 301.142 48.7119 301.142 49.625ZM299.059 50.2891V49.6084C299.059 48.9333 298.992 48.3384 298.859 47.8237C298.732 47.3035 298.541 46.8691 298.287 46.5205C298.038 46.1663 297.73 45.9007 297.365 45.7236C297 45.541 296.588 45.4497 296.128 45.4497C295.669 45.4497 295.26 45.541 294.9 45.7236C294.54 45.9007 294.233 46.1663 293.979 46.5205C293.729 46.8691 293.539 47.3035 293.406 47.8237C293.273 48.3384 293.207 48.9333 293.207 49.6084V50.2891C293.207 50.9642 293.273 51.5618 293.406 52.082C293.539 52.6022 293.732 53.0422 293.987 53.4019C294.247 53.756 294.557 54.0244 294.917 54.207C295.276 54.3841 295.686 54.4727 296.145 54.4727C296.61 54.4727 297.022 54.3841 297.382 54.207C297.742 54.0244 298.046 53.756 298.295 53.4019C298.544 53.0422 298.732 52.6022 298.859 52.082C298.992 51.5618 299.059 50.9642 299.059 50.2891ZM305.732 56H303.732V46.1553C303.732 45.4857 303.856 44.924 304.105 44.4702C304.36 44.0109 304.722 43.665 305.193 43.4326C305.663 43.1947 306.219 43.0757 306.861 43.0757C307.061 43.0757 307.257 43.0895 307.451 43.1172C307.644 43.1393 307.833 43.1753 308.015 43.2251L307.965 44.769C307.855 44.7414 307.733 44.722 307.6 44.7109C307.473 44.6999 307.334 44.6943 307.185 44.6943C306.881 44.6943 306.618 44.7524 306.396 44.8687C306.181 44.9793 306.015 45.1426 305.898 45.3584C305.788 45.5742 305.732 45.8398 305.732 46.1553V56ZM307.583 47.0186V48.4795H302.354V47.0186H307.583ZM311.742 56H309.742V46.1553C309.742 45.4857 309.866 44.924 310.115 44.4702C310.37 44.0109 310.732 43.665 311.203 43.4326C311.673 43.1947 312.229 43.0757 312.871 43.0757C313.07 43.0757 313.267 43.0895 313.46 43.1172C313.654 43.1393 313.842 43.1753 314.025 43.2251L313.975 44.769C313.864 44.7414 313.743 44.722 313.61 44.7109C313.483 44.6999 313.344 44.6943 313.195 44.6943C312.89 44.6943 312.628 44.7524 312.406 44.8687C312.19 44.9793 312.024 45.1426 311.908 45.3584C311.798 45.5742 311.742 45.8398 311.742 46.1553V56ZM313.593 47.0186V48.4795H308.364V47.0186H313.593ZM317.055 48.7285V56H315.054V47.0186H316.963L317.055 48.7285ZM319.802 46.9604L319.786 48.8198C319.664 48.7977 319.531 48.7811 319.387 48.77C319.249 48.759 319.111 48.7534 318.972 48.7534C318.629 48.7534 318.327 48.8032 318.067 48.9028C317.807 48.9969 317.589 49.1353 317.412 49.3179C317.24 49.495 317.107 49.7108 317.013 49.9653C316.919 50.2199 316.864 50.5049 316.847 50.8203L316.391 50.8535C316.391 50.2891 316.446 49.7661 316.557 49.2847C316.667 48.8032 316.833 48.3799 317.055 48.0146C317.282 47.6494 317.564 47.3644 317.901 47.1597C318.244 46.9549 318.64 46.8525 319.088 46.8525C319.21 46.8525 319.34 46.8636 319.479 46.8857C319.622 46.9079 319.73 46.9328 319.802 46.9604ZM324.849 56.166C324.185 56.166 323.585 56.0581 323.048 55.8423C322.517 55.6209 322.063 55.3138 321.687 54.9209C321.316 54.528 321.031 54.0659 320.832 53.5347C320.632 53.0034 320.533 52.4307 320.533 51.8164V51.4844C320.533 50.7816 320.635 50.1452 320.84 49.5752C321.045 49.0052 321.33 48.5182 321.695 48.1143C322.06 47.7048 322.492 47.3921 322.99 47.1763C323.488 46.9604 324.027 46.8525 324.608 46.8525C325.25 46.8525 325.812 46.9604 326.293 47.1763C326.775 47.3921 327.173 47.6965 327.489 48.0894C327.81 48.4767 328.048 48.9388 328.203 49.4756C328.363 50.0124 328.443 50.6045 328.443 51.252V52.1069H321.504V50.6709H326.468V50.5132C326.457 50.1535 326.385 49.8159 326.252 49.5005C326.125 49.1851 325.928 48.9305 325.663 48.7368C325.397 48.5431 325.043 48.4463 324.6 48.4463C324.268 48.4463 323.972 48.5182 323.712 48.6621C323.457 48.8005 323.244 49.0024 323.073 49.2681C322.901 49.5337 322.768 49.8547 322.674 50.231C322.586 50.6017 322.542 51.0195 322.542 51.4844V51.8164C322.542 52.2093 322.594 52.5745 322.699 52.9121C322.81 53.2441 322.97 53.5347 323.181 53.7837C323.391 54.0327 323.646 54.2292 323.944 54.373C324.243 54.5114 324.583 54.5806 324.965 54.5806C325.447 54.5806 325.876 54.4837 326.252 54.29C326.628 54.0964 326.955 53.8224 327.231 53.4683L328.286 54.4893C328.092 54.7715 327.84 55.0426 327.53 55.3027C327.22 55.5573 326.841 55.7648 326.393 55.9253C325.95 56.0858 325.436 56.166 324.849 56.166ZM335.042 53.5679C335.042 53.3687 334.993 53.1888 334.893 53.0283C334.793 52.8623 334.603 52.7129 334.32 52.5801C334.044 52.4473 333.634 52.3255 333.092 52.2148C332.616 52.1097 332.179 51.9852 331.78 51.8413C331.387 51.6919 331.05 51.512 330.768 51.3018C330.485 51.0915 330.267 50.8424 330.112 50.5547C329.957 50.2669 329.879 49.9349 329.879 49.5586C329.879 49.1934 329.96 48.8475 330.12 48.521C330.281 48.1945 330.51 47.9067 330.809 47.6577C331.108 47.4087 331.47 47.2122 331.896 47.0684C332.328 46.9245 332.81 46.8525 333.341 46.8525C334.093 46.8525 334.738 46.9798 335.275 47.2344C335.817 47.4834 336.232 47.8237 336.52 48.2554C336.808 48.6815 336.952 49.1629 336.952 49.6997H334.951C334.951 49.4618 334.89 49.2404 334.769 49.0356C334.652 48.8254 334.475 48.6566 334.237 48.5293C333.999 48.3965 333.701 48.3301 333.341 48.3301C332.998 48.3301 332.713 48.3854 332.486 48.4961C332.264 48.6012 332.098 48.7396 331.988 48.9111C331.883 49.0827 331.83 49.2708 331.83 49.4756C331.83 49.625 331.858 49.7606 331.913 49.8823C331.974 49.9985 332.074 50.1064 332.212 50.2061C332.35 50.3001 332.538 50.3887 332.776 50.4717C333.02 50.5547 333.324 50.6349 333.689 50.7124C334.376 50.8563 334.965 51.0417 335.458 51.2686C335.956 51.4899 336.337 51.7777 336.603 52.1318C336.869 52.4805 337.001 52.9232 337.001 53.46C337.001 53.8584 336.916 54.2236 336.744 54.5557C336.578 54.8822 336.335 55.1672 336.014 55.4106C335.693 55.6486 335.308 55.834 334.86 55.9668C334.417 56.0996 333.919 56.166 333.366 56.166C332.552 56.166 331.863 56.0221 331.299 55.7344C330.734 55.4411 330.306 55.0675 330.012 54.6138C329.724 54.1545 329.581 53.6785 329.581 53.186H331.515C331.537 53.5568 331.639 53.8529 331.822 54.0742C332.01 54.29 332.242 54.4478 332.519 54.5474C332.801 54.6414 333.092 54.6885 333.391 54.6885C333.75 54.6885 334.052 54.6414 334.295 54.5474C334.539 54.4478 334.724 54.3149 334.852 54.1489C334.979 53.9774 335.042 53.7837 335.042 53.5679Z" fill="black" fill-opacity="0.87"/>
<path d="M359.984 45.5244L356.373 56H354.19L358.739 43.9141H360.133L359.984 45.5244ZM363.005 56L359.386 45.5244L359.229 43.9141H360.631L365.197 56H363.005ZM362.831 51.5176V53.1694H356.257V51.5176H362.831ZM368.185 48.936V56H366.185V47.0186H368.069L368.185 48.936ZM367.828 51.1772L367.181 51.1689C367.186 50.5326 367.275 49.9487 367.446 49.4175C367.623 48.8862 367.867 48.4297 368.177 48.0479C368.492 47.666 368.868 47.3727 369.306 47.168C369.743 46.9577 370.23 46.8525 370.767 46.8525C371.198 46.8525 371.588 46.9134 371.937 47.0352C372.291 47.1514 372.593 47.3423 372.842 47.6079C373.096 47.8735 373.29 48.2194 373.423 48.6455C373.556 49.0661 373.622 49.5835 373.622 50.1978V56H371.613V50.1895C371.613 49.7578 371.55 49.4175 371.422 49.1685C371.301 48.9139 371.121 48.734 370.883 48.6289C370.65 48.5182 370.36 48.4629 370.011 48.4629C369.668 48.4629 369.361 48.5348 369.09 48.6787C368.819 48.8226 368.589 49.019 368.401 49.2681C368.218 49.5171 368.077 49.8049 367.978 50.1313C367.878 50.4578 367.828 50.8065 367.828 51.1772ZM377.648 48.936V56H375.647V47.0186H377.532L377.648 48.936ZM377.291 51.1772L376.644 51.1689C376.649 50.5326 376.738 49.9487 376.909 49.4175C377.086 48.8862 377.33 48.4297 377.64 48.0479C377.955 47.666 378.331 47.3727 378.769 47.168C379.206 46.9577 379.693 46.8525 380.229 46.8525C380.661 46.8525 381.051 46.9134 381.4 47.0352C381.754 47.1514 382.056 47.3423 382.305 47.6079C382.559 47.8735 382.753 48.2194 382.886 48.6455C383.019 49.0661 383.085 49.5835 383.085 50.1978V56H381.076V50.1895C381.076 49.7578 381.013 49.4175 380.885 49.1685C380.764 48.9139 380.584 48.734 380.346 48.6289C380.113 48.5182 379.823 48.4629 379.474 48.4629C379.131 48.4629 378.824 48.5348 378.553 48.6787C378.282 48.8226 378.052 49.019 377.864 49.2681C377.681 49.5171 377.54 49.8049 377.44 50.1313C377.341 50.4578 377.291 50.8065 377.291 51.1772ZM384.745 51.6089V51.418C384.745 50.7705 384.839 50.1701 385.027 49.6167C385.215 49.0578 385.487 48.5736 385.841 48.1641C386.201 47.749 386.638 47.4281 387.152 47.2012C387.673 46.9688 388.259 46.8525 388.912 46.8525C389.571 46.8525 390.157 46.9688 390.672 47.2012C391.192 47.4281 391.632 47.749 391.992 48.1641C392.351 48.5736 392.625 49.0578 392.813 49.6167C393.002 50.1701 393.096 50.7705 393.096 51.418V51.6089C393.096 52.2563 393.002 52.8568 392.813 53.4102C392.625 53.9635 392.351 54.4478 391.992 54.8628C391.632 55.2723 391.195 55.5933 390.68 55.8257C390.166 56.0526 389.582 56.166 388.929 56.166C388.27 56.166 387.681 56.0526 387.161 55.8257C386.646 55.5933 386.209 55.2723 385.849 54.8628C385.489 54.4478 385.215 53.9635 385.027 53.4102C384.839 52.8568 384.745 52.2563 384.745 51.6089ZM386.746 51.418V51.6089C386.746 52.0129 386.787 52.3947 386.87 52.7544C386.953 53.1141 387.083 53.4295 387.26 53.7007C387.437 53.9718 387.664 54.1849 387.941 54.3398C388.218 54.4948 388.547 54.5723 388.929 54.5723C389.299 54.5723 389.62 54.4948 389.892 54.3398C390.168 54.1849 390.395 53.9718 390.572 53.7007C390.749 53.4295 390.879 53.1141 390.962 52.7544C391.051 52.3947 391.095 52.0129 391.095 51.6089V51.418C391.095 51.0195 391.051 50.6432 390.962 50.2891C390.879 49.9294 390.747 49.6112 390.564 49.3345C390.387 49.0578 390.16 48.842 389.883 48.687C389.612 48.5265 389.288 48.4463 388.912 48.4463C388.536 48.4463 388.209 48.5265 387.933 48.687C387.661 48.842 387.437 49.0578 387.26 49.3345C387.083 49.6112 386.953 49.9294 386.87 50.2891C386.787 50.6432 386.746 51.0195 386.746 51.418ZM396.756 48.936V56H394.756V47.0186H396.64L396.756 48.936ZM396.399 51.1772L395.752 51.1689C395.757 50.5326 395.846 49.9487 396.018 49.4175C396.195 48.8862 396.438 48.4297 396.748 48.0479C397.063 47.666 397.44 47.3727 397.877 47.168C398.314 46.9577 398.801 46.8525 399.338 46.8525C399.77 46.8525 400.16 46.9134 400.508 47.0352C400.862 47.1514 401.164 47.3423 401.413 47.6079C401.668 47.8735 401.861 48.2194 401.994 48.6455C402.127 49.0661 402.193 49.5835 402.193 50.1978V56H400.185V50.1895C400.185 49.7578 400.121 49.4175 399.994 49.1685C399.872 48.9139 399.692 48.734 399.454 48.6289C399.222 48.5182 398.931 48.4629 398.583 48.4629C398.239 48.4629 397.932 48.5348 397.661 48.6787C397.39 48.8226 397.16 49.019 396.972 49.2681C396.79 49.5171 396.648 49.8049 396.549 50.1313C396.449 50.4578 396.399 50.8065 396.399 51.1772ZM407.904 54.5723C408.231 54.5723 408.524 54.5086 408.784 54.3813C409.05 54.2485 409.263 54.0659 409.423 53.8335C409.589 53.6011 409.681 53.3327 409.697 53.0283H411.582C411.57 53.6094 411.399 54.1379 411.067 54.6138C410.735 55.0897 410.295 55.4688 409.747 55.751C409.199 56.0277 408.593 56.166 407.929 56.166C407.243 56.166 406.645 56.0498 406.136 55.8174C405.627 55.5794 405.204 55.2529 404.866 54.8379C404.529 54.4229 404.274 53.9442 404.103 53.4019C403.937 52.8595 403.854 52.2785 403.854 51.6587V51.3682C403.854 50.7484 403.937 50.1673 404.103 49.625C404.274 49.0771 404.529 48.5957 404.866 48.1807C405.204 47.7656 405.627 47.4419 406.136 47.2095C406.645 46.9715 407.24 46.8525 407.921 46.8525C408.64 46.8525 409.271 46.9964 409.813 47.2842C410.356 47.5664 410.782 47.9621 411.092 48.4712C411.407 48.9748 411.57 49.5614 411.582 50.231H409.697C409.681 49.8989 409.598 49.6001 409.448 49.3345C409.304 49.0633 409.1 48.8475 408.834 48.687C408.574 48.5265 408.261 48.4463 407.896 48.4463C407.492 48.4463 407.157 48.5293 406.892 48.6953C406.626 48.8558 406.418 49.0771 406.269 49.3594C406.12 49.6361 406.012 49.9487 405.945 50.2974C405.884 50.6405 405.854 50.9974 405.854 51.3682V51.6587C405.854 52.0295 405.884 52.3892 405.945 52.7378C406.006 53.0864 406.111 53.3991 406.261 53.6758C406.416 53.9469 406.626 54.1655 406.892 54.3315C407.157 54.492 407.495 54.5723 407.904 54.5723ZM417.077 56.166C416.413 56.166 415.812 56.0581 415.275 55.8423C414.744 55.6209 414.29 55.3138 413.914 54.9209C413.543 54.528 413.258 54.0659 413.059 53.5347C412.86 53.0034 412.76 52.4307 412.76 51.8164V51.4844C412.76 50.7816 412.863 50.1452 413.067 49.5752C413.272 49.0052 413.557 48.5182 413.922 48.1143C414.288 47.7048 414.719 47.3921 415.217 47.1763C415.715 46.9604 416.255 46.8525 416.836 46.8525C417.478 46.8525 418.04 46.9604 418.521 47.1763C419.002 47.3921 419.401 47.6965 419.716 48.0894C420.037 48.4767 420.275 48.9388 420.43 49.4756C420.591 50.0124 420.671 50.6045 420.671 51.252V52.1069H413.731V50.6709H418.695V50.5132C418.684 50.1535 418.612 49.8159 418.479 49.5005C418.352 49.1851 418.156 48.9305 417.89 48.7368C417.625 48.5431 417.27 48.4463 416.828 48.4463C416.496 48.4463 416.2 48.5182 415.939 48.6621C415.685 48.8005 415.472 49.0024 415.3 49.2681C415.129 49.5337 414.996 49.8547 414.902 50.231C414.813 50.6017 414.769 51.0195 414.769 51.4844V51.8164C414.769 52.2093 414.822 52.5745 414.927 52.9121C415.037 53.2441 415.198 53.5347 415.408 53.7837C415.618 54.0327 415.873 54.2292 416.172 54.373C416.471 54.5114 416.811 54.5806 417.193 54.5806C417.674 54.5806 418.103 54.4837 418.479 54.29C418.856 54.0964 419.182 53.8224 419.459 53.4683L420.513 54.4893C420.319 54.7715 420.068 55.0426 419.758 55.3027C419.448 55.5573 419.069 55.7648 418.621 55.9253C418.178 56.0858 417.663 56.166 417.077 56.166ZM427.27 53.5679C427.27 53.3687 427.22 53.1888 427.121 53.0283C427.021 52.8623 426.83 52.7129 426.548 52.5801C426.271 52.4473 425.862 52.3255 425.319 52.2148C424.843 52.1097 424.406 51.9852 424.008 51.8413C423.615 51.6919 423.277 51.512 422.995 51.3018C422.713 51.0915 422.494 50.8424 422.339 50.5547C422.184 50.2669 422.107 49.9349 422.107 49.5586C422.107 49.1934 422.187 48.8475 422.348 48.521C422.508 48.1945 422.738 47.9067 423.037 47.6577C423.335 47.4087 423.698 47.2122 424.124 47.0684C424.556 46.9245 425.037 46.8525 425.568 46.8525C426.321 46.8525 426.966 46.9798 427.502 47.2344C428.045 47.4834 428.46 47.8237 428.748 48.2554C429.035 48.6815 429.179 49.1629 429.179 49.6997H427.179C427.179 49.4618 427.118 49.2404 426.996 49.0356C426.88 48.8254 426.703 48.6566 426.465 48.5293C426.227 48.3965 425.928 48.3301 425.568 48.3301C425.225 48.3301 424.94 48.3854 424.713 48.4961C424.492 48.6012 424.326 48.7396 424.215 48.9111C424.11 49.0827 424.058 49.2708 424.058 49.4756C424.058 49.625 424.085 49.7606 424.141 49.8823C424.201 49.9985 424.301 50.1064 424.439 50.2061C424.578 50.3001 424.766 50.3887 425.004 50.4717C425.247 50.5547 425.552 50.6349 425.917 50.7124C426.603 50.8563 427.193 51.0417 427.685 51.2686C428.183 51.4899 428.565 51.7777 428.831 52.1318C429.096 52.4805 429.229 52.9232 429.229 53.46C429.229 53.8584 429.143 54.2236 428.972 54.5557C428.806 54.8822 428.562 55.1672 428.241 55.4106C427.92 55.6486 427.536 55.834 427.087 55.9668C426.645 56.0996 426.147 56.166 425.593 56.166C424.78 56.166 424.091 56.0221 423.526 55.7344C422.962 55.4411 422.533 55.0675 422.24 54.6138C421.952 54.1545 421.808 53.6785 421.808 53.186H423.742C423.764 53.5568 423.867 53.8529 424.049 54.0742C424.237 54.29 424.47 54.4478 424.747 54.5474C425.029 54.6414 425.319 54.6885 425.618 54.6885C425.978 54.6885 426.279 54.6414 426.523 54.5474C426.766 54.4478 426.952 54.3149 427.079 54.1489C427.206 53.9774 427.27 53.7837 427.27 53.5679Z" fill="black" fill-opacity="0.87"/>
<path d="M454.736 52.0654H456.811C456.745 52.8568 456.523 53.5623 456.147 54.1821C455.771 54.7964 455.242 55.2806 454.562 55.6348C453.881 55.9889 453.054 56.166 452.08 56.166C451.333 56.166 450.66 56.0332 450.062 55.7676C449.465 55.4964 448.953 55.1146 448.527 54.6221C448.101 54.124 447.774 53.5236 447.547 52.8208C447.326 52.118 447.215 51.3322 447.215 50.4634V49.459C447.215 48.5902 447.329 47.8044 447.556 47.1016C447.788 46.3988 448.12 45.7983 448.552 45.3003C448.983 44.7967 449.501 44.4121 450.104 44.1465C450.713 43.8809 451.396 43.748 452.154 43.748C453.117 43.748 453.931 43.9251 454.595 44.2793C455.259 44.6335 455.773 45.1232 456.139 45.7485C456.509 46.3739 456.736 47.0905 456.819 47.8984H454.744C454.689 47.3783 454.567 46.9328 454.379 46.562C454.196 46.1912 453.925 45.909 453.565 45.7153C453.206 45.5161 452.735 45.4165 452.154 45.4165C451.678 45.4165 451.263 45.505 450.909 45.6821C450.555 45.8592 450.259 46.1193 450.021 46.4624C449.783 46.8055 449.603 47.2288 449.481 47.7324C449.365 48.2305 449.307 48.8005 449.307 49.4424V50.4634C449.307 51.0721 449.36 51.6255 449.465 52.1235C449.576 52.616 449.742 53.0394 449.963 53.3936C450.19 53.7477 450.478 54.0216 450.826 54.2153C451.175 54.409 451.593 54.5059 452.08 54.5059C452.672 54.5059 453.15 54.4118 453.516 54.2236C453.886 54.0355 454.166 53.7616 454.354 53.4019C454.548 53.0366 454.675 52.5911 454.736 52.0654ZM460.646 43.25V56H458.637V43.25H460.646ZM467.901 54.1987V49.9155C467.901 49.5946 467.843 49.3179 467.727 49.0854C467.61 48.853 467.433 48.6732 467.195 48.5459C466.963 48.4186 466.67 48.355 466.315 48.355C465.989 48.355 465.707 48.4103 465.469 48.521C465.231 48.6317 465.045 48.7811 464.913 48.9692C464.78 49.1574 464.713 49.3704 464.713 49.6084H462.721C462.721 49.2542 462.807 48.9111 462.979 48.5791C463.15 48.2471 463.399 47.951 463.726 47.6909C464.052 47.4308 464.442 47.2261 464.896 47.0767C465.35 46.9272 465.859 46.8525 466.423 46.8525C467.098 46.8525 467.696 46.966 468.216 47.1929C468.742 47.4198 469.154 47.7629 469.453 48.2222C469.757 48.6759 469.91 49.2459 469.91 49.9321V53.9248C469.91 54.3343 469.937 54.7023 469.993 55.0288C470.054 55.3498 470.139 55.6292 470.25 55.8672V56H468.2C468.106 55.7842 468.031 55.5103 467.976 55.1782C467.926 54.8407 467.901 54.5142 467.901 54.1987ZM468.191 50.5381L468.208 51.7749H466.772C466.401 51.7749 466.075 51.8109 465.792 51.8828C465.51 51.9492 465.275 52.0488 465.087 52.1816C464.899 52.3145 464.758 52.4749 464.664 52.6631C464.569 52.8512 464.522 53.0643 464.522 53.3022C464.522 53.5402 464.578 53.7588 464.688 53.958C464.799 54.1517 464.96 54.3039 465.17 54.4146C465.386 54.5252 465.646 54.5806 465.95 54.5806C466.36 54.5806 466.717 54.4976 467.021 54.3315C467.331 54.16 467.574 53.9525 467.751 53.709C467.929 53.46 468.023 53.2248 468.034 53.0034L468.681 53.8916C468.615 54.1185 468.501 54.362 468.341 54.6221C468.18 54.8822 467.97 55.1312 467.71 55.3691C467.455 55.6016 467.148 55.7925 466.789 55.9419C466.434 56.0913 466.025 56.166 465.56 56.166C464.973 56.166 464.451 56.0498 463.991 55.8174C463.532 55.5794 463.172 55.2612 462.912 54.8628C462.652 54.4588 462.522 54.0023 462.522 53.4932C462.522 53.0173 462.611 52.5967 462.788 52.2314C462.97 51.8607 463.236 51.5508 463.584 51.3018C463.939 51.0527 464.37 50.8646 464.879 50.7373C465.389 50.6045 465.97 50.5381 466.623 50.5381H468.191ZM477.04 53.5679C477.04 53.3687 476.99 53.1888 476.891 53.0283C476.791 52.8623 476.6 52.7129 476.318 52.5801C476.041 52.4473 475.632 52.3255 475.089 52.2148C474.613 52.1097 474.176 51.9852 473.778 51.8413C473.385 51.6919 473.047 51.512 472.765 51.3018C472.483 51.0915 472.264 50.8424 472.109 50.5547C471.954 50.2669 471.877 49.9349 471.877 49.5586C471.877 49.1934 471.957 48.8475 472.118 48.521C472.278 48.1945 472.508 47.9067 472.807 47.6577C473.105 47.4087 473.468 47.2122 473.894 47.0684C474.326 46.9245 474.807 46.8525 475.338 46.8525C476.091 46.8525 476.736 46.9798 477.272 47.2344C477.815 47.4834 478.23 47.8237 478.518 48.2554C478.805 48.6815 478.949 49.1629 478.949 49.6997H476.949C476.949 49.4618 476.888 49.2404 476.766 49.0356C476.65 48.8254 476.473 48.6566 476.235 48.5293C475.997 48.3965 475.698 48.3301 475.338 48.3301C474.995 48.3301 474.71 48.3854 474.483 48.4961C474.262 48.6012 474.096 48.7396 473.985 48.9111C473.88 49.0827 473.828 49.2708 473.828 49.4756C473.828 49.625 473.855 49.7606 473.911 49.8823C473.972 49.9985 474.071 50.1064 474.209 50.2061C474.348 50.3001 474.536 50.3887 474.774 50.4717C475.017 50.5547 475.322 50.6349 475.687 50.7124C476.373 50.8563 476.963 51.0417 477.455 51.2686C477.953 51.4899 478.335 51.7777 478.601 52.1318C478.866 52.4805 478.999 52.9232 478.999 53.46C478.999 53.8584 478.913 54.2236 478.742 54.5557C478.576 54.8822 478.332 55.1672 478.011 55.4106C477.69 55.6486 477.306 55.834 476.857 55.9668C476.415 56.0996 475.917 56.166 475.363 56.166C474.55 56.166 473.861 56.0221 473.296 55.7344C472.732 55.4411 472.303 55.0675 472.01 54.6138C471.722 54.1545 471.578 53.6785 471.578 53.186H473.512C473.534 53.5568 473.637 53.8529 473.819 54.0742C474.007 54.29 474.24 54.4478 474.517 54.5474C474.799 54.6414 475.089 54.6885 475.388 54.6885C475.748 54.6885 476.049 54.6414 476.293 54.5474C476.536 54.4478 476.722 54.3149 476.849 54.1489C476.976 53.9774 477.04 53.7837 477.04 53.5679ZM485.789 53.5679C485.789 53.3687 485.739 53.1888 485.64 53.0283C485.54 52.8623 485.349 52.7129 485.067 52.5801C484.79 52.4473 484.381 52.3255 483.838 52.2148C483.362 52.1097 482.925 51.9852 482.527 51.8413C482.134 51.6919 481.796 51.512 481.514 51.3018C481.232 51.0915 481.013 50.8424 480.858 50.5547C480.703 50.2669 480.626 49.9349 480.626 49.5586C480.626 49.1934 480.706 48.8475 480.867 48.521C481.027 48.1945 481.257 47.9067 481.556 47.6577C481.854 47.4087 482.217 47.2122 482.643 47.0684C483.075 46.9245 483.556 46.8525 484.087 46.8525C484.84 46.8525 485.485 46.9798 486.021 47.2344C486.564 47.4834 486.979 47.8237 487.267 48.2554C487.554 48.6815 487.698 49.1629 487.698 49.6997H485.698C485.698 49.4618 485.637 49.2404 485.515 49.0356C485.399 48.8254 485.222 48.6566 484.984 48.5293C484.746 48.3965 484.447 48.3301 484.087 48.3301C483.744 48.3301 483.459 48.3854 483.232 48.4961C483.011 48.6012 482.845 48.7396 482.734 48.9111C482.629 49.0827 482.577 49.2708 482.577 49.4756C482.577 49.625 482.604 49.7606 482.66 49.8823C482.721 49.9985 482.82 50.1064 482.958 50.2061C483.097 50.3001 483.285 50.3887 483.523 50.4717C483.766 50.5547 484.071 50.6349 484.436 50.7124C485.122 50.8563 485.712 51.0417 486.204 51.2686C486.702 51.4899 487.084 51.7777 487.35 52.1318C487.615 52.4805 487.748 52.9232 487.748 53.46C487.748 53.8584 487.662 54.2236 487.491 54.5557C487.325 54.8822 487.081 55.1672 486.76 55.4106C486.439 55.6486 486.055 55.834 485.606 55.9668C485.164 56.0996 484.666 56.166 484.112 56.166C483.299 56.166 482.61 56.0221 482.045 55.7344C481.481 55.4411 481.052 55.0675 480.759 54.6138C480.471 54.1545 480.327 53.6785 480.327 53.186H482.261C482.283 53.5568 482.386 53.8529 482.568 54.0742C482.757 54.29 482.989 54.4478 483.266 54.5474C483.548 54.6414 483.838 54.6885 484.137 54.6885C484.497 54.6885 484.799 54.6414 485.042 54.5474C485.285 54.4478 485.471 54.3149 485.598 54.1489C485.725 53.9774 485.789 53.7837 485.789 53.5679ZM493.459 56.166C492.795 56.166 492.194 56.0581 491.658 55.8423C491.126 55.6209 490.673 55.3138 490.296 54.9209C489.926 54.528 489.641 54.0659 489.441 53.5347C489.242 53.0034 489.143 52.4307 489.143 51.8164V51.4844C489.143 50.7816 489.245 50.1452 489.45 49.5752C489.654 49.0052 489.939 48.5182 490.305 48.1143C490.67 47.7048 491.102 47.3921 491.6 47.1763C492.098 46.9604 492.637 46.8525 493.218 46.8525C493.86 46.8525 494.422 46.9604 494.903 47.1763C495.385 47.3921 495.783 47.6965 496.099 48.0894C496.42 48.4767 496.658 48.9388 496.812 49.4756C496.973 50.0124 497.053 50.6045 497.053 51.252V52.1069H490.114V50.6709H495.078V50.5132C495.067 50.1535 494.995 49.8159 494.862 49.5005C494.735 49.1851 494.538 48.9305 494.272 48.7368C494.007 48.5431 493.653 48.4463 493.21 48.4463C492.878 48.4463 492.582 48.5182 492.322 48.6621C492.067 48.8005 491.854 49.0024 491.683 49.2681C491.511 49.5337 491.378 49.8547 491.284 50.231C491.196 50.6017 491.151 51.0195 491.151 51.4844V51.8164C491.151 52.2093 491.204 52.5745 491.309 52.9121C491.42 53.2441 491.58 53.5347 491.791 53.7837C492.001 54.0327 492.255 54.2292 492.554 54.373C492.853 54.5114 493.193 54.5806 493.575 54.5806C494.057 54.5806 494.486 54.4837 494.862 54.29C495.238 54.0964 495.565 53.8224 495.841 53.4683L496.896 54.4893C496.702 54.7715 496.45 55.0426 496.14 55.3027C495.83 55.5573 495.451 55.7648 495.003 55.9253C494.56 56.0858 494.046 56.166 493.459 56.166ZM500.614 48.8447V56H498.614V47.0186H500.498L500.614 48.8447ZM500.291 51.1772L499.61 51.1689C499.61 50.5492 499.687 49.9764 499.842 49.4507C499.997 48.925 500.224 48.4684 500.523 48.0811C500.822 47.6882 501.193 47.3866 501.635 47.1763C502.083 46.9604 502.601 46.8525 503.188 46.8525C503.597 46.8525 503.971 46.9134 504.308 47.0352C504.651 47.1514 504.947 47.3368 505.196 47.5913C505.451 47.8459 505.645 48.1724 505.777 48.5708C505.916 48.9692 505.985 49.4507 505.985 50.0151V56H503.984V50.1895C503.984 49.7523 503.918 49.4092 503.785 49.1602C503.658 48.9111 503.472 48.734 503.229 48.6289C502.991 48.5182 502.706 48.4629 502.374 48.4629C501.998 48.4629 501.677 48.5348 501.411 48.6787C501.151 48.8226 500.938 49.019 500.772 49.2681C500.606 49.5171 500.484 49.8049 500.407 50.1313C500.329 50.4578 500.291 50.8065 500.291 51.1772ZM505.86 50.646L504.922 50.8535C504.922 50.3112 504.997 49.7993 505.146 49.3179C505.301 48.8309 505.526 48.4048 505.819 48.0396C506.118 47.6688 506.486 47.3783 506.923 47.168C507.36 46.9577 507.861 46.8525 508.425 46.8525C508.885 46.8525 509.294 46.9162 509.654 47.0435C510.019 47.1652 510.329 47.3589 510.583 47.6245C510.838 47.8901 511.032 48.236 511.165 48.6621C511.297 49.0827 511.364 49.5918 511.364 50.1895V56H509.355V50.1812C509.355 49.7274 509.289 49.376 509.156 49.127C509.028 48.8779 508.846 48.7064 508.608 48.6123C508.37 48.5127 508.085 48.4629 507.753 48.4629C507.443 48.4629 507.169 48.521 506.931 48.6372C506.699 48.7479 506.502 48.9056 506.342 49.1104C506.181 49.3096 506.06 49.5392 505.977 49.7993C505.899 50.0594 505.86 50.3416 505.86 50.646ZM517.382 56.166C516.718 56.166 516.117 56.0581 515.581 55.8423C515.049 55.6209 514.596 55.3138 514.219 54.9209C513.848 54.528 513.563 54.0659 513.364 53.5347C513.165 53.0034 513.065 52.4307 513.065 51.8164V51.4844C513.065 50.7816 513.168 50.1452 513.373 49.5752C513.577 49.0052 513.862 48.5182 514.228 48.1143C514.593 47.7048 515.024 47.3921 515.522 47.1763C516.021 46.9604 516.56 46.8525 517.141 46.8525C517.783 46.8525 518.345 46.9604 518.826 47.1763C519.308 47.3921 519.706 47.6965 520.021 48.0894C520.342 48.4767 520.58 48.9388 520.735 49.4756C520.896 50.0124 520.976 50.6045 520.976 51.252V52.1069H514.037V50.6709H519V50.5132C518.989 50.1535 518.917 49.8159 518.785 49.5005C518.657 49.1851 518.461 48.9305 518.195 48.7368C517.93 48.5431 517.576 48.4463 517.133 48.4463C516.801 48.4463 516.505 48.5182 516.245 48.6621C515.99 48.8005 515.777 49.0024 515.605 49.2681C515.434 49.5337 515.301 49.8547 515.207 50.231C515.118 50.6017 515.074 51.0195 515.074 51.4844V51.8164C515.074 52.2093 515.127 52.5745 515.232 52.9121C515.343 53.2441 515.503 53.5347 515.713 53.7837C515.924 54.0327 516.178 54.2292 516.477 54.373C516.776 54.5114 517.116 54.5806 517.498 54.5806C517.979 54.5806 518.408 54.4837 518.785 54.29C519.161 54.0964 519.487 53.8224 519.764 53.4683L520.818 54.4893C520.625 54.7715 520.373 55.0426 520.063 55.3027C519.753 55.5573 519.374 55.7648 518.926 55.9253C518.483 56.0858 517.968 56.166 517.382 56.166ZM524.521 48.936V56H522.52V47.0186H524.404L524.521 48.936ZM524.164 51.1772L523.516 51.1689C523.522 50.5326 523.61 49.9487 523.782 49.4175C523.959 48.8862 524.202 48.4297 524.512 48.0479C524.828 47.666 525.204 47.3727 525.641 47.168C526.078 46.9577 526.565 46.8525 527.102 46.8525C527.534 46.8525 527.924 46.9134 528.272 47.0352C528.627 47.1514 528.928 47.3423 529.177 47.6079C529.432 47.8735 529.625 48.2194 529.758 48.6455C529.891 49.0661 529.958 49.5835 529.958 50.1978V56H527.949V50.1895C527.949 49.7578 527.885 49.4175 527.758 49.1685C527.636 48.9139 527.456 48.734 527.218 48.6289C526.986 48.5182 526.695 48.4629 526.347 48.4629C526.004 48.4629 525.696 48.5348 525.425 48.6787C525.154 48.8226 524.924 49.019 524.736 49.2681C524.554 49.5171 524.413 49.8049 524.313 50.1313C524.213 50.4578 524.164 50.8065 524.164 51.1772ZM536.117 47.0186V48.4795H531.053V47.0186H536.117ZM532.514 44.8188H534.515V53.5181C534.515 53.7948 534.553 54.0078 534.631 54.1572C534.714 54.3011 534.827 54.3979 534.971 54.4478C535.115 54.4976 535.284 54.5225 535.478 54.5225C535.616 54.5225 535.749 54.5142 535.876 54.4976C536.003 54.481 536.106 54.4644 536.183 54.4478L536.191 55.9751C536.025 56.0249 535.832 56.0692 535.61 56.1079C535.395 56.1466 535.146 56.166 534.863 56.166C534.404 56.166 533.997 56.0858 533.643 55.9253C533.289 55.7593 533.012 55.4909 532.813 55.1201C532.614 54.7493 532.514 54.2568 532.514 53.6426V44.8188Z" fill="black" fill-opacity="0.87"/>
<rect x="940.5" y="30.5" width="230" height="39" rx="19.5" fill="white"/>
<g clip-path="url(#clip0_568_6009)">
<path d="M964.667 42.4999H963.833V40.8333H962.167V42.4999H953.833V40.8333H952.167V42.4999H951.333C950.417 42.4999 949.667 43.2499 949.667 44.1666V57.4999C949.667 58.4166 950.417 59.1666 951.333 59.1666H964.667C965.583 59.1666 966.333 58.4166 966.333 57.4999V44.1666C966.333 43.2499 965.583 42.4999 964.667 42.4999ZM964.667 57.4999H951.333V48.3333H964.667V57.4999ZM964.667 46.6666H951.333V44.1666H964.667V46.6666Z" fill="#394FFD"/>
</g>
<path d="M982.833 45.0469V55H981.534V45.0469H982.833ZM986.032 45.0469V46.127H978.342V45.0469H986.032ZM986.299 51.3838V51.2266C986.299 50.6934 986.376 50.1989 986.531 49.7432C986.686 49.2829 986.91 48.8841 987.201 48.5469C987.493 48.2051 987.846 47.9408 988.261 47.7539C988.675 47.5625 989.14 47.4668 989.655 47.4668C990.175 47.4668 990.642 47.5625 991.057 47.7539C991.476 47.9408 991.831 48.2051 992.123 48.5469C992.419 48.8841 992.645 49.2829 992.8 49.7432C992.955 50.1989 993.032 50.6934 993.032 51.2266V51.3838C993.032 51.917 992.955 52.4115 992.8 52.8672C992.645 53.3229 992.419 53.7217 992.123 54.0635C991.831 54.4007 991.478 54.665 991.063 54.8564C990.653 55.0433 990.188 55.1367 989.669 55.1367C989.149 55.1367 988.682 55.0433 988.268 54.8564C987.853 54.665 987.497 54.4007 987.201 54.0635C986.91 53.7217 986.686 53.3229 986.531 52.8672C986.376 52.4115 986.299 51.917 986.299 51.3838ZM987.563 51.2266V51.3838C987.563 51.7529 987.607 52.1016 987.693 52.4297C987.78 52.7533 987.91 53.0404 988.083 53.291C988.261 53.5417 988.482 53.7399 988.746 53.8857C989.01 54.027 989.318 54.0977 989.669 54.0977C990.015 54.0977 990.318 54.027 990.578 53.8857C990.842 53.7399 991.061 53.5417 991.234 53.291C991.408 53.0404 991.537 52.7533 991.624 52.4297C991.715 52.1016 991.761 51.7529 991.761 51.3838V51.2266C991.761 50.862 991.715 50.5179 991.624 50.1943C991.537 49.8662 991.405 49.5768 991.228 49.3262C991.054 49.071 990.836 48.8704 990.571 48.7246C990.312 48.5788 990.006 48.5059 989.655 48.5059C989.309 48.5059 989.004 48.5788 988.739 48.7246C988.479 48.8704 988.261 49.071 988.083 49.3262C987.91 49.5768 987.78 49.8662 987.693 50.1943C987.607 50.5179 987.563 50.862 987.563 51.2266ZM999.144 53.291V47.6035H1000.42V55H999.205L999.144 53.291ZM999.383 51.7324L999.909 51.7188C999.909 52.2109 999.857 52.6667 999.752 53.0859C999.652 53.5007 999.488 53.8607 999.26 54.166C999.032 54.4714 998.733 54.7106 998.364 54.8838C997.995 55.0524 997.546 55.1367 997.018 55.1367C996.658 55.1367 996.327 55.0843 996.026 54.9795C995.73 54.8747 995.475 54.7129 995.261 54.4941C995.047 54.2754 994.88 53.9906 994.762 53.6396C994.648 53.2887 994.591 52.8672 994.591 52.375V47.6035H995.855V52.3887C995.855 52.7214 995.892 52.9971 995.965 53.2158C996.042 53.43 996.145 53.6009 996.272 53.7285C996.405 53.8516 996.55 53.9382 996.71 53.9883C996.874 54.0384 997.043 54.0635 997.216 54.0635C997.754 54.0635 998.18 53.9609 998.494 53.7559C998.809 53.5462 999.034 53.266 999.171 52.915C999.312 52.5596 999.383 52.1654 999.383 51.7324ZM1006.65 53.0381C1006.65 52.8558 1006.61 52.6872 1006.53 52.5322C1006.45 52.3727 1006.29 52.2292 1006.04 52.1016C1005.8 51.9694 1005.43 51.8555 1004.95 51.7598C1004.54 51.6732 1004.17 51.5706 1003.83 51.4521C1003.5 51.3337 1003.22 51.1901 1002.99 51.0215C1002.76 50.8529 1002.59 50.6546 1002.47 50.4268C1002.34 50.1989 1002.28 49.9323 1002.28 49.627C1002.28 49.3353 1002.35 49.0596 1002.47 48.7998C1002.6 48.54 1002.79 48.3099 1003.03 48.1094C1003.27 47.9089 1003.56 47.7516 1003.89 47.6377C1004.23 47.5238 1004.61 47.4668 1005.02 47.4668C1005.61 47.4668 1006.12 47.5716 1006.54 47.7812C1006.96 47.9909 1007.28 48.2712 1007.5 48.6221C1007.73 48.9684 1007.84 49.3535 1007.84 49.7773H1006.57C1006.57 49.5723 1006.51 49.374 1006.39 49.1826C1006.27 48.9867 1006.1 48.8249 1005.86 48.6973C1005.64 48.5697 1005.36 48.5059 1005.02 48.5059C1004.67 48.5059 1004.39 48.5605 1004.17 48.6699C1003.95 48.7747 1003.8 48.9092 1003.7 49.0732C1003.6 49.2373 1003.55 49.4105 1003.55 49.5928C1003.55 49.7295 1003.58 49.8525 1003.62 49.9619C1003.67 50.0667 1003.76 50.1647 1003.88 50.2559C1004 50.3424 1004.18 50.4245 1004.4 50.502C1004.62 50.5794 1004.91 50.6569 1005.25 50.7344C1005.86 50.8711 1006.36 51.0352 1006.75 51.2266C1007.14 51.418 1007.44 51.6527 1007.63 51.9307C1007.82 52.2087 1007.91 52.5459 1007.91 52.9424C1007.91 53.266 1007.85 53.5622 1007.71 53.8311C1007.58 54.0999 1007.38 54.3324 1007.13 54.5283C1006.88 54.7197 1006.58 54.8701 1006.23 54.9795C1005.88 55.0843 1005.49 55.1367 1005.06 55.1367C1004.4 55.1367 1003.85 55.0205 1003.4 54.7881C1002.95 54.5557 1002.61 54.2549 1002.38 53.8857C1002.14 53.5166 1002.03 53.127 1002.03 52.7168H1003.3C1003.32 53.0632 1003.42 53.3389 1003.6 53.5439C1003.78 53.7445 1004.01 53.888 1004.27 53.9746C1004.53 54.0566 1004.8 54.0977 1005.06 54.0977C1005.4 54.0977 1005.69 54.0521 1005.92 53.9609C1006.16 53.8698 1006.34 53.7445 1006.46 53.585C1006.59 53.4255 1006.65 53.2432 1006.65 53.0381Z" fill="black"/>
<path d="M1146 48L1151 53L1156 48H1146Z" fill="black" fill-opacity="0.87"/>
<rect x="940.5" y="30.5" width="230" height="39" rx="19.5" stroke="#DFEEF9"/>
<line x1="1196.5" y1="38" x2="1196.5" y2="62" stroke="black" stroke-opacity="0.12"/>
<path d="M1232 56H1234V54H1232V56ZM1233 40C1227.48 40 1223 44.48 1223 50C1223 55.52 1227.48 60 1233 60C1238.52 60 1243 55.52 1243 50C1243 44.48 1238.52 40 1233 40ZM1233 58C1228.59 58 1225 54.41 1225 50C1225 45.59 1228.59 42 1233 42C1237.41 42 1241 45.59 1241 50C1241 54.41 1237.41 58 1233 58ZM1233 44C1230.79 44 1229 45.79 1229 48H1231C1231 46.9 1231.9 46 1233 46C1234.1 46 1235 46.9 1235 48C1235 50 1232 49.75 1232 53H1234C1234 50.75 1237 50.5 1237 48C1237 45.79 1235.21 44 1233 44Z" fill="#394FFD"/>
<path d="M1280.01 59.01C1280.01 60.11 1280.9 61 1282 61C1283.1 61 1283.99 60.11 1283.99 59.01H1280.01ZM1282 44C1284.76 44 1287 46.24 1287 49V56H1277V49C1277 46.24 1279.24 44 1282 44ZM1282 42C1281.17 42 1281 42 1281 42L1280.5 42.17C1277.36 42.85 1275 45.65 1275 49V55L1273 57V58H1291V57L1289 55V49C1289 45.65 1286.64 42.85 1283.5 42.17C1283.5 42.17 1283.2 42 1283 42C1282.61 42 1282.8 42 1282 42Z" fill="#394FFD"/>
<rect x="1286" y="30" width="20" height="20" rx="10" fill="#F50057"/>
<path d="M1297.5 35.416H1297.68V36.5703H1297.58C1297.07 36.5703 1296.64 36.6484 1296.27 36.8047C1295.91 36.9609 1295.61 37.1758 1295.37 37.4492C1295.14 37.7227 1294.96 38.043 1294.85 38.4102C1294.73 38.7734 1294.68 39.1602 1294.68 39.5703V40.9121C1294.68 41.252 1294.71 41.5527 1294.79 41.8145C1294.86 42.0723 1294.96 42.2891 1295.1 42.4648C1295.23 42.6367 1295.39 42.7676 1295.57 42.8574C1295.74 42.9473 1295.93 42.9922 1296.13 42.9922C1296.35 42.9922 1296.54 42.9492 1296.71 42.8633C1296.88 42.7734 1297.03 42.6504 1297.15 42.4941C1297.27 42.3379 1297.36 42.1523 1297.42 41.9375C1297.49 41.7227 1297.52 41.4883 1297.52 41.2344C1297.52 40.9922 1297.49 40.7656 1297.42 40.5547C1297.37 40.3398 1297.28 40.1523 1297.16 39.9922C1297.04 39.8281 1296.9 39.7012 1296.72 39.6113C1296.55 39.5176 1296.35 39.4707 1296.12 39.4707C1295.84 39.4707 1295.59 39.5371 1295.36 39.6699C1295.13 39.8027 1294.95 39.9766 1294.8 40.1914C1294.67 40.4023 1294.59 40.627 1294.58 40.8652L1294.04 40.6895C1294.07 40.3262 1294.15 40 1294.28 39.7109C1294.42 39.4219 1294.59 39.1758 1294.8 38.9727C1295.02 38.7695 1295.27 38.6152 1295.55 38.5098C1295.83 38.4004 1296.15 38.3457 1296.49 38.3457C1296.9 38.3457 1297.26 38.4238 1297.56 38.5801C1297.87 38.7363 1298.12 38.9492 1298.32 39.2188C1298.52 39.4844 1298.67 39.7891 1298.77 40.1328C1298.87 40.4727 1298.92 40.8281 1298.92 41.1992C1298.92 41.6094 1298.86 41.9922 1298.74 42.3477C1298.61 42.6992 1298.43 43.0078 1298.19 43.2734C1297.95 43.5391 1297.66 43.7461 1297.31 43.8945C1296.97 44.043 1296.59 44.1172 1296.15 44.1172C1295.7 44.1172 1295.29 44.0293 1294.93 43.8535C1294.57 43.6777 1294.27 43.4355 1294.02 43.127C1293.77 42.8184 1293.59 42.4629 1293.46 42.0605C1293.33 41.6582 1293.26 41.2324 1293.26 40.7832V40.1973C1293.26 39.5488 1293.35 38.9375 1293.51 38.3633C1293.67 37.7852 1293.93 37.2754 1294.27 36.834C1294.61 36.3926 1295.05 36.0469 1295.58 35.7969C1296.12 35.543 1296.76 35.416 1297.5 35.416Z" fill="white"/>
<g clip-path="url(#clip1_568_6009)">
<path d="M1354.43 50.98C1354.47 50.66 1354.5 50.34 1354.5 50C1354.5 49.66 1354.47 49.34 1354.43 49.02L1356.54 47.37C1356.73 47.22 1356.78 46.95 1356.66 46.73L1354.66 43.27C1354.57 43.11 1354.4 43.02 1354.22 43.02C1354.16 43.02 1354.1 43.03 1354.05 43.05L1351.56 44.05C1351.04 43.65 1350.48 43.32 1349.87 43.07L1349.49 40.42C1349.46 40.18 1349.25 40 1349 40H1345C1344.75 40 1344.54 40.18 1344.51 40.42L1344.13 43.07C1343.52 43.32 1342.96 43.66 1342.44 44.05L1339.95 43.05C1339.89 43.03 1339.83 43.02 1339.77 43.02C1339.6 43.02 1339.43 43.11 1339.34 43.27L1337.34 46.73C1337.21 46.95 1337.27 47.22 1337.46 47.37L1339.57 49.02C1339.53 49.34 1339.5 49.67 1339.5 50C1339.5 50.33 1339.53 50.66 1339.57 50.98L1337.46 52.63C1337.27 52.78 1337.22 53.05 1337.34 53.27L1339.34 56.73C1339.43 56.89 1339.6 56.98 1339.78 56.98C1339.84 56.98 1339.9 56.97 1339.95 56.95L1342.44 55.95C1342.96 56.35 1343.52 56.68 1344.13 56.93L1344.51 59.58C1344.54 59.82 1344.75 60 1345 60H1349C1349.25 60 1349.46 59.82 1349.49 59.58L1349.87 56.93C1350.48 56.68 1351.04 56.34 1351.56 55.95L1354.05 56.95C1354.11 56.97 1354.17 56.98 1354.23 56.98C1354.4 56.98 1354.57 56.89 1354.66 56.73L1356.66 53.27C1356.78 53.05 1356.73 52.78 1356.54 52.63L1354.43 50.98V50.98ZM1352.45 49.27C1352.49 49.58 1352.5 49.79 1352.5 50C1352.5 50.21 1352.48 50.43 1352.45 50.73L1352.31 51.86L1353.2 52.56L1354.28 53.4L1353.58 54.61L1352.31 54.1L1351.27 53.68L1350.37 54.36C1349.94 54.68 1349.53 54.92 1349.12 55.09L1348.06 55.52L1347.9 56.65L1347.7 58H1346.3L1346.11 56.65L1345.95 55.52L1344.89 55.09C1344.46 54.91 1344.06 54.68 1343.66 54.38L1342.75 53.68L1341.69 54.11L1340.42 54.62L1339.72 53.41L1340.8 52.57L1341.69 51.87L1341.55 50.74C1341.52 50.43 1341.5 50.2 1341.5 50C1341.5 49.8 1341.52 49.57 1341.55 49.27L1341.69 48.14L1340.8 47.44L1339.72 46.6L1340.42 45.39L1341.69 45.9L1342.73 46.32L1343.63 45.64C1344.06 45.32 1344.47 45.08 1344.88 44.91L1345.94 44.48L1346.1 43.35L1346.3 42H1347.69L1347.88 43.35L1348.04 44.48L1349.1 44.91C1349.53 45.09 1349.93 45.32 1350.33 45.62L1351.24 46.32L1352.3 45.89L1353.57 45.38L1354.27 46.59L1353.2 47.44L1352.31 48.14L1352.45 49.27ZM1347 46C1344.79 46 1343 47.79 1343 50C1343 52.21 1344.79 54 1347 54C1349.21 54 1351 52.21 1351 50C1351 47.79 1349.21 46 1347 46ZM1347 52C1345.9 52 1345 51.1 1345 50C1345 48.9 1345.9 48 1347 48C1348.1 48 1349 48.9 1349 50C1349 51.1 1348.1 52 1347 52Z" fill="#394FFD"/>
</g>
<g clip-path="url(#clip2_568_6009)">
<rect x="1388" y="34" width="32" height="32" rx="16" fill="#394FFD"/>
<path d="M1401.18 53.7769L1403.89 55.9229L1402.94 56.8018L1400.27 54.6851L1401.18 53.7769ZM1403.85 49.3311V50.0049C1403.85 50.8057 1403.75 51.5234 1403.55 52.1582C1403.35 52.793 1403.06 53.3325 1402.69 53.7769C1402.31 54.2212 1401.86 54.5605 1401.33 54.7949C1400.81 55.0293 1400.22 55.1465 1399.57 55.1465C1398.95 55.1465 1398.37 55.0293 1397.84 54.7949C1397.32 54.5605 1396.86 54.2212 1396.48 53.7769C1396.1 53.3325 1395.8 52.793 1395.59 52.1582C1395.38 51.5234 1395.28 50.8057 1395.28 50.0049V49.3311C1395.28 48.5303 1395.38 47.8149 1395.58 47.1851C1395.79 46.5503 1396.09 46.0107 1396.47 45.5664C1396.85 45.1172 1397.3 44.7754 1397.82 44.541C1398.35 44.3066 1398.93 44.1895 1399.56 44.1895C1400.21 44.1895 1400.8 44.3066 1401.33 44.541C1401.85 44.7754 1402.3 45.1172 1402.68 45.5664C1403.06 46.0107 1403.34 46.5503 1403.54 47.1851C1403.75 47.8149 1403.85 48.5303 1403.85 49.3311ZM1402.45 50.0049V49.3164C1402.45 48.6816 1402.39 48.1201 1402.26 47.6318C1402.13 47.1436 1401.94 46.7334 1401.69 46.4014C1401.44 46.0693 1401.14 45.8179 1400.78 45.647C1400.43 45.4761 1400.02 45.3906 1399.56 45.3906C1399.13 45.3906 1398.73 45.4761 1398.37 45.647C1398.02 45.8179 1397.72 46.0693 1397.47 46.4014C1397.21 46.7334 1397.02 47.1436 1396.88 47.6318C1396.74 48.1201 1396.67 48.6816 1396.67 49.3164V50.0049C1396.67 50.6445 1396.74 51.2109 1396.88 51.7041C1397.02 52.1924 1397.21 52.605 1397.47 52.9419C1397.72 53.2739 1398.03 53.5254 1398.39 53.6963C1398.74 53.8672 1399.14 53.9526 1399.57 53.9526C1400.03 53.9526 1400.44 53.8672 1400.8 53.6963C1401.15 53.5254 1401.45 53.2739 1401.7 52.9419C1401.95 52.605 1402.14 52.1924 1402.26 51.7041C1402.39 51.2109 1402.45 50.6445 1402.45 50.0049ZM1409.76 44.3359V55H1408.37V44.3359H1409.76ZM1413.19 44.3359V45.4932H1404.95V44.3359H1413.19Z" fill="white"/>
</g>
<rect x="20.5" y="20.5" width="1439" height="59" stroke="black" stroke-opacity="0.12"/>
<rect x="20" y="100" width="1440" height="60" fill="white"/>
<path d="M80.0652 135.382L82.4439 134.734V122.316C82.4439 121.754 82.4005 121.386 82.3136 121.213C82.2267 121.019 81.9986 120.846 81.6293 120.695L80 119.754L80.0978 116.836H97.7918C97.9439 119.106 98.0199 121.321 98.0199 123.483L95.6086 123.645L93.295 120.792L88.3745 120.662V126.433L95.3153 125.817V130.811L88.3745 130.065V133.437C88.3745 133.956 88.4071 134.291 88.4723 134.442C88.5592 134.593 88.7656 134.745 89.0914 134.896L91.0466 136.063L90.9488 138.689H80.2281L80.0652 135.382Z" fill="#212734"/>
<path d="M99.3478 135.706L101.629 135.026V119.495C101.629 119.019 101.585 118.717 101.498 118.587C101.433 118.436 101.249 118.274 100.944 118.101L99.5107 117.355L99.6736 114.891C100.108 114.804 100.445 114.75 100.684 114.729C103.551 114.21 105.55 113.929 106.68 113.886C106.897 114.383 107.038 114.945 107.103 115.572V133.956C107.103 134.41 107.136 134.712 107.201 134.863C107.266 135.015 107.451 135.177 107.755 135.35L109.352 136.258L109.221 138.689H99.4455L99.3478 135.706Z" fill="#212734"/>
<path d="M116.14 146.114C114.576 145.077 113.186 143.737 111.969 142.094L115.586 138.56L110.861 126.174C110.622 125.59 110.459 125.212 110.372 125.039C110.286 124.866 110.123 124.629 109.884 124.326L109.33 123.613L109.493 121.732H117.835L118.16 124.488L116.27 124.942L118.942 133.08L121.94 125.623C121.984 125.493 122.006 125.396 122.006 125.331C122.006 125.137 121.919 125.007 121.745 124.942L120.213 124.294L120.507 121.732H126.698L126.991 124.358L122.82 133.404C121.321 136.668 120.083 139.23 119.105 141.089C118.128 142.948 117.139 144.623 116.14 146.114Z" fill="#212734"/>
<path d="M128.657 135.577L130.677 134.993V127.147C130.677 126.671 130.644 126.369 130.579 126.239C130.514 126.088 130.34 125.926 130.058 125.753L128.624 124.974L128.722 122.543L129.439 122.413C132.284 121.851 134.337 121.548 135.597 121.505C135.771 121.959 135.912 122.456 136.021 122.997C137.346 122.391 138.421 121.981 139.247 121.765C140.094 121.527 140.887 121.408 141.626 121.408C145.08 121.408 146.807 123.461 146.807 127.568V133.923C146.807 134.377 146.839 134.68 146.905 134.831C146.97 134.982 147.154 135.144 147.459 135.317L149.023 136.225L148.892 138.657H139.899L139.736 135.577L141.332 135.123V128.995C141.332 128.022 141.3 127.341 141.235 126.952C141.17 126.563 140.985 126.261 140.681 126.044C140.398 125.828 139.888 125.72 139.149 125.72C138.367 125.72 137.379 125.839 136.184 126.077V133.923C136.184 134.377 136.216 134.68 136.282 134.831C136.347 134.982 136.521 135.144 136.803 135.317L138.4 136.225L138.269 138.657H128.82L128.657 135.577Z" fill="#212734"/>
<path d="M156.778 139.111C154.866 139.111 153.454 138.646 152.542 137.717C151.629 136.766 151.173 135.328 151.173 133.404V125.526H148.892V123.159L154.758 117.841L156.647 118.068V121.732H162.122V125.558H156.647V132.237C156.647 133.275 156.789 133.966 157.071 134.312C157.375 134.658 157.951 134.831 158.798 134.831C159.515 134.831 160.514 134.734 161.796 134.539L162.187 137.846C161.405 138.214 160.525 138.516 159.548 138.754C158.592 138.992 157.669 139.111 156.778 139.111Z" fill="#212734"/>
<rect width="7.53866" height="6.68612" transform="matrix(0.966576 -0.256379 0.261279 0.965263 164.966 132.358)" fill="#394DFF"/>
<path d="M214.721 132.887C214.721 132.638 214.682 132.417 214.605 132.223C214.533 132.029 214.403 131.852 214.215 131.692C214.027 131.531 213.761 131.376 213.418 131.227C213.08 131.072 212.649 130.914 212.123 130.754C211.548 130.577 211.016 130.38 210.529 130.165C210.048 129.943 209.627 129.689 209.268 129.401C208.908 129.108 208.628 128.773 208.429 128.396C208.23 128.015 208.13 127.575 208.13 127.077C208.13 126.584 208.233 126.136 208.438 125.732C208.648 125.328 208.944 124.979 209.326 124.686C209.713 124.387 210.17 124.158 210.695 123.997C211.221 123.831 211.802 123.748 212.438 123.748C213.335 123.748 214.107 123.914 214.754 124.246C215.407 124.578 215.908 125.024 216.257 125.583C216.611 126.141 216.788 126.758 216.788 127.434H214.721C214.721 127.035 214.635 126.684 214.464 126.379C214.298 126.069 214.043 125.826 213.7 125.649C213.363 125.472 212.934 125.383 212.414 125.383C211.921 125.383 211.512 125.458 211.185 125.607C210.859 125.757 210.615 125.959 210.455 126.213C210.294 126.468 210.214 126.756 210.214 127.077C210.214 127.304 210.266 127.511 210.372 127.699C210.477 127.882 210.637 128.053 210.853 128.214C211.069 128.369 211.34 128.515 211.667 128.654C211.993 128.792 212.378 128.925 212.82 129.052C213.49 129.251 214.074 129.473 214.572 129.716C215.07 129.954 215.485 130.225 215.817 130.53C216.149 130.834 216.398 131.18 216.564 131.567C216.73 131.949 216.813 132.384 216.813 132.871C216.813 133.38 216.711 133.839 216.506 134.249C216.301 134.653 216.008 134.998 215.626 135.286C215.25 135.568 214.796 135.787 214.265 135.942C213.739 136.091 213.152 136.166 212.505 136.166C211.924 136.166 211.351 136.089 210.787 135.934C210.228 135.779 209.719 135.543 209.259 135.228C208.8 134.907 208.435 134.509 208.164 134.033C207.892 133.551 207.757 132.99 207.757 132.348H209.84C209.84 132.741 209.907 133.075 210.04 133.352C210.178 133.629 210.369 133.856 210.612 134.033C210.856 134.204 211.138 134.332 211.459 134.415C211.785 134.498 212.134 134.539 212.505 134.539C212.992 134.539 213.399 134.47 213.725 134.332C214.057 134.193 214.306 134 214.472 133.75C214.638 133.501 214.721 133.214 214.721 132.887ZM225.438 123.914H227.513V131.991C227.513 132.909 227.313 133.679 226.915 134.298C226.517 134.918 225.974 135.386 225.288 135.701C224.607 136.011 223.847 136.166 223.005 136.166C222.137 136.166 221.362 136.011 220.681 135.701C220 135.386 219.464 134.918 219.071 134.298C218.683 133.679 218.49 132.909 218.49 131.991V123.914H220.565V131.991C220.565 132.572 220.665 133.05 220.864 133.427C221.063 133.798 221.345 134.071 221.71 134.249C222.076 134.426 222.507 134.514 223.005 134.514C223.503 134.514 223.932 134.426 224.292 134.249C224.657 134.071 224.939 133.798 225.139 133.427C225.338 133.05 225.438 132.572 225.438 131.991V123.914ZM234.369 131.493H231.223V129.841H234.369C234.917 129.841 235.36 129.752 235.697 129.575C236.035 129.398 236.281 129.155 236.436 128.845C236.597 128.529 236.677 128.17 236.677 127.766C236.677 127.384 236.597 127.027 236.436 126.695C236.281 126.357 236.035 126.086 235.697 125.881C235.36 125.677 234.917 125.574 234.369 125.574H231.862V136H229.779V123.914H234.369C235.304 123.914 236.098 124.08 236.751 124.412C237.41 124.739 237.911 125.192 238.254 125.773C238.597 126.349 238.769 127.007 238.769 127.749C238.769 128.529 238.597 129.199 238.254 129.758C237.911 130.317 237.41 130.746 236.751 131.044C236.098 131.343 235.304 131.493 234.369 131.493ZM248.547 134.348V136H242.13V134.348H248.547ZM242.72 123.914V136H240.636V123.914H242.72ZM247.708 128.961V130.588H242.13V128.961H247.708ZM248.505 123.914V125.574H242.13V123.914H248.505ZM250.249 123.914H254.523C255.442 123.914 256.225 124.052 256.873 124.329C257.52 124.606 258.015 125.015 258.358 125.558C258.707 126.094 258.881 126.758 258.881 127.55C258.881 128.153 258.771 128.684 258.549 129.144C258.328 129.603 258.015 129.99 257.611 130.306C257.207 130.616 256.726 130.856 256.167 131.028L255.536 131.335H251.693L251.676 129.683H254.557C255.055 129.683 255.47 129.595 255.802 129.417C256.134 129.24 256.383 129 256.549 128.695C256.72 128.385 256.806 128.037 256.806 127.649C256.806 127.229 256.723 126.864 256.557 126.554C256.397 126.238 256.148 125.998 255.81 125.832C255.472 125.66 255.044 125.574 254.523 125.574H252.332V136H250.249V123.914ZM257.146 136L254.308 130.571L256.491 130.563L259.371 135.892V136H257.146ZM265.663 125.524L262.052 136H259.869L264.418 123.914H265.812L265.663 125.524ZM268.685 136L265.065 125.524L264.908 123.914H266.311L270.876 136H268.685ZM268.51 131.518V133.169H261.936V131.518H268.51ZM275.74 136H273.159L273.175 134.348H275.74C276.487 134.348 277.113 134.185 277.616 133.858C278.125 133.532 278.507 133.064 278.762 132.456C279.022 131.847 279.152 131.122 279.152 130.281V129.625C279.152 128.972 279.077 128.394 278.928 127.89C278.784 127.387 278.568 126.963 278.28 126.62C277.998 126.277 277.649 126.017 277.234 125.84C276.825 125.663 276.352 125.574 275.815 125.574H273.109V123.914H275.815C276.617 123.914 277.351 124.05 278.015 124.321C278.679 124.586 279.251 124.971 279.733 125.475C280.22 125.978 280.593 126.581 280.854 127.284C281.114 127.987 281.244 128.773 281.244 129.642V130.281C281.244 131.15 281.114 131.935 280.854 132.638C280.593 133.341 280.22 133.944 279.733 134.448C279.246 134.946 278.665 135.33 277.99 135.602C277.32 135.867 276.57 136 275.74 136ZM274.312 123.914V136H272.229V123.914H274.312ZM284.182 123.914H286.042L289.536 133.236L293.022 123.914H294.882L290.267 136H288.789L284.182 123.914ZM283.335 123.914H285.104L285.411 131.982V136H283.335V123.914ZM293.96 123.914H295.737V136H293.653V131.982L293.96 123.914ZM300.435 123.914V136H298.352V123.914H300.435ZM312.612 123.914V136H310.529L305.108 127.342V136H303.025V123.914H305.108L310.545 132.588V123.914H312.612Z" fill="#394FFD"/>
<path d="M332.446 123.914H334.306L337.8 133.236L341.287 123.914H343.146L338.531 136H337.053L332.446 123.914ZM331.6 123.914H333.368L333.675 131.982V136H331.6V123.914ZM342.225 123.914H344.001V136H341.917V131.982L342.225 123.914ZM356.112 129.625V130.289C356.112 131.202 355.993 132.021 355.755 132.746C355.517 133.471 355.177 134.088 354.734 134.597C354.297 135.106 353.771 135.496 353.157 135.768C352.542 136.033 351.862 136.166 351.115 136.166C350.373 136.166 349.695 136.033 349.081 135.768C348.472 135.496 347.944 135.106 347.496 134.597C347.047 134.088 346.699 133.471 346.45 132.746C346.206 132.021 346.084 131.202 346.084 130.289V129.625C346.084 128.712 346.206 127.896 346.45 127.176C346.693 126.451 347.036 125.834 347.479 125.325C347.927 124.811 348.456 124.42 349.064 124.155C349.679 123.884 350.357 123.748 351.098 123.748C351.845 123.748 352.526 123.884 353.14 124.155C353.754 124.42 354.283 124.811 354.726 125.325C355.168 125.834 355.509 126.451 355.747 127.176C355.99 127.896 356.112 128.712 356.112 129.625ZM354.028 130.289V129.608C354.028 128.933 353.962 128.338 353.829 127.824C353.702 127.304 353.511 126.869 353.256 126.521C353.007 126.166 352.7 125.901 352.335 125.724C351.97 125.541 351.557 125.45 351.098 125.45C350.639 125.45 350.229 125.541 349.87 125.724C349.51 125.901 349.203 126.166 348.948 126.521C348.699 126.869 348.508 127.304 348.375 127.824C348.243 128.338 348.176 128.933 348.176 129.608V130.289C348.176 130.964 348.243 131.562 348.375 132.082C348.508 132.602 348.702 133.042 348.957 133.402C349.217 133.756 349.527 134.024 349.886 134.207C350.246 134.384 350.655 134.473 351.115 134.473C351.58 134.473 351.992 134.384 352.352 134.207C352.711 134.024 353.016 133.756 353.265 133.402C353.514 133.042 353.702 132.602 353.829 132.082C353.962 131.562 354.028 130.964 354.028 130.289ZM367.783 123.914V136H365.699L360.279 127.342V136H358.195V123.914H360.279L365.716 132.588V123.914H367.783ZM372.489 123.914V136H370.406V123.914H372.489ZM379.802 123.914V136H377.735V123.914H379.802ZM383.596 123.914V125.574H373.975V123.914H383.596ZM394.594 129.625V130.289C394.594 131.202 394.475 132.021 394.237 132.746C393.999 133.471 393.659 134.088 393.216 134.597C392.779 135.106 392.253 135.496 391.639 135.768C391.025 136.033 390.344 136.166 389.597 136.166C388.856 136.166 388.178 136.033 387.563 135.768C386.955 135.496 386.426 135.106 385.978 134.597C385.53 134.088 385.181 133.471 384.932 132.746C384.689 132.021 384.567 131.202 384.567 130.289V129.625C384.567 128.712 384.689 127.896 384.932 127.176C385.176 126.451 385.519 125.834 385.961 125.325C386.41 124.811 386.938 124.42 387.547 124.155C388.161 123.884 388.839 123.748 389.581 123.748C390.328 123.748 391.008 123.884 391.623 124.155C392.237 124.42 392.765 124.811 393.208 125.325C393.651 125.834 393.991 126.451 394.229 127.176C394.472 127.896 394.594 128.712 394.594 129.625ZM392.511 130.289V129.608C392.511 128.933 392.444 128.338 392.312 127.824C392.184 127.304 391.993 126.869 391.739 126.521C391.49 126.166 391.183 125.901 390.817 125.724C390.452 125.541 390.04 125.45 389.581 125.45C389.121 125.45 388.712 125.541 388.352 125.724C387.992 125.901 387.685 126.166 387.431 126.521C387.182 126.869 386.991 127.304 386.858 127.824C386.725 128.338 386.659 128.933 386.659 129.608V130.289C386.659 130.964 386.725 131.562 386.858 132.082C386.991 132.602 387.184 133.042 387.439 133.402C387.699 133.756 388.009 134.024 388.369 134.207C388.728 134.384 389.138 134.473 389.597 134.473C390.062 134.473 390.474 134.384 390.834 134.207C391.194 134.024 391.498 133.756 391.747 133.402C391.996 133.042 392.184 132.602 392.312 132.082C392.444 131.562 392.511 130.964 392.511 130.289ZM396.678 123.914H400.953C401.871 123.914 402.654 124.052 403.302 124.329C403.949 124.606 404.444 125.015 404.788 125.558C405.136 126.094 405.311 126.758 405.311 127.55C405.311 128.153 405.2 128.684 404.979 129.144C404.757 129.603 404.444 129.99 404.041 130.306C403.637 130.616 403.155 130.856 402.596 131.028L401.965 131.335H398.122L398.105 129.683H400.986C401.484 129.683 401.899 129.595 402.231 129.417C402.563 129.24 402.812 129 402.978 128.695C403.15 128.385 403.235 128.037 403.235 127.649C403.235 127.229 403.152 126.864 402.986 126.554C402.826 126.238 402.577 125.998 402.239 125.832C401.902 125.66 401.473 125.574 400.953 125.574H398.761V136H396.678V123.914ZM403.576 136L400.737 130.571L402.92 130.563L405.8 135.892V136H403.576ZM409.61 123.914V136H407.527V123.914H409.61ZM421.788 123.914V136H419.704L414.284 127.342V136H412.2V123.914H414.284L419.721 132.588V123.914H421.788ZM433.55 129.824V134.439C433.378 134.666 433.11 134.915 432.745 135.187C432.385 135.452 431.906 135.682 431.309 135.875C430.711 136.069 429.967 136.166 429.076 136.166C428.318 136.166 427.623 136.039 426.992 135.784C426.361 135.524 425.816 135.145 425.357 134.647C424.903 134.149 424.552 133.543 424.303 132.829C424.054 132.11 423.929 131.291 423.929 130.372V129.534C423.929 128.621 424.043 127.807 424.27 127.093C424.502 126.374 424.834 125.765 425.266 125.267C425.697 124.769 426.217 124.393 426.826 124.138C427.44 123.878 428.135 123.748 428.91 123.748C429.9 123.748 430.719 123.914 431.367 124.246C432.02 124.573 432.523 125.026 432.877 125.607C433.232 126.188 433.456 126.853 433.55 127.6H431.508C431.441 127.179 431.311 126.803 431.118 126.471C430.93 126.139 430.658 125.879 430.304 125.69C429.956 125.497 429.502 125.4 428.943 125.4C428.461 125.4 428.038 125.491 427.673 125.674C427.308 125.856 427.003 126.125 426.76 126.479C426.522 126.833 426.342 127.265 426.22 127.774C426.098 128.283 426.038 128.864 426.038 129.517V130.372C426.038 131.036 426.107 131.625 426.245 132.14C426.389 132.655 426.594 133.089 426.859 133.443C427.131 133.798 427.46 134.066 427.847 134.249C428.235 134.426 428.672 134.514 429.159 134.514C429.635 134.514 430.025 134.475 430.329 134.398C430.633 134.315 430.874 134.218 431.051 134.107C431.234 133.991 431.375 133.881 431.475 133.775V131.376H428.959V129.824H433.55Z" fill="black" fill-opacity="0.87"/>
<path d="M457.435 125.524L453.824 136H451.641L456.189 123.914H457.584L457.435 125.524ZM460.456 136L456.837 125.524L456.679 123.914H458.082L462.647 136H460.456ZM460.282 131.518V133.169H453.708V131.518H460.282ZM473.588 123.914V136H471.504L466.084 127.342V136H464V123.914H466.084L471.521 132.588V123.914H473.588ZM480.926 125.524L477.315 136H475.132L479.681 123.914H481.075L480.926 125.524ZM483.947 136L480.328 125.524L480.17 123.914H481.573L486.139 136H483.947ZM483.773 131.518V133.169H477.199V131.518H483.773ZM495.062 134.348V136H488.994V134.348H495.062ZM489.575 123.914V136H487.492V123.914H489.575ZM495.718 123.914L498.523 129.683L501.329 123.914H503.637L499.569 131.551V136H497.469V131.551L493.402 123.914H495.718ZM511.182 132.887C511.182 132.638 511.143 132.417 511.066 132.223C510.994 132.029 510.864 131.852 510.676 131.692C510.488 131.531 510.222 131.376 509.879 131.227C509.541 131.072 509.11 130.914 508.584 130.754C508.008 130.577 507.477 130.38 506.99 130.165C506.509 129.943 506.088 129.689 505.729 129.401C505.369 129.108 505.089 128.773 504.89 128.396C504.691 128.015 504.591 127.575 504.591 127.077C504.591 126.584 504.694 126.136 504.898 125.732C505.109 125.328 505.405 124.979 505.787 124.686C506.174 124.387 506.631 124.158 507.156 123.997C507.682 123.831 508.263 123.748 508.899 123.748C509.796 123.748 510.568 123.914 511.215 124.246C511.868 124.578 512.369 125.024 512.718 125.583C513.072 126.141 513.249 126.758 513.249 127.434H511.182C511.182 127.035 511.096 126.684 510.925 126.379C510.759 126.069 510.504 125.826 510.161 125.649C509.824 125.472 509.395 125.383 508.875 125.383C508.382 125.383 507.972 125.458 507.646 125.607C507.319 125.757 507.076 125.959 506.916 126.213C506.755 126.468 506.675 126.756 506.675 127.077C506.675 127.304 506.727 127.511 506.833 127.699C506.938 127.882 507.098 128.053 507.314 128.214C507.53 128.369 507.801 128.515 508.127 128.654C508.454 128.792 508.839 128.925 509.281 129.052C509.951 129.251 510.535 129.473 511.033 129.716C511.531 129.954 511.946 130.225 512.278 130.53C512.61 130.834 512.859 131.18 513.025 131.567C513.191 131.949 513.274 132.384 513.274 132.871C513.274 133.38 513.172 133.839 512.967 134.249C512.762 134.653 512.469 134.998 512.087 135.286C511.711 135.568 511.257 135.787 510.726 135.942C510.2 136.091 509.613 136.166 508.966 136.166C508.385 136.166 507.812 136.089 507.248 135.934C506.689 135.779 506.18 135.543 505.72 135.228C505.261 134.907 504.896 134.509 504.625 134.033C504.353 133.551 504.218 132.99 504.218 132.348H506.301C506.301 132.741 506.368 133.075 506.5 133.352C506.639 133.629 506.83 133.856 507.073 134.033C507.317 134.204 507.599 134.332 507.92 134.415C508.246 134.498 508.595 134.539 508.966 134.539C509.453 134.539 509.86 134.47 510.186 134.332C510.518 134.193 510.767 134 510.933 133.75C511.099 133.501 511.182 133.214 511.182 132.887ZM523.027 134.348V136H516.611V134.348H523.027ZM517.2 123.914V136H515.117V123.914H517.2ZM522.189 128.961V130.588H516.611V128.961H522.189ZM522.986 123.914V125.574H516.611V123.914H522.986Z" fill="black" fill-opacity="0.87"/>
<g clip-path="url(#clip3_568_6009)">
<path d="M1144.32 121.125H1148.09C1148.94 121.125 1149.66 121.255 1150.25 121.516C1150.84 121.776 1151.29 122.161 1151.6 122.672C1151.91 123.177 1152.07 123.799 1152.07 124.539C1152.07 125.06 1151.96 125.536 1151.75 125.969C1151.54 126.396 1151.24 126.76 1150.84 127.062C1150.45 127.359 1149.98 127.581 1149.44 127.727L1149.02 127.891H1145.48L1145.46 126.664H1148.13C1148.67 126.664 1149.12 126.57 1149.48 126.383C1149.84 126.19 1150.11 125.932 1150.3 125.609C1150.48 125.286 1150.57 124.93 1150.57 124.539C1150.57 124.102 1150.48 123.719 1150.31 123.391C1150.14 123.062 1149.87 122.81 1149.5 122.633C1149.14 122.451 1148.66 122.359 1148.09 122.359H1145.83V132.5H1144.32V121.125ZM1150.97 132.5L1148.2 127.344L1149.77 127.336L1152.58 132.406V132.5H1150.97ZM1157.62 132.656C1157.03 132.656 1156.5 132.557 1156.02 132.359C1155.54 132.156 1155.13 131.872 1154.79 131.508C1154.45 131.143 1154.19 130.711 1154.01 130.211C1153.83 129.711 1153.74 129.164 1153.74 128.57V128.242C1153.74 127.555 1153.84 126.943 1154.04 126.406C1154.24 125.865 1154.52 125.406 1154.87 125.031C1155.22 124.656 1155.61 124.372 1156.06 124.18C1156.5 123.987 1156.96 123.891 1157.43 123.891C1158.04 123.891 1158.56 123.995 1158.99 124.203C1159.44 124.411 1159.8 124.703 1160.08 125.078C1160.36 125.448 1160.57 125.885 1160.7 126.391C1160.84 126.891 1160.91 127.438 1160.91 128.031V128.68H1154.6V127.5H1159.46V127.391C1159.44 127.016 1159.36 126.651 1159.23 126.297C1159.1 125.943 1158.89 125.651 1158.6 125.422C1158.32 125.193 1157.93 125.078 1157.43 125.078C1157.1 125.078 1156.8 125.148 1156.52 125.289C1156.25 125.424 1156.01 125.628 1155.81 125.898C1155.62 126.169 1155.46 126.5 1155.35 126.891C1155.24 127.281 1155.19 127.732 1155.19 128.242V128.57C1155.19 128.971 1155.24 129.349 1155.35 129.703C1155.47 130.052 1155.63 130.359 1155.85 130.625C1156.06 130.891 1156.33 131.099 1156.63 131.25C1156.95 131.401 1157.3 131.477 1157.7 131.477C1158.21 131.477 1158.64 131.372 1158.99 131.164C1159.35 130.956 1159.66 130.677 1159.92 130.328L1160.8 131.023C1160.62 131.299 1160.38 131.562 1160.1 131.812C1159.82 132.062 1159.48 132.266 1159.06 132.422C1158.66 132.578 1158.18 132.656 1157.62 132.656ZM1166.13 131.469C1166.47 131.469 1166.79 131.398 1167.08 131.258C1167.37 131.117 1167.61 130.924 1167.8 130.68C1167.99 130.43 1168.09 130.146 1168.12 129.828H1169.5C1169.47 130.328 1169.3 130.794 1168.99 131.227C1168.68 131.654 1168.28 132 1167.78 132.266C1167.28 132.526 1166.73 132.656 1166.13 132.656C1165.49 132.656 1164.94 132.544 1164.46 132.32C1164 132.096 1163.6 131.789 1163.29 131.398C1162.98 131.008 1162.75 130.56 1162.6 130.055C1162.45 129.544 1162.37 129.005 1162.37 128.438V128.109C1162.37 127.542 1162.45 127.005 1162.6 126.5C1162.75 125.99 1162.98 125.539 1163.29 125.148C1163.6 124.758 1164 124.451 1164.46 124.227C1164.94 124.003 1165.49 123.891 1166.13 123.891C1166.79 123.891 1167.37 124.026 1167.86 124.297C1168.36 124.562 1168.75 124.927 1169.03 125.391C1169.31 125.849 1169.47 126.37 1169.5 126.953H1168.12C1168.09 126.604 1168 126.289 1167.82 126.008C1167.66 125.727 1167.43 125.503 1167.14 125.336C1166.85 125.164 1166.51 125.078 1166.13 125.078C1165.69 125.078 1165.31 125.167 1165.01 125.344C1164.71 125.516 1164.48 125.75 1164.3 126.047C1164.13 126.339 1164 126.664 1163.92 127.023C1163.85 127.378 1163.82 127.74 1163.82 128.109V128.438C1163.82 128.807 1163.85 129.172 1163.92 129.531C1164 129.891 1164.12 130.216 1164.29 130.508C1164.47 130.799 1164.71 131.034 1165 131.211C1165.31 131.383 1165.68 131.469 1166.13 131.469ZM1172.72 120.5V132.5H1171.27V120.5H1172.72ZM1172.37 127.953L1171.77 127.93C1171.78 127.352 1171.86 126.818 1172.03 126.328C1172.19 125.833 1172.43 125.404 1172.73 125.039C1173.03 124.674 1173.39 124.393 1173.81 124.195C1174.23 123.992 1174.7 123.891 1175.21 123.891C1175.62 123.891 1176 123.948 1176.33 124.062C1176.67 124.172 1176.95 124.349 1177.18 124.594C1177.42 124.839 1177.61 125.156 1177.73 125.547C1177.86 125.932 1177.92 126.404 1177.92 126.961V132.5H1176.47V126.945C1176.47 126.503 1176.4 126.148 1176.27 125.883C1176.14 125.612 1175.95 125.417 1175.7 125.297C1175.45 125.172 1175.14 125.109 1174.78 125.109C1174.42 125.109 1174.09 125.185 1173.79 125.336C1173.5 125.487 1173.25 125.695 1173.04 125.961C1172.83 126.227 1172.66 126.531 1172.54 126.875C1172.43 127.214 1172.37 127.573 1172.37 127.953ZM1183.74 132.656C1183.15 132.656 1182.62 132.557 1182.14 132.359C1181.67 132.156 1181.26 131.872 1180.91 131.508C1180.57 131.143 1180.31 130.711 1180.13 130.211C1179.95 129.711 1179.86 129.164 1179.86 128.57V128.242C1179.86 127.555 1179.96 126.943 1180.16 126.406C1180.37 125.865 1180.64 125.406 1180.99 125.031C1181.34 124.656 1181.74 124.372 1182.18 124.18C1182.62 123.987 1183.08 123.891 1183.55 123.891C1184.16 123.891 1184.68 123.995 1185.12 124.203C1185.56 124.411 1185.92 124.703 1186.2 125.078C1186.48 125.448 1186.69 125.885 1186.83 126.391C1186.96 126.891 1187.03 127.438 1187.03 128.031V128.68H1180.72V127.5H1185.58V127.391C1185.56 127.016 1185.49 126.651 1185.35 126.297C1185.22 125.943 1185.01 125.651 1184.72 125.422C1184.44 125.193 1184.05 125.078 1183.55 125.078C1183.22 125.078 1182.92 125.148 1182.65 125.289C1182.37 125.424 1182.13 125.628 1181.94 125.898C1181.74 126.169 1181.58 126.5 1181.47 126.891C1181.37 127.281 1181.31 127.732 1181.31 128.242V128.57C1181.31 128.971 1181.37 129.349 1181.47 129.703C1181.59 130.052 1181.75 130.359 1181.97 130.625C1182.19 130.891 1182.45 131.099 1182.76 131.25C1183.07 131.401 1183.42 131.477 1183.82 131.477C1184.33 131.477 1184.76 131.372 1185.12 131.164C1185.47 130.956 1185.78 130.677 1186.05 130.328L1186.92 131.023C1186.74 131.299 1186.51 131.562 1186.22 131.812C1185.94 132.062 1185.6 132.266 1185.19 132.422C1184.78 132.578 1184.3 132.656 1183.74 132.656ZM1190.31 125.375V132.5H1188.87V124.047H1190.27L1190.31 125.375ZM1192.95 124L1192.95 125.344C1192.83 125.318 1192.71 125.302 1192.6 125.297C1192.5 125.286 1192.38 125.281 1192.24 125.281C1191.91 125.281 1191.61 125.333 1191.36 125.438C1191.1 125.542 1190.89 125.688 1190.71 125.875C1190.53 126.062 1190.39 126.286 1190.29 126.547C1190.19 126.802 1190.12 127.083 1190.09 127.391L1189.69 127.625C1189.69 127.115 1189.74 126.635 1189.84 126.188C1189.94 125.74 1190.1 125.344 1190.31 125C1190.53 124.651 1190.8 124.38 1191.12 124.188C1191.46 123.99 1191.85 123.891 1192.31 123.891C1192.42 123.891 1192.54 123.904 1192.67 123.93C1192.81 123.951 1192.9 123.974 1192.95 124ZM1197.67 131.469C1198.01 131.469 1198.33 131.398 1198.62 131.258C1198.91 131.117 1199.15 130.924 1199.34 130.68C1199.53 130.43 1199.63 130.146 1199.66 129.828H1201.03C1201.01 130.328 1200.84 130.794 1200.53 131.227C1200.22 131.654 1199.81 132 1199.31 132.266C1198.81 132.526 1198.26 132.656 1197.67 132.656C1197.03 132.656 1196.48 132.544 1196 132.32C1195.53 132.096 1195.14 131.789 1194.83 131.398C1194.52 131.008 1194.29 130.56 1194.13 130.055C1193.98 129.544 1193.91 129.005 1193.91 128.438V128.109C1193.91 127.542 1193.98 127.005 1194.13 126.5C1194.29 125.99 1194.52 125.539 1194.83 125.148C1195.14 124.758 1195.53 124.451 1196 124.227C1196.48 124.003 1197.03 123.891 1197.67 123.891C1198.33 123.891 1198.91 124.026 1199.4 124.297C1199.89 124.562 1200.28 124.927 1200.56 125.391C1200.85 125.849 1201.01 126.37 1201.03 126.953H1199.66C1199.63 126.604 1199.53 126.289 1199.36 126.008C1199.19 125.727 1198.97 125.503 1198.67 125.336C1198.39 125.164 1198.05 125.078 1197.67 125.078C1197.22 125.078 1196.85 125.167 1196.55 125.344C1196.25 125.516 1196.01 125.75 1195.84 126.047C1195.67 126.339 1195.54 126.664 1195.46 127.023C1195.39 127.378 1195.35 127.74 1195.35 128.109V128.438C1195.35 128.807 1195.39 129.172 1195.46 129.531C1195.54 129.891 1195.66 130.216 1195.83 130.508C1196.01 130.799 1196.24 131.034 1196.54 131.211C1196.84 131.383 1197.22 131.469 1197.67 131.469ZM1204.25 120.5V132.5H1202.81V120.5H1204.25ZM1203.91 127.953L1203.31 127.93C1203.31 127.352 1203.4 126.818 1203.57 126.328C1203.73 125.833 1203.97 125.404 1204.27 125.039C1204.57 124.674 1204.93 124.393 1205.35 124.195C1205.77 123.992 1206.23 123.891 1206.75 123.891C1207.16 123.891 1207.54 123.948 1207.87 124.062C1208.2 124.172 1208.49 124.349 1208.72 124.594C1208.96 124.839 1209.14 125.156 1209.27 125.547C1209.39 125.932 1209.46 126.404 1209.46 126.961V132.5H1208V126.945C1208 126.503 1207.94 126.148 1207.81 125.883C1207.68 125.612 1207.49 125.417 1207.24 125.297C1206.99 125.172 1206.68 125.109 1206.32 125.109C1205.96 125.109 1205.63 125.185 1205.33 125.336C1205.04 125.487 1204.79 125.695 1204.57 125.961C1204.37 126.227 1204.2 126.531 1204.08 126.875C1203.97 127.214 1203.91 127.573 1203.91 127.953ZM1215.28 132.656C1214.69 132.656 1214.16 132.557 1213.68 132.359C1213.2 132.156 1212.79 131.872 1212.45 131.508C1212.11 131.143 1211.85 130.711 1211.67 130.211C1211.49 129.711 1211.4 129.164 1211.4 128.57V128.242C1211.4 127.555 1211.5 126.943 1211.7 126.406C1211.9 125.865 1212.18 125.406 1212.53 125.031C1212.88 124.656 1213.27 124.372 1213.72 124.18C1214.16 123.987 1214.62 123.891 1215.09 123.891C1215.69 123.891 1216.22 123.995 1216.65 124.203C1217.1 124.411 1217.46 124.703 1217.74 125.078C1218.02 125.448 1218.23 125.885 1218.36 126.391C1218.5 126.891 1218.57 127.438 1218.57 128.031V128.68H1212.25V127.5H1217.12V127.391C1217.1 127.016 1217.02 126.651 1216.89 126.297C1216.76 125.943 1216.55 125.651 1216.26 125.422C1215.98 125.193 1215.59 125.078 1215.09 125.078C1214.76 125.078 1214.46 125.148 1214.18 125.289C1213.91 125.424 1213.67 125.628 1213.47 125.898C1213.28 126.169 1213.12 126.5 1213.01 126.891C1212.9 127.281 1212.85 127.732 1212.85 128.242V128.57C1212.85 128.971 1212.9 129.349 1213.01 129.703C1213.13 130.052 1213.29 130.359 1213.5 130.625C1213.72 130.891 1213.99 131.099 1214.29 131.25C1214.61 131.401 1214.96 131.477 1215.36 131.477C1215.87 131.477 1216.3 131.372 1216.65 131.164C1217.01 130.956 1217.32 130.677 1217.58 130.328L1218.46 131.023C1218.28 131.299 1218.04 131.562 1217.76 131.812C1217.48 132.062 1217.13 132.266 1216.72 132.422C1216.32 132.578 1215.84 132.656 1215.28 132.656Z" fill="black" fill-opacity="0.38"/>
<path d="M1346 125.5L1351 130.5L1356 125.5H1346Z" fill="black" fill-opacity="0.54"/>
</g>
<line x1="1143" y1="144" x2="1363" y2="144" stroke="black" stroke-opacity="0.42"/>
<g clip-path="url(#clip4_568_6009)">
<rect x="1388" y="114" width="32" height="32" rx="16" fill="#394FFD"/>
<path d="M1401.18 133.777L1403.89 135.923L1402.94 136.802L1400.27 134.685L1401.18 133.777ZM1403.85 129.331V130.005C1403.85 130.806 1403.75 131.523 1403.55 132.158C1403.35 132.793 1403.06 133.333 1402.69 133.777C1402.31 134.221 1401.86 134.561 1401.33 134.795C1400.81 135.029 1400.22 135.146 1399.57 135.146C1398.95 135.146 1398.37 135.029 1397.84 134.795C1397.32 134.561 1396.86 134.221 1396.48 133.777C1396.1 133.333 1395.8 132.793 1395.59 132.158C1395.38 131.523 1395.28 130.806 1395.28 130.005V129.331C1395.28 128.53 1395.38 127.815 1395.58 127.185C1395.79 126.55 1396.09 126.011 1396.47 125.566C1396.85 125.117 1397.3 124.775 1397.82 124.541C1398.35 124.307 1398.93 124.189 1399.56 124.189C1400.21 124.189 1400.8 124.307 1401.33 124.541C1401.85 124.775 1402.3 125.117 1402.68 125.566C1403.06 126.011 1403.34 126.55 1403.54 127.185C1403.75 127.815 1403.85 128.53 1403.85 129.331ZM1402.45 130.005V129.316C1402.45 128.682 1402.39 128.12 1402.26 127.632C1402.13 127.144 1401.94 126.733 1401.69 126.401C1401.44 126.069 1401.14 125.818 1400.78 125.647C1400.43 125.476 1400.02 125.391 1399.56 125.391C1399.13 125.391 1398.73 125.476 1398.37 125.647C1398.02 125.818 1397.72 126.069 1397.47 126.401C1397.21 126.733 1397.02 127.144 1396.88 127.632C1396.74 128.12 1396.67 128.682 1396.67 129.316V130.005C1396.67 130.645 1396.74 131.211 1396.88 131.704C1397.02 132.192 1397.21 132.605 1397.47 132.942C1397.72 133.274 1398.03 133.525 1398.39 133.696C1398.74 133.867 1399.14 133.953 1399.57 133.953C1400.03 133.953 1400.44 133.867 1400.8 133.696C1401.15 133.525 1401.45 133.274 1401.7 132.942C1401.95 132.605 1402.14 132.192 1402.26 131.704C1402.39 131.211 1402.45 130.645 1402.45 130.005ZM1409.76 124.336V135H1408.37V124.336H1409.76ZM1413.19 124.336V125.493H1404.95V124.336H1413.19Z" fill="white"/>
</g>
<rect x="20.5" y="100.5" width="1439" height="59" stroke="black" stroke-opacity="0.12"/>
<rect x="0.5" y="0.5" width="1479" height="179" rx="4.5" stroke="#7B61FF" stroke-dasharray="10 5"/>
<defs>
<clipPath id="clip0_568_6009">
<rect width="20" height="20" fill="white" transform="translate(948 40)"/>
</clipPath>
<clipPath id="clip1_568_6009">
<rect width="24" height="24" fill="white" transform="translate(1335 38)"/>
</clipPath>
<clipPath id="clip2_568_6009">
<rect x="1388" y="34" width="32" height="32" rx="16" fill="white"/>
</clipPath>
<clipPath id="clip3_568_6009">
<rect width="220" height="24" fill="white" transform="translate(1143 115.5)"/>
</clipPath>
<clipPath id="clip4_568_6009">
<rect x="1388" y="114" width="32" height="32" rx="16" fill="white"/>
</clipPath>
</defs>
</svg>
