<svg width="572" height="41" viewBox="0 0 572 41" fill="none" xmlns="http://www.w3.org/2000/svg">
<path d="M10.528 26.04C13.264 26.04 15.016 24.696 15.496 22.872H15.616V25.968C15.616 28.92 14.416 29.856 11.344 29.856C8.704 29.856 7.312 29.04 7.312 26.952H5.608C5.608 29.712 8.056 31.32 11.272 31.32C14.848 31.32 17.32 29.784 17.32 25.872V15.144H15.784V18.192H15.664C15.184 16.08 13.216 14.904 10.72 14.904C7.072 14.904 4.84 17.232 4.84 20.472C4.84 23.712 7 26.04 10.528 26.04ZM6.544 20.472C6.544 17.448 8.44 16.416 11.104 16.416C13.84 16.416 15.616 17.808 15.616 20.136V20.544C15.616 23.064 13.912 24.528 10.984 24.528C8.416 24.528 6.544 23.496 6.544 20.472ZM21.9096 27V20.568C21.9096 17.904 22.9656 16.392 25.3656 16.392C27.4296 16.392 28.2696 17.376 28.2696 19.392V20.304H29.9736V19.128C29.9736 16.92 28.7736 14.904 26.0376 14.904C23.5656 14.904 22.2216 16.488 21.8616 18.384H21.7416V15.144H20.2056V27H21.9096ZM35.2358 27.24C37.9958 27.24 40.0838 25.992 40.7798 23.808H40.8998V27H42.4358V19.584C42.4358 16.968 40.8998 14.904 37.2998 14.904C33.6518 14.904 31.5878 16.944 31.5878 19.44V19.536H33.2918V19.44C33.2918 17.352 34.6358 16.44 37.1798 16.44C39.7718 16.44 40.7798 17.352 40.7798 19.656V20.568L35.1398 21.192C32.9318 21.432 31.3238 22.272 31.3238 24.216C31.3238 26.136 32.9078 27.24 35.2358 27.24ZM33.0278 24.096C33.0278 22.872 33.8918 22.44 35.6678 22.272L40.7798 21.696V21.792C40.7798 24.648 38.4998 25.92 35.6198 25.92C33.8198 25.92 33.0278 25.296 33.0278 24.096ZM46.9409 31.08V23.52H46.9649C47.5169 25.8 49.4129 27.24 52.0289 27.24C55.7969 27.24 57.8849 24.672 57.8849 21.072C57.8849 17.472 55.7729 14.904 52.0769 14.904C49.2689 14.904 47.4929 16.344 46.9649 18.48H46.7729V15.144H45.2369V31.08H46.9409ZM46.9409 21.288V21.072C46.9409 18.144 48.6689 16.488 51.6209 16.488C54.3089 16.488 56.1569 17.64 56.1569 21.072C56.1569 24.504 54.3329 25.68 51.5729 25.68C48.7889 25.68 46.9409 24.096 46.9409 21.288ZM61.6831 27V21.432C61.6831 18.48 62.9071 16.464 66.0751 16.464C68.7391 16.464 70.0111 17.616 70.0111 20.328V27H71.7151V20.112C71.7151 17.112 70.0591 14.904 66.7471 14.904C63.7231 14.904 62.1871 16.776 61.8031 18.768H61.6831V10.92H59.9791V27H61.6831ZM76.2378 13.632V10.92H74.5338V13.632H76.2378ZM76.2378 27V15.144H74.5338V27H76.2378ZM84.3121 27.24C87.3841 27.24 89.5921 26.064 89.5921 23.832C89.5921 21.912 88.2241 21.048 85.6801 20.688L82.7761 20.28C80.8081 19.992 80.1841 19.56 80.1841 18.336C80.1841 16.92 81.2161 16.32 83.7121 16.32C86.7361 16.32 87.6721 17.28 87.6721 19.056V19.176H89.3761V19.128C89.3761 16.344 87.1681 14.904 83.7601 14.904C80.4961 14.904 78.5041 16.224 78.5041 18.312C78.5041 20.28 79.8721 21.12 82.0321 21.408L85.2001 21.864C87.1681 22.176 87.9121 22.584 87.9121 23.832C87.9121 25.2 87.0001 25.824 84.3361 25.824C81.4321 25.824 80.2561 25.128 80.2561 23.136V22.992H78.5521V23.04C78.5521 25.776 80.6641 27.24 84.3121 27.24ZM93.5346 27V21.264C93.5346 18.12 94.6626 16.464 97.5426 16.464C100.039 16.464 101.143 17.688 101.143 20.328V27H102.847V21.264C102.847 18.12 103.999 16.464 106.855 16.464C109.351 16.464 110.479 17.688 110.479 20.328V27H112.183V20.088C112.183 17.088 110.575 14.904 107.479 14.904C104.503 14.904 103.087 16.8 102.751 18.84H102.631C102.247 16.536 100.759 14.904 98.1186 14.904C95.1666 14.904 93.7986 16.728 93.4626 18.72H93.3666V15.144H91.8306V27H93.5346ZM120.603 27.24C123.915 27.24 126.363 25.536 126.363 23.064V22.896H124.659V23.064C124.659 24.792 123.363 25.824 120.579 25.824C117.435 25.824 116.067 24.216 115.971 21.552H126.411C126.483 21.24 126.531 20.88 126.531 20.448C126.531 16.92 124.059 14.904 120.579 14.904C116.763 14.904 114.363 17.472 114.363 21.072C114.363 24.84 116.787 27.24 120.603 27.24ZM120.555 16.32C123.339 16.32 124.923 17.64 124.923 20.136C124.923 20.256 124.923 20.376 124.923 20.496H115.971C116.091 17.904 117.483 16.32 120.555 16.32Z" fill="black"/>
<path d="M168.552 27.24C171.168 27.24 173.088 25.872 173.664 23.496H173.76V27H175.32V10.92H173.616V18.456H173.496C172.968 16.416 171.216 14.904 168.408 14.904C164.76 14.904 162.648 17.472 162.648 21.072C162.648 24.672 164.76 27.24 168.552 27.24ZM164.376 21.072C164.376 17.64 166.224 16.488 168.936 16.488C171.864 16.488 173.616 18.12 173.616 21.048V21.264C173.616 24.072 171.768 25.68 168.984 25.68C166.2 25.68 164.376 24.504 164.376 21.072ZM183.822 27.24C187.134 27.24 189.582 25.536 189.582 23.064V22.896H187.878V23.064C187.878 24.792 186.582 25.824 183.798 25.824C180.654 25.824 179.286 24.216 179.19 21.552H189.63C189.702 21.24 189.75 20.88 189.75 20.448C189.75 16.92 187.278 14.904 183.798 14.904C179.982 14.904 177.582 17.472 177.582 21.072C177.582 24.84 180.006 27.24 183.822 27.24ZM183.774 16.32C186.558 16.32 188.142 17.64 188.142 20.136C188.142 20.256 188.142 20.376 188.142 20.496H179.19C179.31 17.904 180.702 16.32 183.774 16.32ZM197.218 27.24C200.29 27.24 202.498 26.064 202.498 23.832C202.498 21.912 201.13 21.048 198.586 20.688L195.682 20.28C193.714 19.992 193.09 19.56 193.09 18.336C193.09 16.92 194.122 16.32 196.618 16.32C199.642 16.32 200.578 17.28 200.578 19.056V19.176H202.282V19.128C202.282 16.344 200.074 14.904 196.666 14.904C193.402 14.904 191.41 16.224 191.41 18.312C191.41 20.28 192.778 21.12 194.938 21.408L198.106 21.864C200.074 22.176 200.818 22.584 200.818 23.832C200.818 25.2 199.906 25.824 197.242 25.824C194.338 25.824 193.162 25.128 193.162 23.136V22.992H191.458V23.04C191.458 25.776 193.57 27.24 197.218 27.24ZM206.441 13.632V10.92H204.737V13.632H206.441ZM206.441 27V15.144H204.737V27H206.441ZM214.395 26.04C217.131 26.04 218.883 24.696 219.363 22.872H219.483V25.968C219.483 28.92 218.283 29.856 215.211 29.856C212.571 29.856 211.179 29.04 211.179 26.952H209.475C209.475 29.712 211.923 31.32 215.139 31.32C218.715 31.32 221.187 29.784 221.187 25.872V15.144H219.651V18.192H219.531C219.051 16.08 217.083 14.904 214.587 14.904C210.939 14.904 208.707 17.232 208.707 20.472C208.707 23.712 210.867 26.04 214.395 26.04ZM210.411 20.472C210.411 17.448 212.307 16.416 214.971 16.416C217.707 16.416 219.483 17.808 219.483 20.136V20.544C219.483 23.064 217.779 24.528 214.851 24.528C212.283 24.528 210.411 23.496 210.411 20.472ZM225.777 27V21.264C225.777 18.216 227.289 16.464 230.169 16.464C232.881 16.464 234.057 17.88 234.057 20.328V27H235.761V20.088C235.761 17.28 234.105 14.904 230.769 14.904C227.817 14.904 226.137 16.848 225.729 18.864H225.609V15.144H224.073V27H225.777Z" fill="black"/>
<path d="M281.568 27.24C286.032 27.24 288.816 24.768 288.816 20.352V10.92H287.112V20.28C287.112 23.952 285.312 25.56 281.568 25.56C277.824 25.56 276.024 23.952 276.024 20.28V10.92H274.32V20.352C274.32 24.768 277.104 27.24 281.568 27.24ZM292.437 27L298.245 19.992H298.389L304.197 27H306.405L299.733 18.96V18.84L306.405 10.92H304.197L298.413 17.784H298.293L292.437 10.92H290.253L296.901 18.816V18.96L290.253 27H292.437ZM307.836 27.48L316.476 10.44H314.652L306.012 27.48H307.836ZM324.506 27.24C328.97 27.24 331.754 24.768 331.754 20.352V10.92H330.049V20.28C330.049 23.952 328.25 25.56 324.506 25.56C320.762 25.56 318.962 23.952 318.962 20.28V10.92H317.258V20.352C317.258 24.768 320.042 27.24 324.506 27.24ZM336.214 27V10.92H334.51V27H336.214Z" fill="black"/>
<path d="M389.032 27.24C393.664 27.24 395.464 24.648 395.464 21.264V10.92H393.688V21.36C393.688 24.12 392.416 25.56 389.032 25.56C385.624 25.56 384.376 24.12 384.376 21.288V20.4H382.6V21.216C382.6 24.624 384.424 27.24 389.032 27.24ZM404.469 27.24C408.933 27.24 410.877 25.08 410.877 22.776C410.877 20.28 409.029 19.056 406.149 18.504L402.765 17.832C400.389 17.328 399.333 16.776 399.333 14.952C399.333 13.2 400.773 12.288 403.965 12.288C407.469 12.288 408.909 13.536 408.909 15.864V16.152H410.637V16.008C410.637 13.08 408.621 10.68 404.085 10.68C399.477 10.68 397.605 12.888 397.605 15.072C397.605 17.736 399.693 18.84 402.309 19.344L405.717 19.992C408.069 20.472 409.149 21.12 409.149 22.92C409.149 24.744 407.685 25.632 404.469 25.632C400.701 25.632 399.261 24.384 399.261 22.08V21.768H397.533V21.912C397.533 24.984 399.741 27.24 404.469 27.24ZM412.992 27.48L421.632 10.44H419.808L411.168 27.48H412.992ZM424.238 27V19.68H434.582V27H436.286V10.92H434.582V18.12H424.238V10.92H422.534V27H424.238ZM446.326 27V12.48H452.926V10.92H437.998V12.48H444.622V27H446.326ZM456.324 27V15.672L456.276 13.512H456.396L457.428 15.672L462.78 26.04H464.844L470.196 15.672L471.204 13.512H471.348L471.3 15.672V27H473.004V10.92H470.652L465.276 21.408L463.884 24.384H463.764L462.348 21.408L456.948 10.92H454.62V27H456.324ZM487.758 27V25.44H477.558V10.92H475.854V27H487.758ZM489.586 27.48L498.226 10.44H496.402L487.762 27.48H489.586ZM506.544 27.24C510.72 27.24 513.84 24.912 513.84 21.264V20.976H511.992V21.264C511.992 24 510.096 25.584 506.568 25.584C502.56 25.584 500.328 23.328 500.328 18.96C500.328 14.592 502.56 12.336 506.568 12.336C510.096 12.336 511.992 13.92 511.992 16.656V16.944H513.84V16.656C513.84 13.008 510.696 10.68 506.544 10.68C501.84 10.68 498.528 13.944 498.528 18.96C498.528 23.976 501.84 27.24 506.544 27.24ZM522.36 27.24C526.824 27.24 528.768 25.08 528.768 22.776C528.768 20.28 526.92 19.056 524.04 18.504L520.656 17.832C518.28 17.328 517.224 16.776 517.224 14.952C517.224 13.2 518.664 12.288 521.856 12.288C525.36 12.288 526.8 13.536 526.8 15.864V16.152H528.528V16.008C528.528 13.08 526.512 10.68 521.976 10.68C517.368 10.68 515.496 12.888 515.496 15.072C515.496 17.736 517.584 18.84 520.2 19.344L523.608 19.992C525.96 20.472 527.04 21.12 527.04 22.92C527.04 24.744 525.576 25.632 522.36 25.632C518.592 25.632 517.152 24.384 517.152 22.08V21.768H515.424V21.912C515.424 24.984 517.632 27.24 522.36 27.24ZM537.219 27.24C541.683 27.24 543.627 25.08 543.627 22.776C543.627 20.28 541.779 19.056 538.899 18.504L535.515 17.832C533.139 17.328 532.083 16.776 532.083 14.952C532.083 13.2 533.523 12.288 536.715 12.288C540.219 12.288 541.659 13.536 541.659 15.864V16.152H543.387V16.008C543.387 13.08 541.371 10.68 536.835 10.68C532.227 10.68 530.355 12.888 530.355 15.072C530.355 17.736 532.443 18.84 535.059 19.344L538.467 19.992C540.819 20.472 541.899 21.12 541.899 22.92C541.899 24.744 540.435 25.632 537.219 25.632C533.451 25.632 532.011 24.384 532.011 22.08V21.768H530.283V21.912C530.283 24.984 532.491 27.24 537.219 27.24Z" fill="black"/>
<line y1="0.5" x2="546" y2="0.5" stroke="black"/>
<line y1="40.5" x2="546" y2="40.5" stroke="black"/>
<line x1="147.5" y1="40" x2="147.5" y2="1" stroke="black"/>
<line x1="256.5" y1="40" x2="256.5" y2="1" stroke="black"/>
<line x1="362.5" y1="40" x2="362.5" y2="1" stroke="black"/>
</svg>
