<svg width="576" height="41" viewBox="0 0 576 41" fill="none" xmlns="http://www.w3.org/2000/svg">
<path d="M7.144 27L7.144 21.264C7.144 18.12 8.272 16.464 11.152 16.464C13.648 16.464 14.752 17.688 14.752 20.328L14.752 27L16.456 27V21.264C16.456 18.12 17.608 16.464 20.464 16.464C22.96 16.464 24.088 17.688 24.088 20.328V27H25.792V20.088C25.792 17.088 24.184 14.904 21.088 14.904C18.112 14.904 16.696 16.8 16.36 18.84H16.24C15.856 16.536 14.368 14.904 11.728 14.904C8.776 14.904 7.408 16.728 7.072 18.72H6.976V15.144H5.44L5.44 27H7.144ZM31.8608 27.24C34.6208 27.24 36.7088 25.992 37.4048 23.808H37.5248L37.5248 27H39.0608L39.0608 19.584C39.0608 16.968 37.5248 14.904 33.9248 14.904C30.2768 14.904 28.2128 16.944 28.2128 19.44V19.536H29.9168V19.44C29.9168 17.352 31.2608 16.44 33.8048 16.44C36.3968 16.44 37.4048 17.352 37.4048 19.656V20.568L31.7648 21.192C29.5568 21.432 27.9488 22.272 27.9488 24.216C27.9488 26.136 29.5328 27.24 31.8608 27.24ZM29.6528 24.096C29.6528 22.872 30.5168 22.44 32.2928 22.272L37.4048 21.696V21.792C37.4048 24.648 35.1248 25.92 32.2448 25.92C30.4448 25.92 29.6528 25.296 29.6528 24.096ZM43.5659 27L43.5659 20.568C43.5659 17.904 44.6219 16.392 47.0219 16.392C49.0859 16.392 49.9259 17.376 49.9259 19.392V20.304H51.6299V19.128C51.6299 16.92 50.4299 14.904 47.6939 14.904C45.2219 14.904 43.8779 16.488 43.5179 18.384H43.3979V15.144L41.8619 15.144L41.8619 27H43.5659ZM55.3081 27L55.3081 21.672L59.2681 21.672L63.2521 27H65.2441L60.6841 20.808L65.2681 15.144L63.2521 15.144L59.2921 20.112L55.3081 20.112V10.92H53.6041L53.6041 27H55.3081ZM72.5566 27.24C75.8686 27.24 78.3166 25.536 78.3166 23.064V22.896H76.6126V23.064C76.6126 24.792 75.3166 25.824 72.5326 25.824C69.3886 25.824 68.0206 24.216 67.9246 21.552H78.3646C78.4366 21.24 78.4846 20.88 78.4846 20.448C78.4846 16.92 76.0126 14.904 72.5326 14.904C68.7166 14.904 66.3166 17.472 66.3166 21.072C66.3166 24.84 68.7406 27.24 72.5566 27.24ZM72.5086 16.32C75.2926 16.32 76.8766 17.64 76.8766 20.136C76.8766 20.256 76.8766 20.376 76.8766 20.496H67.9246C68.0446 17.904 69.4366 16.32 72.5086 16.32ZM88.0167 27V25.44H85.8567C84.1287 25.44 83.3127 24.984 83.3127 23.328V16.608H88.0167V15.144L83.3127 15.144V12.312H81.5847V15.144H79.4727V16.608H81.5847V23.232C81.5847 26.016 83.0967 27 85.4487 27H88.0167ZM91.5893 13.632V10.92H89.8853V13.632H91.5893ZM91.5893 27V15.144H89.8853V27H91.5893ZM96.1596 27V21.264C96.1596 18.216 97.6716 16.464 100.552 16.464C103.264 16.464 104.44 17.88 104.44 20.328V27H106.144V20.088C106.144 17.28 104.488 14.904 101.152 14.904C98.1996 14.904 96.5196 16.848 96.1116 18.864H95.9916V15.144H94.4556V27H96.1596ZM114.005 26.04C116.741 26.04 118.493 24.696 118.973 22.872H119.093V25.968C119.093 28.92 117.893 29.856 114.821 29.856C112.181 29.856 110.789 29.04 110.789 26.952H109.085C109.085 29.712 111.533 31.32 114.749 31.32C118.325 31.32 120.797 29.784 120.797 25.872V15.144L119.261 15.144V18.192H119.141C118.661 16.08 116.693 14.904 114.197 14.904C110.549 14.904 108.317 17.232 108.317 20.472C108.317 23.712 110.477 26.04 114.005 26.04ZM110.021 20.472C110.021 17.448 111.917 16.416 114.581 16.416C117.317 16.416 119.093 17.808 119.093 20.136V20.544C119.093 23.064 117.389 24.528 114.461 24.528C111.893 24.528 110.021 23.496 110.021 20.472Z" fill="black"/>
<path d="M168.552 27.24C171.168 27.24 173.088 25.872 173.664 23.496H173.76V27H175.32V10.92H173.616V18.456H173.496C172.968 16.416 171.216 14.904 168.408 14.904C164.76 14.904 162.648 17.472 162.648 21.072C162.648 24.672 164.76 27.24 168.552 27.24ZM164.376 21.072C164.376 17.64 166.224 16.488 168.936 16.488C171.864 16.488 173.616 18.12 173.616 21.048V21.264C173.616 24.072 171.768 25.68 168.984 25.68C166.2 25.68 164.376 24.504 164.376 21.072ZM183.822 27.24C187.134 27.24 189.582 25.536 189.582 23.064V22.896H187.878V23.064C187.878 24.792 186.582 25.824 183.798 25.824C180.654 25.824 179.286 24.216 179.19 21.552H189.63C189.702 21.24 189.75 20.88 189.75 20.448C189.75 16.92 187.278 14.904 183.798 14.904C179.982 14.904 177.582 17.472 177.582 21.072C177.582 24.84 180.006 27.24 183.822 27.24ZM183.774 16.32C186.558 16.32 188.142 17.64 188.142 20.136C188.142 20.256 188.142 20.376 188.142 20.496H179.19C179.31 17.904 180.702 16.32 183.774 16.32ZM197.218 27.24C200.29 27.24 202.498 26.064 202.498 23.832C202.498 21.912 201.13 21.048 198.586 20.688L195.682 20.28C193.714 19.992 193.09 19.56 193.09 18.336C193.09 16.92 194.122 16.32 196.618 16.32C199.642 16.32 200.578 17.28 200.578 19.056V19.176H202.282V19.128C202.282 16.344 200.074 14.904 196.666 14.904C193.402 14.904 191.41 16.224 191.41 18.312C191.41 20.28 192.778 21.12 194.938 21.408L198.106 21.864C200.074 22.176 200.818 22.584 200.818 23.832C200.818 25.2 199.906 25.824 197.242 25.824C194.338 25.824 193.162 25.128 193.162 23.136V22.992H191.458V23.04C191.458 25.776 193.57 27.24 197.218 27.24ZM206.441 13.632V10.92H204.737V13.632H206.441ZM206.441 27V15.144H204.737V27H206.441ZM214.395 26.04C217.131 26.04 218.883 24.696 219.363 22.872H219.483V25.968C219.483 28.92 218.283 29.856 215.211 29.856C212.571 29.856 211.179 29.04 211.179 26.952H209.475C209.475 29.712 211.923 31.32 215.139 31.32C218.715 31.32 221.187 29.784 221.187 25.872V15.144H219.651V18.192H219.531C219.051 16.08 217.083 14.904 214.587 14.904C210.939 14.904 208.707 17.232 208.707 20.472C208.707 23.712 210.867 26.04 214.395 26.04ZM210.411 20.472C210.411 17.448 212.307 16.416 214.971 16.416C217.707 16.416 219.483 17.808 219.483 20.136V20.544C219.483 23.064 217.779 24.528 214.851 24.528C212.283 24.528 210.411 23.496 210.411 20.472ZM225.777 27V21.264C225.777 18.216 227.289 16.464 230.169 16.464C232.881 16.464 234.057 17.88 234.057 20.328V27H235.761V20.088C235.761 17.28 234.105 14.904 230.769 14.904C227.817 14.904 226.137 16.848 225.729 18.864H225.609V15.144H224.073V27H225.777Z" fill="black"/>
<path d="M301.568 27.24C306.032 27.24 308.816 24.768 308.816 20.352V10.92H307.112V20.28C307.112 23.952 305.312 25.56 301.568 25.56C297.824 25.56 296.024 23.952 296.024 20.28V10.92H294.32V20.352C294.32 24.768 297.104 27.24 301.568 27.24ZM313.277 27V10.92H311.573V27H313.277Z" fill="black"/>
<path d="M390.856 27.24C395.032 27.24 398.152 24.912 398.152 21.264V20.976H396.304V21.264C396.304 24 394.408 25.584 390.88 25.584C386.872 25.584 384.64 23.328 384.64 18.96C384.64 14.592 386.872 12.336 390.88 12.336C394.408 12.336 396.304 13.92 396.304 16.656V16.944H398.152V16.656C398.152 13.008 395.008 10.68 390.856 10.68C386.152 10.68 382.84 13.944 382.84 18.96C382.84 23.976 386.152 27.24 390.856 27.24ZM406.24 27.24C410.128 27.24 412.696 24.672 412.696 21.072C412.696 17.472 410.128 14.904 406.24 14.904C402.376 14.904 399.808 17.472 399.808 21.072C399.808 24.672 402.376 27.24 406.24 27.24ZM406.24 25.704C402.976 25.704 401.488 23.952 401.488 21.072C401.488 18.216 402.976 16.44 406.24 16.44C409.504 16.44 411.016 18.216 411.016 21.072C411.016 23.952 409.504 25.704 406.24 25.704ZM416.667 27V21.264C416.667 18.12 417.795 16.464 420.675 16.464C423.171 16.464 424.275 17.688 424.275 20.328V27H425.979V21.264C425.979 18.12 427.131 16.464 429.987 16.464C432.483 16.464 433.611 17.688 433.611 20.328V27H435.315V20.088C435.315 17.088 433.707 14.904 430.611 14.904C427.635 14.904 426.219 16.8 425.883 18.84H425.763C425.379 16.536 423.891 14.904 421.251 14.904C418.299 14.904 416.931 16.728 416.595 18.72H416.499V15.144H414.963V27L416.667 27ZM439.8 27V21.264C439.8 18.12 440.928 16.464 443.808 16.464C446.304 16.464 447.408 17.688 447.408 20.328V27H449.112V21.264C449.112 18.12 450.264 16.464 453.12 16.464C455.616 16.464 456.744 17.688 456.744 20.328V27H458.448V20.088C458.448 17.088 456.84 14.904 453.744 14.904C450.768 14.904 449.352 16.8 449.016 18.84H448.896C448.512 16.536 447.024 14.904 444.384 14.904C441.432 14.904 440.064 16.728 439.728 18.72H439.632V15.144H438.096V27H439.8ZM466.197 27.24C469.149 27.24 470.853 25.32 471.261 23.304H471.381V27H472.917V15.144H471.213V20.904C471.213 23.952 469.701 25.704 466.797 25.704C464.061 25.704 462.861 24.288 462.861 21.816V15.144H461.157V22.08C461.157 24.888 462.813 27.24 466.197 27.24ZM477.488 27V21.264C477.488 18.216 479 16.464 481.88 16.464C484.592 16.464 485.768 17.88 485.768 20.328V27H487.472V20.088C487.472 17.28 485.816 14.904 482.48 14.904C479.528 14.904 477.848 16.848 477.44 18.864H477.32V15.144L475.784 15.144V27H477.488ZM491.949 13.632V10.92H490.245V13.632H491.949ZM491.949 27V15.144H490.245V27H491.949ZM500.479 27.24C503.791 27.24 506.383 25.272 506.383 22.416V22.224H504.703V22.368C504.703 24.48 503.167 25.68 500.455 25.68C497.287 25.68 495.919 23.976 495.919 21.072C495.919 18.168 497.287 16.464 500.455 16.464C503.167 16.464 504.703 17.664 504.703 19.776V19.92H506.383V19.728C506.383 16.872 503.791 14.904 500.479 14.904C496.687 14.904 494.215 17.472 494.215 21.072C494.215 24.672 496.687 27.24 500.479 27.24ZM511.955 27.24C514.715 27.24 516.803 25.992 517.499 23.808H517.619V27H519.155V19.584C519.155 16.968 517.619 14.904 514.019 14.904C510.371 14.904 508.307 16.944 508.307 19.44V19.536H510.011V19.44C510.011 17.352 511.355 16.44 513.899 16.44C516.491 16.44 517.499 17.352 517.499 19.656V20.568L511.859 21.192C509.651 21.432 508.043 22.272 508.043 24.216C508.043 26.136 509.627 27.24 511.955 27.24ZM509.747 24.096C509.747 22.872 510.611 22.44 512.387 22.272L517.499 21.696V21.792C517.499 24.648 515.219 25.92 512.339 25.92C510.539 25.92 509.747 25.296 509.747 24.096ZM529.228 27V25.44H527.068C525.34 25.44 524.524 24.984 524.524 23.328V16.608H529.228V15.144H524.524V12.312H522.796V15.144H520.684V16.608H522.796V23.232C522.796 26.016 524.308 27 526.66 27H529.228ZM532.8 13.632V10.92H531.096V13.632L532.8 13.632ZM532.8 27V15.144L531.096 15.144V27H532.8ZM541.475 27.24C545.363 27.24 547.931 24.672 547.931 21.072C547.931 17.472 545.363 14.904 541.475 14.904C537.611 14.904 535.043 17.472 535.043 21.072C535.043 24.672 537.611 27.24 541.475 27.24ZM541.475 25.704C538.211 25.704 536.723 23.952 536.723 21.072C536.723 18.216 538.211 16.44 541.475 16.44C544.739 16.44 546.251 18.216 546.251 21.072C546.251 23.952 544.739 25.704 541.475 25.704ZM551.902 27V21.264C551.902 18.216 553.414 16.464 556.294 16.464C559.006 16.464 560.182 17.88 560.182 20.328V27H561.886V20.088C561.886 17.28 560.23 14.904 556.894 14.904C553.942 14.904 552.262 16.848 551.854 18.864H551.734V15.144H550.198V27H551.902Z" fill="black"/>
<line x1="-6.30735e-09" y1="0.5" x2="569" y2="0.500006" stroke="black"/>
<line x1="-6.30735e-09" y1="40.5" x2="569" y2="40.5" stroke="black"/>
<line x1="147.5" y1="40" x2="147.5" y2="1" stroke="black"/>
<line x1="256.5" y1="40" x2="256.5" y2="1" stroke="black"/>
<line x1="362.5" y1="40" x2="362.5" y2="1" stroke="black"/>
</svg>
