<svg width="390" height="41" viewBox="0 0 390 41" fill="none" xmlns="http://www.w3.org/2000/svg">
<path d="M7.144 27V21.792H12.832C16.312 21.792 18.76 19.8 18.76 16.344C18.76 12.912 16.312 10.92 12.832 10.92H5.44V27H7.144ZM12.688 12.48C15.52 12.48 17.032 13.656 17.032 16.344C17.032 19.08 15.52 20.232 12.688 20.232H7.144V12.48H12.688ZM22.3081 27V19.68H32.6521V27H34.3561V10.92H32.6521V18.12H22.3081V10.92H20.6041V27H22.3081ZM38.9487 27V21.792H44.6367C48.1167 21.792 50.5647 19.8 50.5647 16.344C50.5647 12.912 48.1167 10.92 44.6367 10.92H37.2447V27H38.9487ZM44.4927 12.48C47.3247 12.48 48.8367 13.656 48.8367 16.344C48.8367 19.08 47.3247 20.232 44.4927 20.232H38.9487V12.48H44.4927Z" fill="black"/>
<path d="M103.552 27.24C106.168 27.24 108.088 25.872 108.664 23.496H108.76V27H110.32V10.92H108.616V18.456H108.496C107.968 16.416 106.216 14.904 103.408 14.904C99.76 14.904 97.648 17.472 97.648 21.072C97.648 24.672 99.76 27.24 103.552 27.24ZM99.376 21.072C99.376 17.64 101.224 16.488 103.936 16.488C106.864 16.488 108.616 18.12 108.616 21.048V21.264C108.616 24.072 106.768 25.68 103.984 25.68C101.2 25.68 99.376 24.504 99.376 21.072ZM118.822 27.24C122.134 27.24 124.582 25.536 124.582 23.064V22.896H122.878V23.064C122.878 24.792 121.582 25.824 118.798 25.824C115.654 25.824 114.286 24.216 114.19 21.552H124.63C124.702 21.24 124.75 20.88 124.75 20.448C124.75 16.92 122.278 14.904 118.798 14.904C114.982 14.904 112.582 17.472 112.582 21.072C112.582 24.84 115.006 27.24 118.822 27.24ZM118.774 16.32C121.558 16.32 123.142 17.64 123.142 20.136C123.142 20.256 123.142 20.376 123.142 20.496H114.19C114.31 17.904 115.702 16.32 118.774 16.32ZM132.218 27.24C135.29 27.24 137.498 26.064 137.498 23.832C137.498 21.912 136.13 21.048 133.586 20.688L130.682 20.28C128.714 19.992 128.09 19.56 128.09 18.336C128.09 16.92 129.122 16.32 131.618 16.32C134.642 16.32 135.578 17.28 135.578 19.056V19.176H137.282V19.128C137.282 16.344 135.074 14.904 131.666 14.904C128.402 14.904 126.41 16.224 126.41 18.312C126.41 20.28 127.778 21.12 129.938 21.408L133.106 21.864C135.074 22.176 135.818 22.584 135.818 23.832C135.818 25.2 134.906 25.824 132.242 25.824C129.338 25.824 128.162 25.128 128.162 23.136V22.992H126.458V23.04C126.458 25.776 128.57 27.24 132.218 27.24ZM141.441 13.632V10.92H139.737V13.632H141.441ZM141.441 27V15.144H139.737V27H141.441ZM149.395 26.04C152.131 26.04 153.883 24.696 154.363 22.872H154.483V25.968C154.483 28.92 153.283 29.856 150.211 29.856C147.571 29.856 146.179 29.04 146.179 26.952H144.475C144.475 29.712 146.923 31.32 150.139 31.32C153.715 31.32 156.187 29.784 156.187 25.872V15.144H154.651V18.192H154.531C154.051 16.08 152.083 14.904 149.587 14.904C145.939 14.904 143.707 17.232 143.707 20.472C143.707 23.712 145.867 26.04 149.395 26.04ZM145.411 20.472C145.411 17.448 147.307 16.416 149.971 16.416C152.707 16.416 154.483 17.808 154.483 20.136V20.544C154.483 23.064 152.779 24.528 149.851 24.528C147.283 24.528 145.411 23.496 145.411 20.472ZM160.777 27V21.264C160.777 18.216 162.289 16.464 165.169 16.464C167.881 16.464 169.057 17.88 169.057 20.328V27H170.761V20.088C170.761 17.28 169.105 14.904 165.769 14.904C162.817 14.904 161.137 16.848 160.729 18.864H160.609V15.144H159.073V27H160.777Z" fill="black"/>
<path d="M216.568 27.24C221.032 27.24 223.816 24.768 223.816 20.352V10.92H222.112V20.28C222.112 23.952 220.312 25.56 216.568 25.56C212.824 25.56 211.024 23.952 211.024 20.28V10.92H209.32V20.352C209.32 24.768 212.104 27.24 216.568 27.24ZM227.437 27L233.245 19.992H233.389L239.197 27H241.405L234.733 18.96V18.84L241.405 10.92H239.197L233.413 17.784H233.293L227.437 10.92H225.253L231.901 18.816V18.96L225.253 27H227.437ZM242.836 27.48L251.476 10.44H249.652L241.012 27.48H242.836ZM259.506 27.24C263.97 27.24 266.754 24.768 266.754 20.352V10.92H265.049V20.28C265.049 23.952 263.25 25.56 259.506 25.56C255.762 25.56 253.962 23.952 253.962 20.28V10.92H252.258V20.352C252.258 24.768 255.042 27.24 259.506 27.24ZM271.214 27V10.92H269.51V27H271.214Z" fill="black"/>
<path d="M320.144 27V20.424H323.6C325.736 20.424 326.576 21 327.392 22.344L330.248 27H332.216L329.192 22.08C328.64 21.144 328.04 20.448 326.984 20.16V20.04C329.96 19.968 331.952 18.288 331.952 15.576C331.952 12.624 329.672 10.92 326.312 10.92H318.44V27H320.144ZM320.144 12.48H326.288C328.832 12.48 330.176 13.488 330.176 15.768C330.176 18.048 328.832 19.056 326.288 19.056H320.144V12.48ZM339.83 27.24C343.142 27.24 345.59 25.536 345.59 23.064V22.896H343.886V23.064C343.886 24.792 342.59 25.824 339.806 25.824C336.662 25.824 335.294 24.216 335.198 21.552H345.638C345.71 21.24 345.758 20.88 345.758 20.448C345.758 16.92 343.286 14.904 339.806 14.904C335.99 14.904 333.59 17.472 333.59 21.072C333.59 24.84 336.014 27.24 339.83 27.24ZM339.782 16.32C342.566 16.32 344.15 17.64 344.15 20.136C344.15 20.256 344.15 20.376 344.15 20.496H335.198C335.318 17.904 336.71 16.32 339.782 16.32ZM351.306 27.24C354.066 27.24 356.154 25.992 356.85 23.808H356.97V27H358.506V19.584C358.506 16.968 356.97 14.904 353.37 14.904C349.722 14.904 347.658 16.944 347.658 19.44V19.536H349.362V19.44C349.362 17.352 350.706 16.44 353.25 16.44C355.842 16.44 356.85 17.352 356.85 19.656V20.568L351.21 21.192C349.002 21.432 347.394 22.272 347.394 24.216C347.394 26.136 348.978 27.24 351.306 27.24ZM349.098 24.096C349.098 22.872 349.962 22.44 351.738 22.272L356.85 21.696V21.792C356.85 24.648 354.57 25.92 351.69 25.92C349.89 25.92 349.098 25.296 349.098 24.096ZM366.971 27.24C370.283 27.24 372.875 25.272 372.875 22.416V22.224H371.195V22.368C371.195 24.48 369.659 25.68 366.947 25.68C363.779 25.68 362.411 23.976 362.411 21.072C362.411 18.168 363.779 16.464 366.947 16.464C369.659 16.464 371.195 17.664 371.195 19.776V19.92H372.875V19.728C372.875 16.872 370.283 14.904 366.971 14.904C363.179 14.904 360.707 17.472 360.707 21.072C360.707 24.672 363.179 27.24 366.971 27.24ZM382.431 27V25.44H380.271C378.543 25.44 377.727 24.984 377.727 23.328V16.608H382.431V15.144H377.727V12.312H375.999V15.144H373.887V16.608H375.999V23.232C375.999 26.016 377.511 27 379.863 27H382.431Z" fill="black"/>
<line y1="0.5" x2="390" y2="0.5" stroke="black"/>
<line y1="40.5" x2="390" y2="40.5" stroke="black"/>
<line x1="72.5" y1="40" x2="72.5" y2="1" stroke="black"/>
<line x1="191.5" y1="40" x2="191.5" y2="1" stroke="black"/>
<line x1="297.5" y1="40" x2="297.5" y2="1" stroke="black"/>
</svg>
