<svg width="242" height="75" viewBox="0 0 242 75" fill="none" xmlns="http://www.w3.org/2000/svg">
<path d="M51.7 50V47.66H40.612L35.212 47.876C35.212 44.492 36.328 42.908 40.288 41.504L45.22 39.848C49.468 38.408 51.772 36.32 51.772 32.612C51.772 28.724 48.964 25.52 42.484 25.52C35.428 25.52 32.476 29.372 32.476 33.656V33.98H35.032V33.548C35.032 29.948 37.192 27.932 42.412 27.932C46.984 27.932 49.18 29.444 49.18 32.612C49.18 35.168 48.028 36.356 44.536 37.652L39.136 39.56C34.276 41.324 32.584 43.592 32.584 48.236V50H51.7ZM65.499 50.36C72.339 50.36 76.659 45.716 76.659 37.94C76.659 30.2 72.339 25.52 65.499 25.52C58.623 25.52 54.303 30.2 54.303 37.94C54.303 45.716 58.623 50.36 65.499 50.36ZM65.499 47.912C59.883 47.912 57.003 44.672 57.003 37.94C57.003 31.208 59.883 27.968 65.499 27.968C71.079 27.968 73.959 31.208 73.959 37.94C73.959 44.672 71.079 47.912 65.499 47.912ZM82.1816 50V44.996H79.0136V50H82.1816ZM91.8813 50V25.88H89.7933C88.8573 28.148 87.5613 28.868 84.8973 28.868H83.6373V30.812H89.3253V50H91.8813ZM106.456 50.36C113.296 50.36 117.616 45.716 117.616 37.94C117.616 30.2 113.296 25.52 106.456 25.52C99.58 25.52 95.26 30.2 95.26 37.94C95.26 45.716 99.58 50.36 106.456 50.36ZM106.456 47.912C100.84 47.912 97.96 44.672 97.96 37.94C97.96 31.208 100.84 27.968 106.456 27.968C112.036 27.968 114.916 31.208 114.916 37.94C114.916 44.672 112.036 47.912 106.456 47.912ZM123.139 50V44.996H119.971V50H123.139ZM144.934 50V47.66H133.846L128.446 47.876C128.446 44.492 129.562 42.908 133.522 41.504L138.454 39.848C142.702 38.408 145.006 36.32 145.006 32.612C145.006 28.724 142.198 25.52 135.718 25.52C128.662 25.52 125.71 29.372 125.71 33.656V33.98H128.266V33.548C128.266 29.948 130.426 27.932 135.646 27.932C140.218 27.932 142.414 29.444 142.414 32.612C142.414 35.168 141.262 36.356 137.77 37.652L132.37 39.56C127.51 41.324 125.818 43.592 125.818 48.236V50H144.934ZM158.733 50.36C165.573 50.36 169.893 45.716 169.893 37.94C169.893 30.2 165.573 25.52 158.733 25.52C151.857 25.52 147.537 30.2 147.537 37.94C147.537 45.716 151.857 50.36 158.733 50.36ZM158.733 47.912C153.117 47.912 150.237 44.672 150.237 37.94C150.237 31.208 153.117 27.968 158.733 27.968C164.313 27.968 167.193 31.208 167.193 37.94C167.193 44.672 164.313 47.912 158.733 47.912ZM191.868 50V47.66H180.78L175.38 47.876C175.38 44.492 176.496 42.908 180.456 41.504L185.388 39.848C189.636 38.408 191.94 36.32 191.94 32.612C191.94 28.724 189.132 25.52 182.652 25.52C175.596 25.52 172.644 29.372 172.644 33.656V33.98H175.2V33.548C175.2 29.948 177.36 27.932 182.58 27.932C187.152 27.932 189.348 29.444 189.348 32.612C189.348 35.168 188.196 36.356 184.704 37.652L179.304 39.56C174.444 41.324 172.752 43.592 172.752 48.236V50H191.868ZM201.815 50V25.88H199.727C198.791 28.148 197.495 28.868 194.831 28.868H193.571V30.812H199.259V50H201.815Z" fill="black"/>
<path d="M241.5 37.5C241.5 42.4427 238.267 47.245 232.196 51.6934C226.135 56.1341 217.333 60.1542 206.412 63.5389C184.575 70.3065 154.377 74.5 121 74.5C87.6226 74.5 57.4249 70.3065 35.5881 63.5389C24.6667 60.1542 15.8649 56.1341 9.8043 51.6934C3.73335 47.245 0.5 42.4427 0.5 37.5C0.5 32.5573 3.73335 27.755 9.8043 23.3066C15.8649 18.8659 24.6667 14.8458 35.5881 11.4611C57.4249 4.69349 87.6226 0.5 121 0.5C154.377 0.5 184.575 4.69349 206.412 11.4611C217.333 14.8458 226.135 18.8659 232.196 23.3066C238.267 27.755 241.5 32.5573 241.5 37.5Z" stroke="black"/>
</svg>
