<svg width="514" height="41" viewBox="0 0 514 41" fill="none" xmlns="http://www.w3.org/2000/svg">
<path d="M10.528 26.04C13.264 26.04 15.016 24.696 15.496 22.872H15.616V25.968C15.616 28.92 14.416 29.856 11.344 29.856C8.704 29.856 7.312 29.04 7.312 26.952H5.608C5.608 29.712 8.056 31.32 11.272 31.32C14.848 31.32 17.32 29.784 17.32 25.872V15.144H15.784V18.192H15.664C15.184 16.08 13.216 14.904 10.72 14.904C7.072 14.904 4.84 17.232 4.84 20.472C4.84 23.712 7 26.04 10.528 26.04ZM6.544 20.472C6.544 17.448 8.44 16.416 11.104 16.416C13.84 16.416 15.616 17.808 15.616 20.136V20.544C15.616 23.064 13.912 24.528 10.984 24.528C8.416 24.528 6.544 23.496 6.544 20.472ZM21.9096 27V20.568C21.9096 17.904 22.9656 16.392 25.3656 16.392C27.4296 16.392 28.2696 17.376 28.2696 19.392V20.304H29.9736V19.128C29.9736 16.92 28.7736 14.904 26.0376 14.904C23.5656 14.904 22.2216 16.488 21.8616 18.384H21.7416V15.144H20.2056V27H21.9096ZM35.2358 27.24C37.9958 27.24 40.0838 25.992 40.7798 23.808H40.8998V27H42.4358V19.584C42.4358 16.968 40.8998 14.904 37.2998 14.904C33.6518 14.904 31.5878 16.944 31.5878 19.44V19.536H33.2918V19.44C33.2918 17.352 34.6358 16.44 37.1798 16.44C39.7718 16.44 40.7798 17.352 40.7798 19.656V20.568L35.1398 21.192C32.9318 21.432 31.3238 22.272 31.3238 24.216C31.3238 26.136 32.9078 27.24 35.2358 27.24ZM33.0278 24.096C33.0278 22.872 33.8918 22.44 35.6678 22.272L40.7798 21.696V21.792C40.7798 24.648 38.4998 25.92 35.6198 25.92C33.8198 25.92 33.0278 25.296 33.0278 24.096ZM46.9409 31.08V23.52H46.9649C47.5169 25.8 49.4129 27.24 52.0289 27.24C55.7969 27.24 57.8849 24.672 57.8849 21.072C57.8849 17.472 55.7729 14.904 52.0769 14.904C49.2689 14.904 47.4929 16.344 46.9649 18.48H46.7729V15.144H45.2369V31.08H46.9409ZM46.9409 21.288V21.072C46.9409 18.144 48.6689 16.488 51.6209 16.488C54.3089 16.488 56.1569 17.64 56.1569 21.072C56.1569 24.504 54.3329 25.68 51.5729 25.68C48.7889 25.68 46.9409 24.096 46.9409 21.288ZM61.6831 27V21.432C61.6831 18.48 62.9071 16.464 66.0751 16.464C68.7391 16.464 70.0111 17.616 70.0111 20.328V27H71.7151V20.112C71.7151 17.112 70.0591 14.904 66.7471 14.904C63.7231 14.904 62.1871 16.776 61.8031 18.768H61.6831V10.92H59.9791V27H61.6831ZM76.2378 13.632V10.92H74.5338V13.632H76.2378ZM76.2378 27V15.144H74.5338V27H76.2378ZM84.3121 27.24C87.3841 27.24 89.5921 26.064 89.5921 23.832C89.5921 21.912 88.2241 21.048 85.6801 20.688L82.7761 20.28C80.8081 19.992 80.1841 19.56 80.1841 18.336C80.1841 16.92 81.2161 16.32 83.7121 16.32C86.7361 16.32 87.6721 17.28 87.6721 19.056V19.176H89.3761V19.128C89.3761 16.344 87.1681 14.904 83.7601 14.904C80.4961 14.904 78.5041 16.224 78.5041 18.312C78.5041 20.28 79.8721 21.12 82.0321 21.408L85.2001 21.864C87.1681 22.176 87.9121 22.584 87.9121 23.832C87.9121 25.2 87.0001 25.824 84.3361 25.824C81.4321 25.824 80.2561 25.128 80.2561 23.136V22.992H78.5521V23.04C78.5521 25.776 80.6641 27.24 84.3121 27.24ZM93.5346 27V21.264C93.5346 18.12 94.6626 16.464 97.5426 16.464C100.039 16.464 101.143 17.688 101.143 20.328V27H102.847V21.264C102.847 18.12 103.999 16.464 106.855 16.464C109.351 16.464 110.479 17.688 110.479 20.328V27H112.183V20.088C112.183 17.088 110.575 14.904 107.479 14.904C104.503 14.904 103.087 16.8 102.751 18.84H102.631C102.247 16.536 100.759 14.904 98.1186 14.904C95.1666 14.904 93.7986 16.728 93.4626 18.72H93.3666V15.144H91.8306V27H93.5346ZM120.603 27.24C123.915 27.24 126.363 25.536 126.363 23.064V22.896H124.659V23.064C124.659 24.792 123.363 25.824 120.579 25.824C117.435 25.824 116.067 24.216 115.971 21.552H126.411C126.483 21.24 126.531 20.88 126.531 20.448C126.531 16.92 124.059 14.904 120.579 14.904C116.763 14.904 114.363 17.472 114.363 21.072C114.363 24.84 116.787 27.24 120.603 27.24ZM120.555 16.32C123.339 16.32 124.923 17.64 124.923 20.136C124.923 20.256 124.923 20.376 124.923 20.496H115.971C116.091 17.904 117.483 16.32 120.555 16.32Z" fill="black"/>
<path d="M168.552 27.24C171.168 27.24 173.088 25.872 173.664 23.496H173.76V27H175.32V10.92H173.616V18.456H173.496C172.968 16.416 171.216 14.904 168.408 14.904C164.76 14.904 162.648 17.472 162.648 21.072C162.648 24.672 164.76 27.24 168.552 27.24ZM164.376 21.072C164.376 17.64 166.224 16.488 168.936 16.488C171.864 16.488 173.616 18.12 173.616 21.048V21.264C173.616 24.072 171.768 25.68 168.984 25.68C166.2 25.68 164.376 24.504 164.376 21.072ZM183.822 27.24C187.134 27.24 189.582 25.536 189.582 23.064V22.896H187.878V23.064C187.878 24.792 186.582 25.824 183.798 25.824C180.654 25.824 179.286 24.216 179.19 21.552H189.63C189.702 21.24 189.75 20.88 189.75 20.448C189.75 16.92 187.278 14.904 183.798 14.904C179.982 14.904 177.582 17.472 177.582 21.072C177.582 24.84 180.006 27.24 183.822 27.24ZM183.774 16.32C186.558 16.32 188.142 17.64 188.142 20.136C188.142 20.256 188.142 20.376 188.142 20.496H179.19C179.31 17.904 180.702 16.32 183.774 16.32ZM197.218 27.24C200.29 27.24 202.498 26.064 202.498 23.832C202.498 21.912 201.13 21.048 198.586 20.688L195.682 20.28C193.714 19.992 193.09 19.56 193.09 18.336C193.09 16.92 194.122 16.32 196.618 16.32C199.642 16.32 200.578 17.28 200.578 19.056V19.176H202.282V19.128C202.282 16.344 200.074 14.904 196.666 14.904C193.402 14.904 191.41 16.224 191.41 18.312C191.41 20.28 192.778 21.12 194.938 21.408L198.106 21.864C200.074 22.176 200.818 22.584 200.818 23.832C200.818 25.2 199.906 25.824 197.242 25.824C194.338 25.824 193.162 25.128 193.162 23.136V22.992H191.458V23.04C191.458 25.776 193.57 27.24 197.218 27.24ZM206.441 13.632V10.92H204.737V13.632H206.441ZM206.441 27V15.144H204.737V27H206.441ZM214.395 26.04C217.131 26.04 218.883 24.696 219.363 22.872H219.483V25.968C219.483 28.92 218.283 29.856 215.211 29.856C212.571 29.856 211.179 29.04 211.179 26.952H209.475C209.475 29.712 211.923 31.32 215.139 31.32C218.715 31.32 221.187 29.784 221.187 25.872V15.144H219.651V18.192H219.531C219.051 16.08 217.083 14.904 214.587 14.904C210.939 14.904 208.707 17.232 208.707 20.472C208.707 23.712 210.867 26.04 214.395 26.04ZM210.411 20.472C210.411 17.448 212.307 16.416 214.971 16.416C217.707 16.416 219.483 17.808 219.483 20.136V20.544C219.483 23.064 217.779 24.528 214.851 24.528C212.283 24.528 210.411 23.496 210.411 20.472ZM225.777 27V21.264C225.777 18.216 227.289 16.464 230.169 16.464C232.881 16.464 234.057 17.88 234.057 20.328V27H235.761V20.088C235.761 17.28 234.105 14.904 230.769 14.904C227.817 14.904 226.137 16.848 225.729 18.864H225.609V15.144H224.073V27H225.777Z" fill="black"/>
<path d="M281.568 27.24C286.032 27.24 288.816 24.768 288.816 20.352V10.92H287.112V20.28C287.112 23.952 285.312 25.56 281.568 25.56C277.824 25.56 276.024 23.952 276.024 20.28V10.92H274.32V20.352C274.32 24.768 277.104 27.24 281.568 27.24ZM292.437 27L298.245 19.992H298.389L304.197 27H306.405L299.733 18.96V18.84L306.405 10.92H304.197L298.413 17.784H298.293L292.437 10.92H290.253L296.901 18.816V18.96L290.253 27H292.437ZM307.836 27.48L316.476 10.44H314.652L306.012 27.48H307.836ZM324.506 27.24C328.97 27.24 331.754 24.768 331.754 20.352V10.92H330.049V20.28C330.049 23.952 328.25 25.56 324.506 25.56C320.762 25.56 318.962 23.952 318.962 20.28V10.92H317.258V20.352C317.258 24.768 320.042 27.24 324.506 27.24ZM336.214 27V10.92H334.51V27H336.214Z" fill="black"/>
<path d="M388.144 27L391.264 19.248L392.2 16.608H392.32L393.256 19.248L396.328 27H398.464L402.304 15.144H400.552L398.008 22.992L397.432 25.488H397.288L396.472 22.848L393.376 15.144H391.192L388.072 22.848L387.256 25.512H387.112L386.512 22.992L383.992 15.144H382.24L386.032 27H388.144ZM409.779 27.24C413.667 27.24 416.235 24.672 416.235 21.072C416.235 17.472 413.667 14.904 409.779 14.904C405.915 14.904 403.347 17.472 403.347 21.072C403.347 24.672 405.915 27.24 409.779 27.24ZM409.779 25.704C406.515 25.704 405.027 23.952 405.027 21.072C405.027 18.216 406.515 16.44 409.779 16.44C413.043 16.44 414.555 18.216 414.555 21.072C414.555 23.952 413.043 25.704 409.779 25.704ZM420.207 27V20.568C420.207 17.904 421.263 16.392 423.663 16.392C425.727 16.392 426.567 17.376 426.567 19.392V20.304H428.271V19.128C428.271 16.92 427.071 14.904 424.335 14.904C421.863 14.904 420.519 16.488 420.159 18.384H420.039V15.144H418.503V27H420.207ZM435.357 27.24C437.973 27.24 439.893 25.872 440.469 23.496H440.565V27H442.125V10.92H440.421V18.456H440.301C439.773 16.416 438.021 14.904 435.213 14.904C431.565 14.904 429.453 17.472 429.453 21.072C429.453 24.672 431.565 27.24 435.357 27.24ZM431.181 21.072C431.181 17.64 433.029 16.488 435.741 16.488C438.669 16.488 440.421 18.12 440.421 21.048V21.264C440.421 24.072 438.573 25.68 435.789 25.68C433.005 25.68 431.181 24.504 431.181 21.072ZM446.691 31.08V23.52H446.715C447.267 25.8 449.163 27.24 451.779 27.24C455.547 27.24 457.635 24.672 457.635 21.072C457.635 17.472 455.523 14.904 451.827 14.904C449.019 14.904 447.243 16.344 446.715 18.48H446.523V15.144H444.987V31.08H446.691ZM446.691 21.288V21.072C446.691 18.144 448.419 16.488 451.371 16.488C454.059 16.488 455.907 17.64 455.907 21.072C455.907 24.504 454.083 25.68 451.323 25.68C448.539 25.68 446.691 24.096 446.691 21.288ZM461.433 27V20.568C461.433 17.904 462.489 16.392 464.889 16.392C466.953 16.392 467.793 17.376 467.793 19.392V20.304H469.497V19.128C469.497 16.92 468.297 14.904 465.561 14.904C463.089 14.904 461.745 16.488 461.385 18.384H461.265V15.144H459.729V27H461.433ZM477.111 27.24C480.423 27.24 482.871 25.536 482.871 23.064V22.896H481.167V23.064C481.167 24.792 479.871 25.824 477.087 25.824C473.943 25.824 472.575 24.216 472.479 21.552H482.919C482.991 21.24 483.039 20.88 483.039 20.448C483.039 16.92 480.567 14.904 477.087 14.904C473.271 14.904 470.871 17.472 470.871 21.072C470.871 24.84 473.295 27.24 477.111 27.24ZM477.063 16.32C479.847 16.32 481.431 17.64 481.431 20.136C481.431 20.256 481.431 20.376 481.431 20.496H472.479C472.599 17.904 473.991 16.32 477.063 16.32ZM490.507 27.24C493.579 27.24 495.787 26.064 495.787 23.832C495.787 21.912 494.419 21.048 491.875 20.688L488.971 20.28C487.003 19.992 486.379 19.56 486.379 18.336C486.379 16.92 487.411 16.32 489.907 16.32C492.931 16.32 493.867 17.28 493.867 19.056V19.176H495.571V19.128C495.571 16.344 493.363 14.904 489.955 14.904C486.691 14.904 484.699 16.224 484.699 18.312C484.699 20.28 486.067 21.12 488.227 21.408L491.395 21.864C493.363 22.176 494.107 22.584 494.107 23.832C494.107 25.2 493.195 25.824 490.531 25.824C487.627 25.824 486.451 25.128 486.451 23.136V22.992H484.747V23.04C484.747 25.776 486.859 27.24 490.507 27.24ZM503.234 27.24C506.306 27.24 508.514 26.064 508.514 23.832C508.514 21.912 507.146 21.048 504.602 20.688L501.698 20.28C499.73 19.992 499.106 19.56 499.106 18.336C499.106 16.92 500.138 16.32 502.634 16.32C505.658 16.32 506.594 17.28 506.594 19.056V19.176H508.298V19.128C508.298 16.344 506.09 14.904 502.682 14.904C499.418 14.904 497.426 16.224 497.426 18.312C497.426 20.28 498.794 21.12 500.954 21.408L504.122 21.864C506.09 22.176 506.834 22.584 506.834 23.832C506.834 25.2 505.922 25.824 503.258 25.824C500.354 25.824 499.178 25.128 499.178 23.136V22.992H497.474V23.04C497.474 25.776 499.586 27.24 503.234 27.24Z" fill="black"/>
<line y1="0.5" x2="514" y2="0.5" stroke="black"/>
<line y1="40.5" x2="514" y2="40.5" stroke="black"/>
<line x1="147.5" y1="40" x2="147.5" y2="1" stroke="black"/>
<line x1="256.5" y1="40" x2="256.5" y2="1" stroke="black"/>
<line x1="362.5" y1="40" x2="362.5" y2="1" stroke="black"/>
</svg>
