<svg width="41" height="576" viewBox="0 0 41 576" fill="none" xmlns="http://www.w3.org/2000/svg">
<path d="M27 568.856L21.264 568.856C18.12 568.856 16.464 567.728 16.464 564.848C16.464 562.352 17.688 561.248 20.328 561.248L27 561.248L27 559.544L21.264 559.544C18.12 559.544 16.464 558.392 16.464 555.536C16.464 553.04 17.688 551.912 20.328 551.912L27 551.912L27 550.208L20.088 550.208C17.088 550.208 14.904 551.816 14.904 554.912C14.904 557.888 16.8 559.304 18.84 559.64L18.84 559.76C16.536 560.144 14.904 561.632 14.904 564.272C14.904 567.224 16.728 568.592 18.72 568.928L18.72 569.024L15.144 569.024L15.144 570.56L27 570.56L27 568.856ZM27.24 544.139C27.24 541.379 25.992 539.291 23.808 538.595L23.808 538.475L27 538.475L27 536.939L19.584 536.939C16.968 536.939 14.904 538.475 14.904 542.075C14.904 545.723 16.944 547.787 19.44 547.787L19.536 547.787L19.536 546.083L19.44 546.083C17.352 546.083 16.44 544.739 16.44 542.195C16.44 539.603 17.352 538.595 19.656 538.595L20.568 538.595L21.192 544.235C21.432 546.443 22.272 548.051 24.216 548.051C26.136 548.051 27.24 546.467 27.24 544.139ZM24.096 546.347C22.872 546.347 22.44 545.483 22.272 543.707L21.696 538.595L21.792 538.595C24.648 538.595 25.92 540.875 25.92 543.755C25.92 545.555 25.296 546.347 24.096 546.347ZM27 532.434L20.568 532.434C17.904 532.434 16.392 531.378 16.392 528.978C16.392 526.914 17.376 526.074 19.392 526.074L20.304 526.074L20.304 524.37L19.128 524.37C16.92 524.37 14.904 525.57 14.904 528.306C14.904 530.778 16.488 532.122 18.384 532.482L18.384 532.602L15.144 532.602L15.144 534.138L27 534.138L27 532.434ZM27 520.692L21.672 520.692L21.672 516.732L27 512.748L27 510.756L20.808 515.316L15.144 510.732L15.144 512.748L20.112 516.708L20.112 520.692L10.92 520.692L10.92 522.396L27 522.396L27 520.692ZM27.24 503.443C27.24 500.131 25.536 497.683 23.064 497.683L22.896 497.683L22.896 499.387L23.064 499.387C24.792 499.387 25.824 500.683 25.824 503.467C25.824 506.611 24.216 507.979 21.552 508.075L21.552 497.635C21.24 497.563 20.88 497.515 20.448 497.515C16.92 497.515 14.904 499.987 14.904 503.467C14.904 507.283 17.472 509.683 21.072 509.683C24.84 509.683 27.24 507.259 27.24 503.443ZM16.32 503.491C16.32 500.707 17.64 499.123 20.136 499.123C20.256 499.123 20.376 499.123 20.496 499.123L20.496 508.075C17.904 507.955 16.32 506.563 16.32 503.491ZM27 487.983L25.44 487.983L25.44 490.143C25.44 491.871 24.984 492.687 23.328 492.687L16.608 492.687L16.608 487.983L15.144 487.983L15.144 492.687L12.312 492.687L12.312 494.415L15.144 494.415L15.144 496.527L16.608 496.527L16.608 494.415L23.232 494.415C26.016 494.415 27 492.903 27 490.551L27 487.983ZM13.632 484.411L10.92 484.411L10.92 486.115L13.632 486.115L13.632 484.411ZM27 484.411L15.144 484.411L15.144 486.115L27 486.115L27 484.411ZM27 479.84L21.264 479.84C18.216 479.84 16.464 478.328 16.464 475.448C16.464 472.736 17.88 471.56 20.328 471.56L27 471.56L27 469.856L20.088 469.856C17.28 469.856 14.904 471.512 14.904 474.848C14.904 477.8 16.848 479.48 18.864 479.888L18.864 480.008L15.144 480.008L15.144 481.544L27 481.544L27 479.84ZM26.04 461.995C26.04 459.259 24.696 457.507 22.872 457.027L22.872 456.907L25.968 456.907C28.92 456.907 29.856 458.107 29.856 461.179C29.856 463.819 29.04 465.211 26.952 465.211L26.952 466.915C29.712 466.915 31.32 464.467 31.32 461.251C31.32 457.675 29.784 455.203 25.872 455.203L15.144 455.203L15.144 456.739L18.192 456.739L18.192 456.859C16.08 457.339 14.904 459.307 14.904 461.803C14.904 465.451 17.232 467.683 20.472 467.683C23.712 467.683 26.04 465.523 26.04 461.995ZM20.472 465.979C17.448 465.979 16.416 464.083 16.416 461.419C16.416 458.683 17.808 456.907 20.136 456.907L20.544 456.907C23.064 456.907 24.528 458.611 24.528 461.539C24.528 464.107 23.496 465.979 20.472 465.979Z" fill="black"/>
<path d="M27.24 407.448C27.24 404.832 25.872 402.912 23.496 402.336L23.496 402.24L27 402.24L27 400.68L10.92 400.68L10.92 402.384L18.456 402.384L18.456 402.504C16.416 403.032 14.904 404.784 14.904 407.592C14.904 411.24 17.472 413.352 21.072 413.352C24.672 413.352 27.24 411.24 27.24 407.448ZM21.072 411.624C17.64 411.624 16.488 409.776 16.488 407.064C16.488 404.136 18.12 402.384 21.048 402.384L21.264 402.384C24.072 402.384 25.68 404.232 25.68 407.016C25.68 409.8 24.504 411.624 21.072 411.624ZM27.24 392.178C27.24 388.866 25.536 386.418 23.064 386.418L22.896 386.418L22.896 388.122L23.064 388.122C24.792 388.122 25.824 389.418 25.824 392.202C25.824 395.346 24.216 396.714 21.552 396.81L21.552 386.37C21.24 386.298 20.88 386.25 20.448 386.25C16.92 386.25 14.904 388.722 14.904 392.202C14.904 396.018 17.472 398.418 21.072 398.418C24.84 398.418 27.24 395.994 27.24 392.178ZM16.32 392.226C16.32 389.442 17.64 387.858 20.136 387.858C20.256 387.858 20.376 387.858 20.496 387.858L20.496 396.81C17.904 396.69 16.32 395.298 16.32 392.226ZM27.24 378.782C27.24 375.71 26.064 373.502 23.832 373.502C21.912 373.502 21.048 374.87 20.688 377.414L20.28 380.318C19.992 382.286 19.56 382.91 18.336 382.91C16.92 382.91 16.32 381.878 16.32 379.382C16.32 376.358 17.28 375.422 19.056 375.422L19.176 375.422L19.176 373.718L19.128 373.718C16.344 373.718 14.904 375.926 14.904 379.334C14.904 382.598 16.224 384.59 18.312 384.59C20.28 384.59 21.12 383.222 21.408 381.062L21.864 377.894C22.176 375.926 22.584 375.182 23.832 375.182C25.2 375.182 25.824 376.094 25.824 378.758C25.824 381.662 25.128 382.838 23.136 382.838L22.992 382.838L22.992 384.542L23.04 384.542C25.776 384.542 27.24 382.43 27.24 378.782ZM13.632 369.559L10.92 369.559L10.92 371.263L13.632 371.263L13.632 369.559ZM27 369.559L15.144 369.559L15.144 371.263L27 371.263L27 369.559ZM26.04 361.605C26.04 358.869 24.696 357.117 22.872 356.637L22.872 356.517L25.968 356.517C28.92 356.517 29.856 357.717 29.856 360.789C29.856 363.429 29.04 364.821 26.952 364.821L26.952 366.525C29.712 366.525 31.32 364.077 31.32 360.861C31.32 357.285 29.784 354.813 25.872 354.813L15.144 354.813L15.144 356.349L18.192 356.349L18.192 356.469C16.08 356.949 14.904 358.917 14.904 361.413C14.904 365.061 17.232 367.293 20.472 367.293C23.712 367.293 26.04 365.133 26.04 361.605ZM20.472 365.589C17.448 365.589 16.416 363.693 16.416 361.029C16.416 358.293 17.808 356.517 20.136 356.517L20.544 356.517C23.064 356.517 24.528 358.221 24.528 361.149C24.528 363.717 23.496 365.589 20.472 365.589ZM27 350.223L21.264 350.223C18.216 350.223 16.464 348.711 16.464 345.831C16.464 343.119 17.88 341.943 20.328 341.943L27 341.943L27 340.239L20.088 340.239C17.28 340.239 14.904 341.895 14.904 345.231C14.904 348.183 16.848 349.863 18.864 350.271L18.864 350.391L15.144 350.391L15.144 351.927L27 351.927L27 350.223Z" fill="black"/>
<path d="M27.24 294.432C27.24 289.968 24.768 287.184 20.352 287.184L10.92 287.184L10.92 288.888L20.28 288.888C23.952 288.888 25.56 290.688 25.56 294.432C25.56 298.176 23.952 299.976 20.28 299.976L10.92 299.976L10.92 301.68L20.352 301.68C24.768 301.68 27.24 298.896 27.24 294.432ZM27 283.563L19.992 277.755L19.992 277.611L27 271.803L27 269.595L18.96 276.267L18.84 276.267L10.92 269.595L10.92 271.803L17.784 277.587L17.784 277.707L10.92 283.563L10.92 285.747L18.816 279.099L18.96 279.099L27 285.747L27 283.563ZM27.48 268.164L10.44 259.524L10.44 261.348L27.48 269.988L27.48 268.164ZM27.24 251.494C27.24 247.03 24.768 244.246 20.352 244.246L10.92 244.246L10.92 245.95L20.28 245.95C23.952 245.95 25.56 247.75 25.56 251.494C25.56 255.238 23.952 257.038 20.28 257.038L10.92 257.038L10.92 258.742L20.352 258.742C24.768 258.742 27.24 255.958 27.24 251.494ZM27 239.786L10.92 239.786L10.92 241.49L27 241.49L27 239.786Z" fill="black"/>
<path d="M27.24 185.144C27.24 180.968 24.912 177.848 21.264 177.848L20.976 177.848L20.976 179.696L21.264 179.696C24 179.696 25.584 181.592 25.584 185.12C25.584 189.128 23.328 191.36 18.96 191.36C14.592 191.36 12.336 189.128 12.336 185.12C12.336 181.592 13.92 179.696 16.656 179.696L16.944 179.696L16.944 177.848L16.656 177.848C13.008 177.848 10.68 180.992 10.68 185.144C10.68 189.848 13.944 193.16 18.96 193.16C23.976 193.16 27.24 189.848 27.24 185.144ZM27.24 169.76C27.24 165.872 24.672 163.304 21.072 163.304C17.472 163.304 14.904 165.872 14.904 169.76C14.904 173.624 17.472 176.192 21.072 176.192C24.672 176.192 27.24 173.624 27.24 169.76ZM25.704 169.76C25.704 173.024 23.952 174.512 21.072 174.512C18.216 174.512 16.44 173.024 16.44 169.76C16.44 166.496 18.216 164.984 21.072 164.984C23.952 164.984 25.704 166.496 25.704 169.76ZM27 159.333L21.264 159.333C18.12 159.333 16.464 158.205 16.464 155.325C16.464 152.829 17.688 151.725 20.328 151.725L27 151.725L27 150.021L21.264 150.021C18.12 150.021 16.464 148.869 16.464 146.013C16.464 143.517 17.688 142.389 20.328 142.389L27 142.389L27 140.685L20.088 140.685C17.088 140.685 14.904 142.293 14.904 145.389C14.904 148.365 16.8 149.781 18.84 150.117L18.84 150.237C16.536 150.621 14.904 152.109 14.904 154.749C14.904 157.701 16.728 159.069 18.72 159.405L18.72 159.501L15.144 159.501L15.144 161.037L27 161.037L27 159.333ZM27 136.2L21.264 136.2C18.12 136.2 16.464 135.072 16.464 132.192C16.464 129.696 17.688 128.592 20.328 128.592L27 128.592L27 126.888L21.264 126.888C18.12 126.888 16.464 125.736 16.464 122.88C16.464 120.384 17.688 119.256 20.328 119.256L27 119.256L27 117.552L20.088 117.552C17.088 117.552 14.904 119.16 14.904 122.256C14.904 125.232 16.8 126.648 18.84 126.984L18.84 127.104C16.536 127.488 14.904 128.976 14.904 131.616C14.904 134.568 16.728 135.936 18.72 136.272L18.72 136.368L15.144 136.368L15.144 137.904L27 137.904L27 136.2ZM27.24 109.803C27.24 106.851 25.32 105.147 23.304 104.739L23.304 104.619L27 104.619L27 103.083L15.144 103.083L15.144 104.787L20.904 104.787C23.952 104.787 25.704 106.299 25.704 109.203C25.704 111.939 24.288 113.139 21.816 113.139L15.144 113.139L15.144 114.843L22.08 114.843C24.888 114.843 27.24 113.187 27.24 109.803ZM27 98.5122L21.264 98.5122C18.216 98.5122 16.464 97.0002 16.464 94.1202C16.464 91.4082 17.88 90.2322 20.328 90.2322L27 90.2322L27 88.5282L20.088 88.5282C17.28 88.5282 14.904 90.1842 14.904 93.5202C14.904 96.4722 16.848 98.1522 18.864 98.5602L18.864 98.6802L15.144 98.6802L15.144 100.216L27 100.216L27 98.5122ZM13.632 84.0513L10.92 84.0513L10.92 85.7553L13.632 85.7553L13.632 84.0513ZM27 84.0513L15.144 84.0513L15.144 85.7553L27 85.7553L27 84.0513ZM27.24 75.521C27.24 72.209 25.272 69.617 22.416 69.617L22.224 69.617L22.224 71.297L22.368 71.297C24.48 71.297 25.68 72.833 25.68 75.545C25.68 78.713 23.976 80.081 21.072 80.081C18.168 80.081 16.464 78.713 16.464 75.545C16.464 72.833 17.664 71.297 19.776 71.297L19.92 71.297L19.92 69.617L19.728 69.617C16.872 69.617 14.904 72.209 14.904 75.521C14.904 79.313 17.472 81.785 21.072 81.785C24.672 81.785 27.24 79.313 27.24 75.521ZM27.24 64.0454C27.24 61.2854 25.992 59.1974 23.808 58.5014L23.808 58.3814L27 58.3814L27 56.8454L19.584 56.8454C16.968 56.8454 14.904 58.3814 14.904 61.9814C14.904 65.6294 16.944 67.6934 19.44 67.6934L19.536 67.6934L19.536 65.9894L19.44 65.9894C17.352 65.9894 16.44 64.6454 16.44 62.1014C16.44 59.5094 17.352 58.5014 19.656 58.5014L20.568 58.5014L21.192 64.1414C21.432 66.3494 22.272 67.9574 24.216 67.9574C26.136 67.9574 27.24 66.3734 27.24 64.0454ZM24.096 66.2534C22.872 66.2534 22.44 65.3894 22.272 63.6134L21.696 58.5014L21.792 58.5014C24.648 58.5014 25.92 60.7814 25.92 63.6614C25.92 65.4614 25.296 66.2534 24.096 66.2534ZM27 46.7724L25.44 46.7724L25.44 48.9324C25.44 50.6604 24.984 51.4764 23.328 51.4764L16.608 51.4764L16.608 46.7724L15.144 46.7724L15.144 51.4764L12.312 51.4764L12.312 53.2044L15.144 53.2044L15.144 55.3164L16.608 55.3164L16.608 53.2044L23.232 53.2044C26.016 53.2044 27 51.6924 27 49.3404L27 46.7724ZM13.632 43.1997L10.92 43.1997L10.92 44.9037L13.632 44.9037L13.632 43.1997ZM27 43.1997L15.144 43.1997L15.144 44.9037L27 44.9037L27 43.1997ZM27.24 34.5254C27.24 30.6374 24.672 28.0694 21.072 28.0694C17.472 28.0694 14.904 30.6374 14.904 34.5254C14.904 38.3894 17.472 40.9574 21.072 40.9574C24.672 40.9574 27.24 38.3894 27.24 34.5254ZM25.704 34.5254C25.704 37.7894 23.952 39.2774 21.072 39.2774C18.216 39.2774 16.44 37.7894 16.44 34.5254C16.44 31.2614 18.216 29.7494 21.072 29.7494C23.952 29.7494 25.704 31.2614 25.704 34.5254ZM27 24.0982L21.264 24.0982C18.216 24.0982 16.464 22.5862 16.464 19.7062C16.464 16.9942 17.88 15.8182 20.328 15.8182L27 15.8182L27 14.1142L20.088 14.1142C17.28 14.1142 14.904 15.7702 14.904 19.1062C14.904 22.0582 16.848 23.7382 18.864 24.1462L18.864 24.2662L15.144 24.2662L15.144 25.8022L27 25.8022L27 24.0982Z" fill="black"/>
<line x1="0.5" y1="576" x2="0.499981" y2="7" stroke="black"/>
<line x1="40.5" y1="576" x2="40.5" y2="7" stroke="black"/>
<line x1="40" y1="428.5" x2="1" y2="428.5" stroke="black"/>
<line x1="40" y1="319.5" x2="1" y2="319.5" stroke="black"/>
<line x1="40" y1="213.5" x2="1" y2="213.5" stroke="black"/>
</svg>
