<svg width="342" height="107" viewBox="0 0 342 107" fill="none" xmlns="http://www.w3.org/2000/svg">
<path d="M41.952 67V42.88H37.02C35.832 45.256 34.032 45.868 31.368 45.868H30.36V49.576H36.552V67H41.952ZM56.0665 67.36C63.7345 67.36 67.2625 63.976 67.2625 58.756C67.2625 53.788 64.3105 50.908 58.3705 50.908C53.8705 50.908 51.3145 52.672 50.4505 54.076L50.1265 54.04L50.8825 47.74H65.9665V42.88H46.0945L44.7265 56.704L49.8025 56.848V56.812L50.1985 56.848C51.0625 55.588 52.8625 55.192 56.1745 55.192C60.2785 55.192 61.5385 56.164 61.5385 58.828C61.5385 61.456 60.2785 62.428 56.1385 62.428C51.5665 62.428 50.1265 61.564 50.1265 59.512V59.188H44.5465V59.512C44.5465 64.804 48.5065 67.36 56.0665 67.36ZM76.4538 67V60.7H69.5058V67H76.4538ZM90.4913 67.36C98.2313 67.36 102.551 62.464 102.551 54.94C102.551 47.452 98.2313 42.52 90.4913 42.52C82.7153 42.52 78.4313 47.452 78.4313 54.94C78.4313 62.464 82.7153 67.36 90.4913 67.36ZM90.4913 62.104C85.8833 62.104 84.2273 60.124 84.2273 54.94C84.2273 49.756 85.8833 47.776 90.4913 47.776C95.0633 47.776 96.7553 49.756 96.7553 54.94C96.7553 60.124 95.0633 62.104 90.4913 62.104ZM116.078 67.36C123.746 67.36 127.274 63.976 127.274 58.756C127.274 53.788 124.322 50.908 118.382 50.908C113.882 50.908 111.326 52.672 110.462 54.076L110.138 54.04L110.894 47.74H125.978V42.88H106.106L104.738 56.704L109.814 56.848V56.812L110.21 56.848C111.074 55.588 112.874 55.192 116.186 55.192C120.29 55.192 121.55 56.164 121.55 58.828C121.55 61.456 120.29 62.428 116.15 62.428C111.578 62.428 110.138 61.564 110.138 59.512V59.188H104.558V59.512C104.558 64.804 108.518 67.36 116.078 67.36ZM136.466 67V60.7H129.518V67H136.466ZM159.791 67V62.14H150.359L144.059 62.752C144.059 60.844 145.175 60.16 147.515 59.44L152.771 58C157.055 56.812 159.863 54.688 159.863 50.404C159.863 45.832 156.911 42.52 149.639 42.52C141.611 42.52 138.407 46.768 138.407 51.448V51.916H143.699V51.448C143.699 48.784 145.031 47.452 149.459 47.452C153.419 47.452 154.427 48.496 154.427 50.332C154.427 51.916 153.635 52.636 151.475 53.392L145.283 55.408C140.207 57.1 138.371 59.296 138.371 63.544V67H159.791ZM173.671 67.36C181.411 67.36 185.731 62.464 185.731 54.94C185.731 47.452 181.411 42.52 173.671 42.52C165.895 42.52 161.611 47.452 161.611 54.94C161.611 62.464 165.895 67.36 173.671 67.36ZM173.671 62.104C169.063 62.104 167.407 60.124 167.407 54.94C167.407 49.756 169.063 47.776 173.671 47.776C178.243 47.776 179.935 49.756 179.935 54.94C179.935 60.124 178.243 62.104 173.671 62.104ZM208.834 67V62.14H199.402L193.102 62.752C193.102 60.844 194.218 60.16 196.558 59.44L201.814 58C206.098 56.812 208.906 54.688 208.906 50.404C208.906 45.832 205.954 42.52 198.682 42.52C190.654 42.52 187.45 46.768 187.45 51.448V51.916H192.742V51.448C192.742 48.784 194.074 47.452 198.502 47.452C202.462 47.452 203.47 48.496 203.47 50.332C203.47 51.916 202.678 52.636 200.518 53.392L194.326 55.408C189.25 57.1 187.414 59.296 187.414 63.544V67H208.834ZM221.706 67V42.88H216.774C215.586 45.256 213.786 45.868 211.122 45.868H210.114V49.576H216.306V67H221.706ZM233.743 67.72L246.703 42.16H240.943L227.983 67.72H233.743ZM264.16 67.36C269.38 67.36 271.9 64.984 272.728 61.816H273.016V67H278.02V54.256H264.448V58.252H272.62C272.476 61.312 270.784 62.176 265.24 62.176C259.948 62.176 257.968 60.304 257.968 54.94C257.968 49.576 260.02 47.704 265.492 47.704C270.136 47.704 271.972 49.036 271.972 51.844V52.132H277.984V51.844C277.984 46.048 273.196 42.52 265.636 42.52C257.356 42.52 252.244 47.416 252.244 54.94C252.244 62.464 256.78 67.36 264.16 67.36ZM291.895 67.36C299.563 67.36 303.091 63.976 303.091 58.756C303.091 53.788 300.139 50.908 294.199 50.908C289.699 50.908 287.143 52.672 286.279 54.076L285.955 54.04L286.711 47.74H301.795V42.88H281.923L280.555 56.704L285.631 56.848V56.812L286.027 56.848C286.891 55.588 288.691 55.192 292.003 55.192C296.107 55.192 297.367 56.164 297.367 58.828C297.367 61.456 296.107 62.428 291.967 62.428C287.395 62.428 285.955 61.564 285.955 59.512V59.188H280.375V59.512C280.375 64.804 284.335 67.36 291.895 67.36Z" fill="black"/>
<path d="M341.5 53.5C341.5 60.6539 336.865 67.561 328.265 73.9226C319.674 80.2771 307.211 86.0207 291.766 90.853C260.881 100.516 218.184 106.5 171 106.5C123.816 106.5 81.1186 100.516 50.234 90.853C34.7888 86.0207 22.326 80.2771 13.7354 73.9226C5.13503 67.561 0.5 60.6539 0.5 53.5C0.5 46.3461 5.13503 39.439 13.7354 33.0774C22.326 26.7229 34.7888 20.9793 50.234 16.147C81.1186 6.48427 123.816 0.5 171 0.5C218.184 0.5 260.881 6.48427 291.766 16.147C307.211 20.9793 319.674 26.7229 328.265 33.0774C336.865 39.439 341.5 46.3461 341.5 53.5Z" stroke="black"/>
</svg>
