<svg width="469" height="133" viewBox="0 0 469 133" fill="none" xmlns="http://www.w3.org/2000/svg">
<rect x="155" y="16" width="119" height="18" fill="#DC2819"/>
<rect x="89" y="115" width="79" height="18" fill="#DC2819"/>
<rect y="48" width="138" height="18" fill="#DC2819"/>
<path d="M8.984 24.528C6.992 21.936 5.672 19.968 5.672 15.96C5.672 11.952 6.992 9.984 8.984 7.392L7.664 6.192C5.48 8.256 2.84 11.4 2.84 15.96C2.84 20.52 5.48 23.664 7.664 25.728L8.984 24.528ZM17.8588 24.24C22.6828 24.24 25.4188 21.696 25.4188 17.328V7.92H22.8268V17.16C22.8268 20.4 21.3868 21.744 17.8588 21.744C14.3308 21.744 12.8908 20.4 12.8908 17.16V7.92H10.3228V17.328C10.3228 21.696 13.0588 24.24 17.8588 24.24ZM35.5396 24V21.672H33.3796C31.8916 21.672 31.2196 21.288 31.2196 19.824V14.232H35.5396V12.072H31.2196V9.456H28.6516V12.072H26.6356V14.232H28.6516V19.968C28.6516 22.872 30.2356 24 32.8036 24H35.5396ZM39.7529 10.68V7.92H37.1609V10.68H39.7529ZM39.7529 24V12.072H37.1609V24H39.7529ZM44.7451 24V7.92H42.1531V24H44.7451ZM49.7373 10.68V7.92H47.1453V10.68H49.7373ZM49.7373 24V12.072H47.1453V24H49.7373ZM57.7775 24.24C61.1375 24.24 63.3455 22.92 63.3455 20.688C63.3455 18.72 62.0495 17.76 59.2175 17.4L56.4575 17.016C54.6575 16.776 54.1775 16.44 54.1775 15.504C54.1775 14.376 54.9455 13.896 57.1295 13.896C59.7695 13.896 60.4895 14.64 60.4895 16.056V16.2H63.0575V16.128C63.0575 13.296 60.8495 11.832 57.2015 11.832C53.5295 11.832 51.6335 13.32 51.6335 15.408C51.6335 17.4 53.0015 18.36 55.2575 18.648L58.5215 19.08C60.2255 19.32 60.8015 19.632 60.8015 20.616C60.8015 21.672 60.1055 22.152 57.7775 22.152C55.2815 22.152 54.3455 21.648 54.3455 20.088V19.896H51.7535V19.968C51.7535 22.728 53.9375 24.24 57.7775 24.24ZM68.7196 24.24C71.4316 24.24 73.3276 23.04 73.9516 21.024H74.1196V24H76.4956V16.752C76.4956 13.896 74.7916 11.832 70.9996 11.832C67.2076 11.832 64.9516 13.872 64.9516 16.584V16.68H67.5196V16.584C67.5196 14.832 68.5996 14.112 70.8076 14.112C73.0876 14.112 73.9516 14.808 73.9516 16.776V17.472L68.5276 18.048C66.1756 18.312 64.6876 19.272 64.6876 21.12C64.6876 23.088 66.2476 24.24 68.7196 24.24ZM67.2796 20.952C67.2796 20.016 67.9276 19.704 69.2716 19.536L73.9516 19.008C73.9516 21.36 72.1276 22.368 69.4156 22.368C67.9276 22.368 67.2796 21.912 67.2796 20.952ZM86.6334 24V21.672H84.4734C82.9854 21.672 82.3134 21.288 82.3134 19.824V14.232H86.6334V12.072H82.3134V9.456H79.7454V12.072H77.7294V14.232H79.7454V19.968C79.7454 22.872 81.3294 24 83.8974 24H86.6334ZM90.8467 10.68V7.92H88.2547V10.68H90.8467ZM90.8467 24V12.072H88.2547V24H90.8467ZM99.3429 24.24C103.327 24.24 105.991 21.72 105.991 18.048C105.991 14.328 103.327 11.832 99.3429 11.832C95.3829 11.832 92.7189 14.328 92.7189 18.048C92.7189 21.72 95.3829 24.24 99.3429 24.24ZM99.3429 21.936C96.4629 21.936 95.2629 20.568 95.2629 18.048C95.2629 15.504 96.4629 14.112 99.3429 14.112C102.247 14.112 103.447 15.504 103.447 18.048C103.447 20.568 102.247 21.936 99.3429 21.936ZM110.464 24V18.096C110.464 15.504 111.64 14.16 114.256 14.16C116.728 14.16 117.736 15.288 117.736 17.52V24H120.328V16.824C120.328 14.064 118.696 11.832 115.384 11.832C112.36 11.832 110.776 13.752 110.416 15.768H110.248V12.072H107.872V24H110.464ZM131.995 24.24C134.683 24.24 136.435 22.944 136.939 20.568H137.107V24H139.483V7.92H136.891V15.312H136.747C136.267 13.296 134.659 11.832 131.827 11.832C128.203 11.832 126.139 14.328 126.139 18.048C126.139 21.72 128.227 24.24 131.995 24.24ZM128.755 18.048C128.755 15.168 130.243 14.184 132.739 14.184C135.403 14.184 136.891 15.432 136.891 17.976V18.168C136.891 20.664 135.331 21.864 132.787 21.864C130.219 21.864 128.755 20.904 128.755 18.048ZM147.88 24.24C151.432 24.24 153.928 22.488 153.928 19.944V19.728H151.336V19.92C151.336 21.336 150.304 22.152 147.808 22.152C145.048 22.152 143.92 20.928 143.824 18.624H153.952C154.024 18.264 154.048 17.928 154.048 17.496C154.048 13.872 151.528 11.832 147.832 11.832C143.944 11.832 141.4 14.328 141.4 18.048C141.4 22.032 143.968 24.24 147.88 24.24ZM147.784 13.872C150.328 13.872 151.6 14.928 151.6 17.136V17.184H143.848C143.992 15.048 145.144 13.872 147.784 13.872ZM162.683 28.08V20.64H162.779C163.259 22.824 164.987 24.24 167.675 24.24C171.395 24.24 173.435 21.744 173.435 18.048C173.435 14.352 171.347 11.832 167.651 11.832C164.843 11.832 163.163 13.176 162.683 15.384H162.467V12.072H160.091V28.08H162.683ZM162.683 18.24V18.024C162.683 15.456 164.171 14.208 166.835 14.208C169.331 14.208 170.843 15.168 170.843 18.048C170.843 20.904 169.355 21.888 166.787 21.888C164.243 21.888 162.683 20.688 162.683 18.24ZM177.823 24V17.304C177.823 15.168 178.663 14.04 180.703 14.04C182.479 14.04 183.199 14.832 183.199 16.536V17.592H185.767V16.032C185.767 13.776 184.591 11.832 181.879 11.832C179.431 11.832 178.135 13.368 177.775 15.288H177.607V12.072H175.231V24H177.823ZM193.491 24.24C197.475 24.24 200.139 21.72 200.139 18.048C200.139 14.328 197.475 11.832 193.491 11.832C189.531 11.832 186.867 14.328 186.867 18.048C186.867 21.72 189.531 24.24 193.491 24.24ZM193.491 21.936C190.611 21.936 189.411 20.568 189.411 18.048C189.411 15.504 190.611 14.112 193.491 14.112C196.395 14.112 197.595 15.504 197.595 18.048C197.595 20.568 196.395 21.936 193.491 21.936ZM209.844 24V21.672H207.684C206.196 21.672 205.524 21.288 205.524 19.824V14.232H209.844V12.072H205.524V9.456H202.956V12.072H200.94V14.232H202.956V19.968C202.956 22.872 204.54 24 207.108 24H209.844ZM217.562 24.24C221.546 24.24 224.21 21.72 224.21 18.048C224.21 14.328 221.546 11.832 217.562 11.832C213.602 11.832 210.938 14.328 210.938 18.048C210.938 21.72 213.602 24.24 217.562 24.24ZM217.562 21.936C214.682 21.936 213.482 20.568 213.482 18.048C213.482 15.504 214.682 14.112 217.562 14.112C220.466 14.112 221.666 15.504 221.666 18.048C221.666 20.568 220.466 21.936 217.562 21.936ZM233.915 24V21.672H231.755C230.267 21.672 229.595 21.288 229.595 19.824V14.232H233.915V12.072H229.595V9.456H227.027V12.072H225.011V14.232H227.027V19.968C227.027 22.872 228.611 24 231.179 24H233.915ZM237.456 28.08C239.904 28.08 241.248 27.432 242.232 25.296L248.448 12.072H245.592L242.784 18.384L241.656 21.264H241.464L240.288 18.408L237.24 12.072H234.336L240.216 24L239.928 24.624C239.568 25.44 239.136 25.728 238.08 25.728H235.752V28.08H237.456ZM252.308 28.08V20.64H252.404C252.884 22.824 254.612 24.24 257.3 24.24C261.02 24.24 263.06 21.744 263.06 18.048C263.06 14.352 260.972 11.832 257.276 11.832C254.468 11.832 252.788 13.176 252.308 15.384H252.092V12.072H249.716V28.08H252.308ZM252.308 18.24V18.024C252.308 15.456 253.796 14.208 256.46 14.208C258.956 14.208 260.468 15.168 260.468 18.048C260.468 20.904 258.98 21.888 256.412 21.888C253.868 21.888 252.308 20.688 252.308 18.24ZM270.856 24.24C274.408 24.24 276.904 22.488 276.904 19.944V19.728H274.312V19.92C274.312 21.336 273.28 22.152 270.784 22.152C268.024 22.152 266.896 20.928 266.8 18.624H276.928C277 18.264 277.024 17.928 277.024 17.496C277.024 13.872 274.504 11.832 270.808 11.832C266.92 11.832 264.376 14.328 264.376 18.048C264.376 22.032 266.944 24.24 270.856 24.24ZM270.76 13.872C273.304 13.872 274.576 14.928 274.576 17.136V17.184H266.824C266.968 15.048 268.12 13.872 270.76 13.872ZM289.067 24.24C292.619 24.24 295.115 22.488 295.115 19.944V19.728H292.523V19.92C292.523 21.336 291.491 22.152 288.995 22.152C286.235 22.152 285.107 20.928 285.011 18.624H295.139C295.211 18.264 295.235 17.928 295.235 17.496C295.235 13.872 292.715 11.832 289.019 11.832C285.131 11.832 282.587 14.328 282.587 18.048C282.587 22.032 285.155 24.24 289.067 24.24ZM288.971 13.872C291.515 13.872 292.787 14.928 292.787 17.136V17.184H285.035C285.179 15.048 286.331 13.872 288.971 13.872ZM305.001 24V21.672H302.841C301.353 21.672 300.681 21.288 300.681 19.824V14.232H305.001V12.072H300.681V9.456H298.113V12.072H296.097V14.232H298.113V19.968C298.113 22.872 299.697 24 302.265 24H305.001ZM315.979 24.24C318.667 24.24 320.419 22.944 320.923 20.568H321.091V24H323.467V7.92H320.875V15.312H320.731C320.251 13.296 318.643 11.832 315.811 11.832C312.187 11.832 310.123 14.328 310.123 18.048C310.123 21.72 312.211 24.24 315.979 24.24ZM312.739 18.048C312.739 15.168 314.227 14.184 316.723 14.184C319.387 14.184 320.875 15.432 320.875 17.976V18.168C320.875 20.664 319.315 21.864 316.771 21.864C314.203 21.864 312.739 20.904 312.739 18.048ZM331.864 24.24C335.416 24.24 337.912 22.488 337.912 19.944V19.728H335.32V19.92C335.32 21.336 334.288 22.152 331.792 22.152C329.032 22.152 327.904 20.928 327.808 18.624H337.936C338.008 18.264 338.032 17.928 338.032 17.496C338.032 13.872 335.512 11.832 331.816 11.832C327.928 11.832 325.384 14.328 325.384 18.048C325.384 22.032 327.952 24.24 331.864 24.24ZM331.768 13.872C334.312 13.872 335.584 14.928 335.584 17.136V17.184H327.832C327.976 15.048 329.128 13.872 331.768 13.872ZM9.224 57.24C12.8 57.24 15.416 55.224 15.416 52.248V51.984H12.848V52.152C12.848 54 11.504 54.912 9.176 54.912C6.488 54.912 5.288 53.616 5.288 51.048C5.288 48.432 6.488 47.16 9.176 47.16C11.504 47.16 12.848 48.072 12.848 49.92V50.064H15.416V49.824C15.416 46.848 12.8 44.832 9.224 44.832C5.288 44.832 2.72 47.328 2.72 51.048C2.72 54.72 5.288 57.24 9.224 57.24ZM23.4288 57.24C27.4128 57.24 30.0768 54.72 30.0768 51.048C30.0768 47.328 27.4128 44.832 23.4288 44.832C19.4688 44.832 16.8048 47.328 16.8048 51.048C16.8048 54.72 19.4688 57.24 23.4288 57.24ZM23.4288 54.936C20.5488 54.936 19.3488 53.568 19.3488 51.048C19.3488 48.504 20.5488 47.112 23.4288 47.112C26.3328 47.112 27.5328 48.504 27.5328 51.048C27.5328 53.568 26.3328 54.936 23.4288 54.936ZM34.5498 57V51.096C34.5498 48.456 35.4378 47.16 38.0058 47.16C40.3098 47.16 41.2218 48.168 41.2218 50.52V57H43.7898V51.096C43.7898 48.456 44.7018 47.16 47.2458 47.16C49.5498 47.16 50.4858 48.168 50.4858 50.52V57H53.0538V49.824C53.0538 46.944 51.4938 44.832 48.3978 44.832C45.3738 44.832 44.0298 46.728 43.7178 48.768H43.5738C43.2378 46.488 41.7738 44.832 39.0618 44.832C36.0858 44.832 34.7898 46.68 34.4778 48.672H34.3338V45.072H31.9578V57H34.5498ZM57.9639 61.08V53.64H58.0599C58.5399 55.824 60.2679 57.24 62.9559 57.24C66.6759 57.24 68.7159 54.744 68.7159 51.048C68.7159 47.352 66.6279 44.832 62.9319 44.832C60.1239 44.832 58.4439 46.176 57.9639 48.384H57.7479V45.072H55.3719V61.08H57.9639ZM57.9639 51.24V51.024C57.9639 48.456 59.4519 47.208 62.1159 47.208C64.6119 47.208 66.1239 48.168 66.1239 51.048C66.1239 53.904 64.6359 54.888 62.0679 54.888C59.5239 54.888 57.9639 53.688 57.9639 51.24ZM76.6085 57.24C80.5925 57.24 83.2565 54.72 83.2565 51.048C83.2565 47.328 80.5925 44.832 76.6085 44.832C72.6485 44.832 69.9845 47.328 69.9845 51.048C69.9845 54.72 72.6485 57.24 76.6085 57.24ZM76.6085 54.936C73.7285 54.936 72.5285 53.568 72.5285 51.048C72.5285 48.504 73.7285 47.112 76.6085 47.112C79.5125 47.112 80.7125 48.504 80.7125 51.048C80.7125 53.568 79.5125 54.936 76.6085 54.936ZM90.7775 57.24C94.1375 57.24 96.3455 55.92 96.3455 53.688C96.3455 51.72 95.0495 50.76 92.2175 50.4L89.4575 50.016C87.6575 49.776 87.1775 49.44 87.1775 48.504C87.1775 47.376 87.9455 46.896 90.1295 46.896C92.7695 46.896 93.4895 47.64 93.4895 49.056V49.2H96.0575V49.128C96.0575 46.296 93.8495 44.832 90.2015 44.832C86.5295 44.832 84.6335 46.32 84.6335 48.408C84.6335 50.4 86.0015 51.36 88.2575 51.648L91.5215 52.08C93.2255 52.32 93.8015 52.632 93.8015 53.616C93.8015 54.672 93.1055 55.152 90.7775 55.152C88.2815 55.152 87.3455 54.648 87.3455 53.088V52.896H84.7535V52.968C84.7535 55.728 86.9375 57.24 90.7775 57.24ZM104.216 57.24C107.768 57.24 110.264 55.488 110.264 52.944V52.728H107.672V52.92C107.672 54.336 106.64 55.152 104.144 55.152C101.384 55.152 100.256 53.928 100.16 51.624H110.288C110.36 51.264 110.384 50.928 110.384 50.496C110.384 46.872 107.864 44.832 104.168 44.832C100.28 44.832 97.7356 47.328 97.7356 51.048C97.7356 55.032 100.304 57.24 104.216 57.24ZM104.12 46.872C106.664 46.872 107.936 47.928 107.936 50.136V50.184H100.184C100.328 48.048 101.48 46.872 104.12 46.872ZM114.917 57V51.096C114.917 48.504 116.093 47.16 118.709 47.16C121.181 47.16 122.189 48.288 122.189 50.52V57H124.781V49.824C124.781 47.064 123.149 44.832 119.837 44.832C116.813 44.832 115.229 46.752 114.869 48.768H114.701V45.072H112.325V57H114.917ZM134.915 57V54.672H132.755C131.267 54.672 130.595 54.288 130.595 52.824V47.232H134.915V45.072H130.595V42.456H128.027V45.072H126.011V47.232H128.027V52.968C128.027 55.872 129.611 57 132.179 57H134.915ZM143.23 61.08V53.64H143.326C143.806 55.824 145.534 57.24 148.222 57.24C151.942 57.24 153.982 54.744 153.982 51.048C153.982 47.352 151.894 44.832 148.198 44.832C145.39 44.832 143.71 46.176 143.23 48.384H143.014V45.072H140.638V61.08H143.23ZM143.23 51.24V51.024C143.23 48.456 144.718 47.208 147.382 47.208C149.878 47.208 151.39 48.168 151.39 51.048C151.39 53.904 149.902 54.888 147.334 54.888C144.79 54.888 143.23 53.688 143.23 51.24ZM161.874 57.24C165.858 57.24 168.522 54.72 168.522 51.048C168.522 47.328 165.858 44.832 161.874 44.832C157.914 44.832 155.25 47.328 155.25 51.048C155.25 54.72 157.914 57.24 161.874 57.24ZM161.874 54.936C158.994 54.936 157.794 53.568 157.794 51.048C157.794 48.504 158.994 47.112 161.874 47.112C164.778 47.112 165.978 48.504 165.978 51.048C165.978 53.568 164.778 54.936 161.874 54.936ZM175.371 57.24C178.443 57.24 180.027 55.32 180.411 53.304H180.555V57H182.931V45.072H180.363V50.976C180.363 53.568 179.139 54.912 176.499 54.912C173.979 54.912 172.947 53.784 172.947 51.552V45.072H170.379V52.248C170.379 55.008 172.011 57.24 175.371 57.24ZM187.878 57V50.304C187.878 48.168 188.718 47.04 190.758 47.04C192.534 47.04 193.254 47.832 193.254 49.536V50.592H195.822V49.032C195.822 46.776 194.646 44.832 191.934 44.832C189.486 44.832 188.19 46.368 187.83 48.288H187.662V45.072H185.286V57H187.878ZM204.144 57V50.304C204.144 48.168 204.984 47.04 207.024 47.04C208.8 47.04 209.52 47.832 209.52 49.536V50.592H212.088V49.032C212.088 46.776 210.912 44.832 208.2 44.832C205.752 44.832 204.456 46.368 204.096 48.288H203.928V45.072H201.552V57H204.144ZM220.916 43.56L224.9 40.44H221.276L218.204 43.56H220.916ZM219.716 57.24C223.268 57.24 225.764 55.488 225.764 52.944V52.728H223.172V52.92C223.172 54.336 222.14 55.152 219.644 55.152C216.884 55.152 215.756 53.928 215.66 51.624H225.788C225.86 51.264 225.884 50.928 225.884 50.496C225.884 46.872 223.364 44.832 219.668 44.832C215.78 44.832 213.236 47.328 213.236 51.048C213.236 55.032 215.804 57.24 219.716 57.24ZM219.62 46.872C222.164 46.872 223.436 47.928 223.436 50.136V50.184H215.684C215.828 48.048 216.98 46.872 219.62 46.872ZM231.329 57.24C234.041 57.24 235.937 56.04 236.561 54.024H236.729V57H239.105V49.752C239.105 46.896 237.401 44.832 233.609 44.832C229.817 44.832 227.561 46.872 227.561 49.584V49.68H230.129V49.584C230.129 47.832 231.209 47.112 233.417 47.112C235.697 47.112 236.561 47.808 236.561 49.776V50.472L231.137 51.048C228.785 51.312 227.297 52.272 227.297 54.12C227.297 56.088 228.857 57.24 231.329 57.24ZM229.889 53.952C229.889 53.016 230.537 52.704 231.881 52.536L236.561 52.008C236.561 54.36 234.737 55.368 232.025 55.368C230.537 55.368 229.889 54.912 229.889 53.952ZM244.011 57V40.92H241.419V57H244.011ZM249.003 43.68V40.92H246.411V43.68H249.003ZM249.003 57V45.072H246.411V57H249.003ZM257.043 57.24C260.403 57.24 262.611 55.92 262.611 53.688C262.611 51.72 261.315 50.76 258.483 50.4L255.723 50.016C253.923 49.776 253.443 49.44 253.443 48.504C253.443 47.376 254.211 46.896 256.395 46.896C259.035 46.896 259.755 47.64 259.755 49.056V49.2H262.323V49.128C262.323 46.296 260.115 44.832 256.467 44.832C252.795 44.832 250.899 46.32 250.899 48.408C250.899 50.4 252.267 51.36 254.523 51.648L257.787 52.08C259.491 52.32 260.067 52.632 260.067 53.616C260.067 54.672 259.371 55.152 257.043 55.152C254.547 55.152 253.611 54.648 253.611 53.088V52.896H251.019V52.968C251.019 55.728 253.203 57.24 257.043 57.24ZM270.481 57.24C274.033 57.24 276.529 55.488 276.529 52.944V52.728H273.937V52.92C273.937 54.336 272.905 55.152 270.409 55.152C267.649 55.152 266.521 53.928 266.425 51.624H276.553C276.625 51.264 276.649 50.928 276.649 50.496C276.649 46.872 274.129 44.832 270.433 44.832C266.545 44.832 264.001 47.328 264.001 51.048C264.001 55.032 266.569 57.24 270.481 57.24ZM270.385 46.872C272.929 46.872 274.201 47.928 274.201 50.136V50.184H266.449C266.593 48.048 267.745 46.872 270.385 46.872ZM281.183 57V50.304C281.183 48.168 282.023 47.04 284.063 47.04C285.839 47.04 286.559 47.832 286.559 49.536V50.592H289.127V49.032C289.127 46.776 287.951 44.832 285.239 44.832C282.791 44.832 281.495 46.368 281.135 48.288H280.967V45.072H278.591V57H281.183ZM300.88 57.24C304.456 57.24 307.072 55.224 307.072 52.248V51.984H304.504V52.152C304.504 54 303.16 54.912 300.832 54.912C298.144 54.912 296.944 53.616 296.944 51.048C296.944 48.432 298.144 47.16 300.832 47.16C303.16 47.16 304.504 48.072 304.504 49.92V50.064H307.072V49.824C307.072 46.848 304.456 44.832 300.88 44.832C296.944 44.832 294.376 47.328 294.376 51.048C294.376 54.72 296.944 57.24 300.88 57.24ZM314.989 57.24C318.541 57.24 321.037 55.488 321.037 52.944V52.728H318.445V52.92C318.445 54.336 317.413 55.152 314.917 55.152C312.157 55.152 311.029 53.928 310.933 51.624H321.061C321.133 51.264 321.157 50.928 321.157 50.496C321.157 46.872 318.637 44.832 314.941 44.832C311.053 44.832 308.509 47.328 308.509 51.048C308.509 55.032 311.077 57.24 314.989 57.24ZM314.893 46.872C317.437 46.872 318.709 47.928 318.709 50.136V50.184H310.957C311.101 48.048 312.253 46.872 314.893 46.872ZM330.922 57V54.672H328.762C327.274 54.672 326.602 54.288 326.602 52.824V47.232H330.922V45.072H326.602V42.456H324.034V45.072H322.018V47.232H324.034V52.968C324.034 55.872 325.618 57 328.186 57H330.922ZM340.368 57V54.672H338.208C336.72 54.672 336.048 54.288 336.048 52.824V47.232H340.368V45.072H336.048V42.456H333.48V45.072H331.464V47.232H333.48V52.968C333.48 55.872 335.064 57 337.632 57H340.368ZM347.989 57.24C351.541 57.24 354.037 55.488 354.037 52.944V52.728H351.445V52.92C351.445 54.336 350.413 55.152 347.917 55.152C345.157 55.152 344.029 53.928 343.933 51.624H354.061C354.133 51.264 354.157 50.928 354.157 50.496C354.157 46.872 351.637 44.832 347.941 44.832C344.053 44.832 341.509 47.328 341.509 51.048C341.509 55.032 344.077 57.24 347.989 57.24ZM347.893 46.872C350.437 46.872 351.709 47.928 351.709 50.136V50.184H343.957C344.101 48.048 345.253 46.872 347.893 46.872ZM363.704 57.24C366.416 57.24 368.312 56.04 368.936 54.024H369.104V57H371.48V49.752C371.48 46.896 369.776 44.832 365.984 44.832C362.192 44.832 359.936 46.872 359.936 49.584V49.68H362.504V49.584C362.504 47.832 363.584 47.112 365.792 47.112C368.072 47.112 368.936 47.808 368.936 49.776V50.472L363.512 51.048C361.16 51.312 359.672 52.272 359.672 54.12C359.672 56.088 361.232 57.24 363.704 57.24ZM362.264 53.952C362.264 53.016 362.912 52.704 364.256 52.536L368.936 52.008C368.936 54.36 367.112 55.368 364.4 55.368C362.912 55.368 362.264 54.912 362.264 53.952ZM376.386 61.08V53.64H376.482C376.962 55.824 378.69 57.24 381.378 57.24C385.098 57.24 387.138 54.744 387.138 51.048C387.138 47.352 385.05 44.832 381.354 44.832C378.546 44.832 376.866 46.176 376.386 48.384H376.17V45.072H373.794V61.08H376.386ZM376.386 51.24V51.024C376.386 48.456 377.874 47.208 380.538 47.208C383.034 47.208 384.546 48.168 384.546 51.048C384.546 53.904 383.058 54.888 380.49 54.888C377.946 54.888 376.386 53.688 376.386 51.24ZM391.526 61.08V53.64H391.622C392.102 55.824 393.83 57.24 396.518 57.24C400.238 57.24 402.278 54.744 402.278 51.048C402.278 47.352 400.19 44.832 396.494 44.832C393.686 44.832 392.006 46.176 391.526 48.384H391.31V45.072H388.934V61.08H391.526ZM391.526 51.24V51.024C391.526 48.456 393.014 47.208 395.678 47.208C398.174 47.208 399.686 48.168 399.686 51.048C399.686 53.904 398.198 54.888 395.63 54.888C393.086 54.888 391.526 53.688 391.526 51.24ZM406.667 57V40.92H404.075V57H406.667ZM411.659 43.68V40.92H409.067V43.68H411.659ZM411.659 57V45.072H409.067V57H411.659ZM11.024 90V87.672H8.864C7.376 87.672 6.704 87.288 6.704 85.824V80.232H11.024V78.072H6.704V75.456H4.136V78.072H2.12V80.232H4.136V85.968C4.136 88.872 5.72 90 8.288 90H11.024ZM18.7413 90.24C22.7253 90.24 25.3893 87.72 25.3893 84.048C25.3893 80.328 22.7253 77.832 18.7413 77.832C14.7813 77.832 12.1173 80.328 12.1173 84.048C12.1173 87.72 14.7813 90.24 18.7413 90.24ZM18.7413 87.936C15.8613 87.936 14.6613 86.568 14.6613 84.048C14.6613 81.504 15.8613 80.112 18.7413 80.112C21.6453 80.112 22.8453 81.504 22.8453 84.048C22.8453 86.568 21.6453 87.936 18.7413 87.936ZM35.0943 90V87.672H32.9343C31.4463 87.672 30.7743 87.288 30.7743 85.824V80.232H35.0943V78.072H30.7743V75.456H28.2063V78.072H26.1903V80.232H28.2063V85.968C28.2063 88.872 29.7903 90 32.3583 90H35.0943ZM40.2196 90.24C42.9316 90.24 44.8276 89.04 45.4516 87.024H45.6196V90H47.9956V82.752C47.9956 79.896 46.2916 77.832 42.4996 77.832C38.7076 77.832 36.4516 79.872 36.4516 82.584V82.68H39.0196V82.584C39.0196 80.832 40.0996 80.112 42.3076 80.112C44.5876 80.112 45.4516 80.808 45.4516 82.776V83.472L40.0276 84.048C37.6756 84.312 36.1876 85.272 36.1876 87.12C36.1876 89.088 37.7476 90.24 40.2196 90.24ZM38.7796 86.952C38.7796 86.016 39.4276 85.704 40.7716 85.536L45.4516 85.008C45.4516 87.36 43.6276 88.368 40.9156 88.368C39.4276 88.368 38.7796 87.912 38.7796 86.952ZM52.9014 90V73.92H50.3094V90H52.9014ZM61.3016 90.24C64.8536 90.24 67.3496 88.488 67.3496 85.944V85.728H64.7576V85.92C64.7576 87.336 63.7256 88.152 61.2296 88.152C58.4696 88.152 57.3416 86.928 57.2456 84.624H67.3736C67.4456 84.264 67.4696 83.928 67.4696 83.496C67.4696 79.872 64.9496 77.832 61.2536 77.832C57.3656 77.832 54.8216 80.328 54.8216 84.048C54.8216 88.032 57.3896 90.24 61.3016 90.24ZM61.2056 79.872C63.7496 79.872 65.0216 80.928 65.0216 83.136V83.184H57.2696C57.4136 81.048 58.5656 79.872 61.2056 79.872ZM72.0029 90V84.096C72.0029 81.456 72.8909 80.16 75.4589 80.16C77.7629 80.16 78.6749 81.168 78.6749 83.52V90H81.2429V84.096C81.2429 81.456 82.1549 80.16 84.6989 80.16C87.0029 80.16 87.9389 81.168 87.9389 83.52V90H90.5069V82.824C90.5069 79.944 88.9469 77.832 85.8509 77.832C82.8269 77.832 81.4829 79.728 81.1709 81.768H81.0269C80.6909 79.488 79.2269 77.832 76.5149 77.832C73.5389 77.832 72.2429 79.68 71.9309 81.672H71.7869V78.072H69.4109V90H72.0029ZM98.825 90.24C102.377 90.24 104.873 88.488 104.873 85.944V85.728H102.281V85.92C102.281 87.336 101.249 88.152 98.753 88.152C95.993 88.152 94.865 86.928 94.769 84.624H104.897C104.969 84.264 104.993 83.928 104.993 83.496C104.993 79.872 102.473 77.832 98.777 77.832C94.889 77.832 92.345 80.328 92.345 84.048C92.345 88.032 94.913 90.24 98.825 90.24ZM98.729 79.872C101.273 79.872 102.545 80.928 102.545 83.136V83.184H94.793C94.937 81.048 96.089 79.872 98.729 79.872ZM109.526 90V84.096C109.526 81.504 110.702 80.16 113.318 80.16C115.79 80.16 116.798 81.288 116.798 83.52V90H119.39V82.824C119.39 80.064 117.758 77.832 114.446 77.832C111.422 77.832 109.838 79.752 109.478 81.768H109.31V78.072H106.934V90H109.526ZM129.524 90V87.672H127.364C125.876 87.672 125.204 87.288 125.204 85.824V80.232H129.524V78.072H125.204V75.456H122.636V78.072H120.62V80.232H122.636V85.968C122.636 88.872 124.22 90 126.788 90H129.524ZM142.903 90L148.519 78.072H145.711L141.463 87.48H141.271L137.023 78.072H134.167L139.735 90H142.903ZM152.44 76.68V73.92H149.848V76.68H152.44ZM152.44 90V78.072H149.848V90H152.44ZM162.497 90L168.113 78.072H165.305L161.057 87.48H160.865L156.617 78.072H153.761L159.329 90H162.497ZM172.946 90.24C175.658 90.24 177.554 89.04 178.178 87.024H178.346V90H180.722V82.752C180.722 79.896 179.018 77.832 175.226 77.832C171.434 77.832 169.178 79.872 169.178 82.584V82.68H171.746V82.584C171.746 80.832 172.826 80.112 175.034 80.112C177.314 80.112 178.178 80.808 178.178 82.776V83.472L172.754 84.048C170.402 84.312 168.914 85.272 168.914 87.12C168.914 89.088 170.474 90.24 172.946 90.24ZM171.506 86.952C171.506 86.016 172.154 85.704 173.498 85.536L178.178 85.008C178.178 87.36 176.354 88.368 173.642 88.368C172.154 88.368 171.506 87.912 171.506 86.952ZM185.628 90V84.096C185.628 81.504 186.804 80.16 189.42 80.16C191.892 80.16 192.9 81.288 192.9 83.52V90H195.492V82.824C195.492 80.064 193.86 77.832 190.548 77.832C187.524 77.832 185.94 79.752 185.58 81.768H185.412V78.072H183.036V90H185.628ZM205.626 90V87.672H203.466C201.978 87.672 201.306 87.288 201.306 85.824V80.232H205.626V78.072H201.306V75.456H198.738V78.072H196.722V80.232H198.738V85.968C198.738 88.872 200.322 90 202.89 90H205.626ZM213.247 90.24C216.799 90.24 219.295 88.488 219.295 85.944V85.728H216.703V85.92C216.703 87.336 215.671 88.152 213.175 88.152C210.415 88.152 209.287 86.928 209.191 84.624H219.319C219.391 84.264 219.415 83.928 219.415 83.496C219.415 79.872 216.895 77.832 213.199 77.832C209.311 77.832 206.767 80.328 206.767 84.048C206.767 88.032 209.335 90.24 213.247 90.24ZM213.151 79.872C215.695 79.872 216.967 80.928 216.967 83.136V83.184H209.215C209.359 81.048 210.511 79.872 213.151 79.872ZM220.756 73.392C222.724 75.984 224.068 77.952 224.068 81.96C224.068 85.968 222.724 87.936 220.756 90.528L222.052 91.728C224.26 89.664 226.876 86.52 226.876 81.96C226.876 77.4 224.26 74.256 222.052 72.192L220.756 73.392ZM11.192 123V109.248H17.504V106.92H2.288V109.248H8.624V123H11.192ZM21.6123 123V117.216C21.6123 114.696 22.6203 113.16 25.4523 113.16C27.9243 113.16 29.0043 114.12 29.0043 116.52V123H31.5723V115.896C31.5723 112.992 29.9643 110.832 26.6763 110.832C23.6283 110.832 22.1643 112.704 21.7563 114.72H21.6123V106.92H19.0203V123H21.6123ZM37.4071 123.24C40.1191 123.24 42.0151 122.04 42.6391 120.024H42.8071V123H45.1831V115.752C45.1831 112.896 43.4791 110.832 39.6871 110.832C35.8951 110.832 33.6391 112.872 33.6391 115.584V115.68H36.2071V115.584C36.2071 113.832 37.2871 113.112 39.4951 113.112C41.7751 113.112 42.6391 113.808 42.6391 115.776V116.472L37.2151 117.048C34.8631 117.312 33.3751 118.272 33.3751 120.12C33.3751 122.088 34.9351 123.24 37.4071 123.24ZM35.9671 119.952C35.9671 119.016 36.6151 118.704 37.9591 118.536L42.6391 118.008C42.6391 120.36 40.8151 121.368 38.1031 121.368C36.6151 121.368 35.9671 120.912 35.9671 119.952ZM50.0889 123V117.096C50.0889 114.504 51.2649 113.16 53.8809 113.16C56.3529 113.16 57.3609 114.288 57.3609 116.52V123H59.9529V115.824C59.9529 113.064 58.3209 110.832 55.0089 110.832C51.9849 110.832 50.4009 112.752 50.0409 114.768H49.8729V111.072H47.4969V123H50.0889ZM64.8545 123V118.128H68.2625L71.7905 123H74.8385L70.3745 116.808L74.8625 111.072H71.8385L68.2625 115.8H64.8545V106.92H62.2625V123H64.8545ZM81.7775 123.24C85.1375 123.24 87.3455 121.92 87.3455 119.688C87.3455 117.72 86.0495 116.76 83.2175 116.4L80.4575 116.016C78.6575 115.776 78.1775 115.44 78.1775 114.504C78.1775 113.376 78.9455 112.896 81.1295 112.896C83.7695 112.896 84.4895 113.64 84.4895 115.056V115.2H87.0575V115.128C87.0575 112.296 84.8495 110.832 81.2015 110.832C77.5295 110.832 75.6335 112.32 75.6335 114.408C75.6335 116.4 77.0015 117.36 79.2575 117.648L82.5215 118.08C84.2255 118.32 84.8015 118.632 84.8015 119.616C84.8015 120.672 84.1055 121.152 81.7775 121.152C79.2815 121.152 78.3455 120.648 78.3455 119.088V118.896H75.7535V118.968C75.7535 121.728 77.9375 123.24 81.7775 123.24ZM95.9092 123V116.544H105.749V114.24H95.9092V109.248H106.109V106.92H93.3172V123H95.9092ZM110.628 109.68V106.92H108.036V109.68H110.628ZM110.628 123V111.072H108.036V123H110.628ZM118.212 121.92C120.924 121.92 122.532 120.624 122.964 118.824H123.132V121.752C123.132 124.416 122.148 125.16 119.436 125.16C116.892 125.16 115.884 124.512 115.884 122.784H113.316C113.316 125.664 115.764 127.32 119.292 127.32C123.204 127.32 125.7 125.616 125.7 121.608V111.072H123.324V114.048H123.18C122.748 111.96 120.876 110.832 118.38 110.832C114.756 110.832 112.548 113.064 112.548 116.376C112.548 119.688 114.66 121.92 118.212 121.92ZM115.164 116.376C115.164 113.928 116.628 113.088 119.124 113.088C121.644 113.088 123.132 114.12 123.132 116.136V116.472C123.132 118.584 121.692 119.688 119.052 119.688C116.604 119.688 115.164 118.824 115.164 116.376ZM130.69 123V117.096C130.69 114.456 131.578 113.16 134.146 113.16C136.45 113.16 137.362 114.168 137.362 116.52V123H139.93V117.096C139.93 114.456 140.842 113.16 143.386 113.16C145.69 113.16 146.626 114.168 146.626 116.52V123H149.194V115.824C149.194 112.944 147.634 110.832 144.538 110.832C141.514 110.832 140.17 112.728 139.858 114.768H139.714C139.378 112.488 137.914 110.832 135.202 110.832C132.226 110.832 130.93 112.68 130.618 114.672H130.474V111.072H128.098V123H130.69ZM155.017 123.24C157.729 123.24 159.625 122.04 160.249 120.024H160.417V123H162.793V115.752C162.793 112.896 161.089 110.832 157.297 110.832C153.505 110.832 151.249 112.872 151.249 115.584V115.68H153.817V115.584C153.817 113.832 154.897 113.112 157.105 113.112C159.385 113.112 160.249 113.808 160.249 115.776V116.472L154.825 117.048C152.473 117.312 150.985 118.272 150.985 120.12C150.985 122.088 152.545 123.24 155.017 123.24ZM153.577 119.952C153.577 119.016 154.225 118.704 155.569 118.536L160.249 118.008C160.249 120.36 158.425 121.368 155.713 121.368C154.225 121.368 153.577 120.912 153.577 119.952Z" fill="black"/>
</svg>
